<svg preserveAspectRatio="none" width="179" height="163.71" overflow="visible" style="display: block;" viewBox="0 0 179 163.71" fill="none" xmlns="http://www.w3.org/2000/svg">
<g id="Group 46">
<path id="Vector" d="M89.4911 60.1442C89.5973 59.7536 89.4027 59.3276 89.6327 58.9193C92.2866 58.1204 96.5507 57.8896 98.4792 58.4044C97.5592 59.079 97.6122 59.8779 97.6653 60.1442C97.7361 60.4992 98.0369 60.801 98.4438 61.085C95.4714 60.9608 92.4813 60.8542 89.4911 60.8898H89.2965C89.3496 60.6767 89.4027 60.4282 89.4735 60.1442H89.4911Z" fill="var(--fill-0, #ADD2A3)"/>
<path id="Vector_2" d="M89.5177 163.71C73.2385 163.71 57.5787 158.777 44.2192 149.46C31.9213 140.888 22.3838 129.176 16.5092 115.493C13.3949 116.629 10.4399 117.765 7.53796 118.972C6.86556 119.256 6.17546 119.38 5.44998 119.38C4.3706 119.38 3.32661 119.06 2.42418 118.457C0.902432 117.446 0 115.742 0 113.914V80.2491C0 78.0308 1.32711 76.0432 3.362 75.1914C5.75079 74.1976 8.22805 73.2215 10.8823 72.2277C13.5188 54.4459 22.1715 37.9595 35.3895 25.608C48.4305 13.434 65.1874 5.99823 82.8291 4.50753C83.0768 4.02838 83.4838 3.51374 84.1031 3.01684L84.1916 2.94585C84.7401 2.44895 85.4479 2.14726 86.2972 2.05853C86.5273 1.82783 86.8104 1.59713 87.1643 1.38417C87.8013 1.0115 88.5799 0.816285 89.4115 0.816285C90.0839 0.816285 90.774 0.94051 91.3579 1.15347C91.411 1.17121 91.4464 1.18896 91.4995 1.20671C91.9596 1.41966 92.3312 1.68586 92.5966 1.98755C93.0566 1.59713 93.6937 1.22445 94.5784 1.15347C94.7199 1.13572 94.8792 1.11797 95.0208 1.11797C95.1446 1.11797 95.2685 1.11797 95.3923 1.13572C95.8878 0.816285 96.4717 0.656568 97.038 0.656568C97.1618 0.656568 97.3034 0.656568 97.4095 0.674314C97.9758 0.354879 98.6659 0.0531906 99.4975 0.0531906C100.205 0.0531906 102.559 0.319386 103.09 3.81542C103.107 3.9219 103.125 4.04613 103.125 4.1526C103.284 4.1526 103.443 4.1881 103.638 4.22359C104.399 4.38331 106.292 4.77373 107.478 6.28217C139.258 13.6647 163.358 39.8938 168.118 72.21C170.772 73.2038 173.249 74.1798 175.638 75.1736C177.691 76.0255 179 78.0131 179 80.2313V113.896C179 115.724 178.098 117.428 176.576 118.439C175.673 119.043 174.629 119.362 173.55 119.362C172.825 119.362 172.134 119.22 171.462 118.954C168.56 117.747 165.623 116.611 162.491 115.476C156.598 129.158 147.061 140.871 134.781 149.442C121.439 158.759 105.761 163.693 89.4823 163.693L89.5177 163.71Z" fill="var(--fill-0, #ADD2A3)"/>
<g id="Group">
<g id="Vector_3">
</g>
<path id="Vector_4" d="M174.577 77.7899C171.604 76.5472 168.597 75.3933 165.571 74.2927C161.484 41.7708 137.103 15.5331 105.592 8.75176C105.344 7.58011 104.141 7.20732 103.079 6.99429C102.92 6.95879 102.761 6.99429 102.584 6.97654C101.717 7.10081 101.133 6.74576 100.549 6.01792C100.036 5.57412 100.195 5.11256 100.319 4.56225C100.319 4.49124 100.355 4.34922 100.337 4.26046C99.9831 2.00594 99.0277 3.05331 97.8069 3.74565C97.4176 3.69239 96.816 3.08882 96.763 3.90542C96.8337 4.1717 97.2407 4.06519 96.7453 4.5445C96.0906 4.91729 95.6306 3.81666 94.9229 3.95867C94.3213 3.97643 94.2506 4.50899 93.8967 4.91729C93.4367 5.32559 92.7997 4.91729 92.269 4.91729C91.8266 4.88179 91.3843 5.00605 91.1543 4.84628C90.8181 4.58 90.8358 4.01193 90.4112 3.81666C89.9335 3.63914 89.0665 3.55038 88.5534 3.85216C88.1465 4.04744 87.828 4.84628 87.3149 4.86403C87.2972 4.86403 87.2795 4.86403 87.2441 4.86403C86.9964 4.86403 86.3595 4.79303 86.0764 5.05931C85.7933 5.32559 85.1564 5.69839 85.351 6.03568C85.5456 6.37297 85.6872 6.72801 85.7048 6.87003C85.7048 6.95879 85.7048 7.04755 85.7048 7.13631C48.3903 8.96478 18.0469 37.6523 13.429 74.275C10.4212 75.3756 7.41336 76.5472 4.42325 77.7721C3.43244 78.1804 2.79549 79.1568 2.79549 80.2219V113.898C2.79549 114.785 3.23782 115.62 3.98092 116.099C4.42325 116.401 4.93635 116.543 5.44944 116.543C5.78561 116.543 6.13947 116.472 6.45794 116.348C10.2973 114.75 14.1721 113.276 18.0645 111.91C29.2465 140.544 57.0422 160.87 89.4912 160.87C121.94 160.87 149.736 140.544 160.918 111.91C164.81 113.276 168.685 114.75 172.524 116.348C172.843 116.49 173.197 116.543 173.533 116.543C174.046 116.543 174.559 116.383 175.001 116.099C175.744 115.602 176.187 114.785 176.187 113.898V80.2219C176.187 79.139 175.55 78.1804 174.559 77.7721L174.577 77.7899Z" fill="var(--fill-0, #78C38E)"/>
<g id="Group_2">
<path id="Vector_5" d="M116.508 133.567H61.377V146.154H116.508V133.567Z" fill="var(--fill-0, #ADD2A3)"/>
<g id="Group_3">
<path id="Vector_6" d="M40.4816 132.449C34.0767 125.934 28.9457 118.141 25.5133 109.478C46.2141 103.051 67.658 99.7849 89.5088 99.7849C111.36 99.7849 132.804 103.051 153.504 109.478C150.072 118.141 144.941 125.916 138.536 132.449C106.37 124.212 72.6474 124.212 40.4816 132.449Z" fill="var(--fill-0, white)"/>
<path id="Vector_7" d="M109.661 50.6823C109.838 50.7001 110.033 50.5758 110.21 50.5403C110.369 50.5226 110.422 50.6823 110.44 50.8066C110.581 51.3747 110.334 51.8007 109.785 51.854H109.767C109.767 51.854 109.679 51.7475 109.661 51.5877C109.626 51.3392 109.59 51.0551 109.555 50.8066C109.555 50.7178 109.573 50.6823 109.661 50.6823ZM143.49 49.4042C142.234 48.7651 140.801 48.055 138.802 47.5757C135.104 46.7059 133.157 47.3982 131.105 48.1615C129.637 48.6941 128.133 49.2444 125.691 49.2977C124.93 49.3154 124.116 49.3864 123.249 49.5107C123.285 49.4219 123.338 49.3332 123.426 49.2267C123.002 48.7829 122.825 48.6586 123.32 48.1438C124.47 46.9011 123.232 45.1969 122.789 43.901C122.612 43.3862 122.029 43.1909 121.763 42.7649C121.604 41.8595 121.232 41.2204 120.312 40.8121C119.021 40.2263 120.259 40.1376 119.658 39.4807C119.392 39.1257 118.932 39.2855 118.632 39.0547C118.543 38.8594 118.755 38.6464 118.879 38.4866H141.314C144.145 41.7353 146.693 45.2502 148.887 48.9781C147.754 49.4574 146.675 49.9545 145.808 50.4161C145.012 50.1498 144.286 49.7947 143.508 49.4042H143.49ZM95.7899 39.2855C95.9137 39.1612 96.073 39.0902 96.2145 39.0192C96.533 38.8772 96.8692 38.7351 97.1876 38.5931H97.2584C97.3469 38.4866 97.5238 38.4689 97.63 38.5576C97.7361 38.6464 97.7715 38.8061 97.7007 38.9304C97.6653 38.9837 97.63 39.0192 97.6123 39.0902C97.5238 39.321 97.8423 39.6405 97.6476 39.7648C97.5592 39.818 97.4707 39.7648 97.3646 39.7648C97.2053 39.7648 97.0638 39.8713 96.9045 39.9423C96.763 40.0133 96.5684 40.0666 96.4445 39.96C96.3738 39.9068 96.3384 39.818 96.2853 39.747C96.1261 39.605 95.8784 39.676 95.6837 39.7648C95.613 39.605 95.666 39.4275 95.7722 39.2855H95.7899ZM91.0482 46.7946C91.0835 45.765 91.1366 44.1495 91.3843 43.1909C91.5259 42.6584 92.4459 40.6346 93.1713 41.1317C93.5075 41.3625 93.4367 44.0075 93.7021 44.3803C94.8698 44.7176 94.8345 45.7117 94.7814 46.7059C94.8699 47.1319 95.0999 47.3982 95.5245 47.0609C95.7545 47.0609 95.8784 47.6467 96.0376 47.6645C96.8161 47.1674 96.7984 46.0313 97.0284 45.1969C97.2584 44.9839 97.9661 44.8596 98.09 45.3389C98.2846 45.8715 97.6123 46.4218 97.86 46.8834C98.1077 47.1674 98.3731 47.3982 98.4792 47.7887C98.7446 48.4988 99.5939 48.0728 100.054 48.4278C101.522 49.99 101.505 47.5935 102.69 47.5757C102.885 47.5935 103.15 47.8065 103.274 47.7887C103.469 47.8242 103.858 47.4159 103.964 47.7355C103.964 47.9485 103.61 48.3213 103.805 48.5876C104.123 48.9426 103.876 49.2622 103.769 49.6527C103.699 50.2563 104.672 51.0374 104.088 51.5877C103.876 51.8185 103.61 51.996 103.646 52.351C103.646 52.5818 103.787 52.7949 104.017 52.6173C104.265 52.4576 104.265 51.7652 104.672 51.9605C105.397 52.5641 105.556 51.2682 106.211 51.2859C106.76 51.3747 106.317 52.0138 106.423 52.3155C107.237 52.9369 107.007 53.4339 106.423 54.1618C106.37 54.2505 106.3 54.3393 106.246 54.4458C103.522 55.4932 101.487 56.3453 100.832 56.6293C99.5408 56.6293 97.5592 56.6293 95.2945 56.6293C95.2945 56.1855 95.1352 55.5642 95.2945 55.2624C95.5599 55.4222 95.7722 55.4754 95.9491 55.5819C96.2145 55.7595 96.3914 56.008 96.2676 56.5761C97.0992 56.292 96.1968 55.1736 96.1968 55.0494C96.1968 55.0494 96.3738 55.0494 96.5153 55.1559C96.6568 55.2624 96.7807 55.3867 96.7807 55.3867C96.7807 55.3867 96.7807 54.9961 96.2499 54.7476C95.8076 54.5523 95.1352 53.6292 95.1352 53.6292C95.5953 53.5404 96.9753 54.1618 97.0815 54.5701C97.1522 54.8541 96.993 54.9429 97.0815 55.2269C97.0815 55.2802 97.2938 55.5997 97.683 55.4754C97.7184 55.4754 97.4176 55.3867 97.3469 54.9606C97.2761 54.5878 97.4353 54.2328 96.9753 53.9842C96.0199 53.3274 95.0468 53.1676 94.0914 52.7593C93.189 52.3688 92.3044 51.925 91.4905 51.3214C91.2251 51.1261 91.0835 50.8244 91.0482 50.5048C90.9597 49.2799 90.9597 48.0195 91.0128 46.7946H91.0482ZM87.1026 44.5046C87.5449 46.7236 87.4211 50.061 85.3864 51.4989C84.3602 52.2268 84.3071 51.4634 83.5817 51.4989C83.2102 51.4989 82.9625 51.854 82.7855 51.8362C82.4671 51.783 80.8216 50.0788 80.397 49.9545C79.5477 49.6882 78.8754 50.0965 78.203 50.0255C77.8492 49.99 77.2476 49.1202 76.363 49.1024C76.1153 49.1024 75.8322 49.2444 75.5491 49.2444C72.2759 49.2089 69.215 49.3154 66.101 49.5285C64.5264 48.9071 63.0401 48.3391 60.8108 47.2739C60.4747 47.1142 60.0677 46.7236 59.6608 46.3331C58.9708 45.6762 58.1746 44.9129 57.1838 44.7354C56.8122 44.6644 56.3522 44.5578 55.8568 44.4513C54.1936 44.0785 52.1059 43.617 50.7081 43.8478C46.6387 44.5578 42.2863 44.8596 38.0753 45.1614C36.1291 45.3034 34.1652 45.4455 32.2013 45.623C33.8644 43.1199 35.7045 40.7411 37.6684 38.4866H59.59C59.6431 38.7706 59.7846 39.0902 60.2447 39.605C60.5631 40.5636 60.4924 41.3092 61.4478 41.9128C62.3501 43.0667 62.6332 44.5756 63.9779 45.3744C64.3317 46.0313 64.1371 47.0076 64.9687 47.3804C66.8088 48.197 67.0918 45.3034 68.295 46.4218C69.4273 46.6881 68.5604 45.1969 69.1619 45.0017C69.5158 45.0017 69.6927 45.3922 70.0466 45.2147C70.5774 44.8774 70.9135 45.5875 71.3912 45.7117C72.3467 45.6762 73.5675 45.3034 74.576 45.2679C75.2129 45.2679 75.8322 45.765 76.6107 45.4455C76.0268 44.4158 78.0438 43.2974 78.3092 44.4513C78.3623 44.6821 78.2384 44.9129 78.2915 45.1437C78.5038 46.12 79.8308 46.5993 80.7685 46.3863C80.9809 46.3331 81.9717 45.6407 82.007 45.4987C82.0955 45.1969 81.6886 44.6644 81.9009 44.1673C81.9009 44.1318 82.4671 43.5637 82.5201 43.546C82.7148 43.4395 83.0332 43.5105 83.1394 43.4395C83.2986 43.3152 83.2102 42.3566 83.8825 42.5164C84.0594 42.5519 84.1656 42.8359 84.3248 42.8891C84.5902 42.9957 84.9618 42.9424 85.1387 43.0489C85.3333 43.1732 85.2626 43.6702 85.5633 43.7768C85.8995 43.901 86.3595 43.617 86.4126 43.6525C86.4657 43.6702 87.0672 44.4513 87.0849 44.5223L87.1026 44.5046ZM94.3037 55.6707C94.1975 55.3157 94.0029 55.1914 94.0029 55.1914C95.0291 54.9251 94.9229 55.7595 94.6398 56.5583C94.6398 56.5761 94.6045 56.6116 94.5868 56.6471C93.5606 56.6471 92.499 56.6471 91.4197 56.6471C91.4197 56.5583 91.4197 56.4873 91.4551 56.4163C91.632 56.0612 92.1628 56.1678 92.1982 55.9902C92.3398 55.4754 91.8974 54.6233 93.2598 55.0849C93.6844 55.2269 93.8967 55.5997 94.1444 55.8482C94.286 55.9902 94.4983 56.0968 94.6575 56.079C94.6575 56.079 94.4098 55.9547 94.3037 55.6529V55.6707ZM91.1189 56.6648C91.0128 56.6648 90.9243 56.6648 90.8182 56.6648C90.8182 56.3985 90.8358 56.1323 90.7297 55.7772C91.3666 55.5819 91.2074 56.1145 91.1366 56.6648H91.1189Z" fill="var(--fill-0, white)"/>
<path id="Vector_8" d="M111.767 60.7479C111.43 60.3752 110.776 60.2864 110.776 59.7183C110.847 59.2213 110.758 58.5467 110.864 58.0851C110.988 57.8543 111.607 58.3514 111.466 57.9609C111.377 57.6236 110.369 57.0022 111.041 56.8247C111.2 56.8957 111.271 57.1265 111.395 57.233C111.554 57.3928 111.926 57.4105 112.085 57.6768C112.51 59.381 111.324 59.2568 113.518 60.3041C114.438 60.2686 113.554 58.955 113.89 58.4579C114.385 57.8544 115.482 57.6591 114.951 58.742C114.686 59.2213 114.81 59.7006 114.527 60.1266C114.491 60.6592 114.898 61.387 115.553 61.103C116.225 60.9255 115.694 60.1089 116.137 60.0379C116.721 60.0201 116.668 60.9255 117.251 60.9432C117.818 61.1385 118.915 61.3515 118.862 60.4462C118.844 60.1266 118.525 59.5408 118.649 59.2923C118.932 58.7775 118.596 58.7952 118.172 58.8662C117.588 59.0615 116.385 58.5289 116.774 57.8544C117.145 57.6946 117.163 57.3573 117.375 57.0022C117.747 56.7182 118.242 56.2212 118.525 55.9726C118.738 55.8661 118.915 56.0614 119.109 56.1501C119.41 56.3277 119.941 56.2567 120.171 56.3809C120.348 56.6472 119.534 56.6294 119.392 56.7892C118.578 57.5171 120.118 57.233 120.472 57.2863C120.684 57.3395 120.843 57.4816 121.02 57.5881C122.082 58.2094 122.152 55.3513 122.595 54.8365C122.719 54.4637 122.312 54.0731 122.259 53.7003C122.223 53.0968 123.267 53.6826 123.196 53.008C123.214 52.5287 123.249 52.1204 123.302 51.7121C124.169 51.5878 125.001 51.4991 125.744 51.4813C128.54 51.4103 130.291 50.7712 131.848 50.2032C133.741 49.5108 135.245 48.9605 138.306 49.6884C140.058 50.0967 141.314 50.7357 142.535 51.3393C142.906 51.5346 143.278 51.7121 143.649 51.8896C141.19 54.1441 140.164 57.162 137.121 59.3633C133.087 60.2864 127.726 60.2686 124.983 63.0202C124.789 63.2155 124.594 63.3753 124.399 63.5705C120.312 62.9137 116.19 62.3811 112.05 61.9551C112.085 61.4048 112.439 61.1562 111.749 60.7479H111.767ZM107.22 60.3041C107.786 60.0379 107.432 61.0852 107.184 61.2805C107.131 61.3338 107.096 61.387 107.06 61.4403C106.512 61.387 106.016 61.3338 105.609 61.2805C103.079 61.0142 100.284 60.3396 99.3639 59.8248C99.93 59.4875 100.638 59.1325 101.381 58.7775L101.505 58.7242C101.505 58.7242 103.274 57.9609 105.839 56.949C105.963 57.3573 106.193 57.7833 106.53 57.9786C106.795 58.1206 107.113 57.9786 107.22 58.1739C107.22 58.4579 106.742 58.5822 106.547 58.7775C105.539 59.5941 105.769 62.2569 107.22 60.2864V60.3041ZM53.769 51.4991C49.8589 51.8186 46.0195 52.9725 42.1447 53.7181C37.6153 54.588 32.679 54.8365 28.6096 52.6707C28.4857 52.5997 28.3442 52.5287 28.2203 52.4754C28.9988 50.9488 29.8304 49.4398 30.7327 47.9664C33.2274 47.7001 35.7575 47.5048 38.2346 47.3273C42.4986 47.0255 46.9041 46.706 51.0797 45.9782C52.0705 45.8006 53.9813 46.2444 55.3968 46.5462C55.9276 46.6705 56.4053 46.777 56.7945 46.848C57.1661 46.919 57.6969 47.4338 58.1746 47.8776C58.7054 48.3747 59.2538 48.8895 59.8908 49.1913C60.4216 49.4398 60.917 49.6706 61.377 49.8659C59.8731 50.0256 57.803 50.5227 56.3345 50.931C55.8922 51.0553 54.9367 51.3571 54.1406 51.4458C54.0698 51.4458 53.9813 51.4458 53.9106 51.4458C53.8575 51.4458 53.8044 51.4458 53.769 51.4458V51.4991Z" fill="var(--fill-0, #E8DCC3)"/>
<path id="Vector_9" d="M115.199 28.6876C115.058 28.5633 114.969 28.4036 114.916 28.2616H130.22C133.494 30.6759 136.537 33.3742 139.35 36.321H118.118C117.729 35.8595 117.747 34.2618 116.827 34.9186C116.615 35.1139 116.473 35.1671 116.208 35.1316C114.421 35.5577 113.89 34.7588 114.739 33.1612C114.863 31.9718 115.04 30.7114 115.694 29.6462C115.924 29.2202 115.588 28.8474 115.234 28.6521L115.199 28.6876ZM110.475 34.4571C110.475 34.1553 110.546 33.8535 110.723 33.6227C110.9 33.3742 111.2 33.2144 111.484 33.3032C111.696 33.3742 111.855 33.5517 111.979 33.7115C112.12 33.6227 112.297 33.8357 112.244 33.9955C112.191 34.1553 111.997 34.2263 111.837 34.244C111.678 34.244 111.501 34.244 111.342 34.2795C111.183 34.3328 111.024 34.4926 111.077 34.6523C111.006 34.8121 110.617 34.7944 110.475 34.4748V34.4571ZM100.585 30.1433C100.974 29.8415 101.416 29.522 101.894 29.5575C102.071 29.5575 102.248 29.6285 102.425 29.5752C102.531 29.5397 102.637 29.451 102.743 29.4154C102.938 29.3444 103.168 29.4154 103.292 29.6107C103.504 29.9303 103.097 30.9066 102.761 30.9954C102.389 31.1019 102.212 30.4628 101.859 30.3563C101.735 30.3208 101.593 30.3563 101.452 30.3563C101.08 30.4273 100.443 30.7469 100.319 30.5516C100.319 30.3741 100.461 30.2498 100.585 30.1433ZM73.6736 28.2438C72.9305 29.0427 72.3113 29.3977 71.7274 28.2438H73.6736ZM48.815 28.2438H62.5093C61.7132 28.4213 61.8193 29.451 61.5185 30.1433C61.4478 30.2676 61.3239 29.9125 61.1293 29.9658C60.8993 30.0368 60.7931 30.2676 60.5808 30.3563C59.0061 29.9125 58.9 32.0783 59.6077 33.0369C60.4393 33.9067 60.1562 34.1553 59.3069 34.7056C59.1654 34.9009 59.2715 35.2914 59.36 35.5754C59.3954 35.824 59.3423 36.0725 59.3246 36.3033H39.6854C42.4809 33.3564 45.5418 30.6581 48.8327 28.2438H48.815Z" fill="var(--fill-0, white)"/>
<path id="Vector_10" d="M108.971 23.6282C109.13 23.4151 109.484 23.3441 109.643 23.1134C109.873 22.8116 109.59 22.4033 109.75 22.066H120.082C122.489 23.2731 124.806 24.6045 127.053 26.078H113.324C113.801 25.7584 114.261 25.4744 113.589 25.1726C111.873 25.1549 111.997 24.3205 110.829 23.9122C110.493 23.9655 110.369 24.5158 109.962 24.4803C109.59 24.4803 108.83 24.0542 108.971 23.6282ZM58.8823 22.066H69.675C69.7104 22.1902 69.9404 22.1902 70.3296 22.5453C71.1966 24.5513 71.8512 22.7583 74.4167 24.6933C74.8414 25.1371 75.0714 25.6164 75.1244 26.078H66.1895C65.9772 25.8294 65.6941 25.6874 65.2871 25.7584C65.0041 25.7762 64.7917 25.4566 64.5086 25.5454C64.3317 25.6519 64.1371 25.8472 63.9425 26.0602H51.8935C54.1229 24.6045 56.4583 23.2554 58.8646 22.0482L58.8823 22.066ZM85.6341 23.5927C85.8818 23.6814 86.2003 23.6992 86.2887 23.93C86.3772 24.1075 86.5541 24.2672 86.5895 24.4625C86.5895 24.9418 85.8464 25.3856 85.4925 25.5632C85.2448 25.7052 85.1741 26.0425 84.8733 25.9892C83.9533 25.6342 83.1571 24.072 83.8117 23.3974C84.0417 23.1666 84.3779 23.0778 84.6787 23.1311C85.0148 23.2021 85.2802 23.4861 85.6341 23.5927Z" fill="var(--fill-0, white)"/>
<path id="Vector_11" d="M173.551 113.916C169.393 112.194 165.182 110.614 160.953 109.14C160.422 108.963 159.892 108.767 159.361 108.59C158.388 108.253 157.397 107.951 156.424 107.631C155.769 107.418 155.097 107.205 154.424 106.992C133.281 100.424 111.395 97.1398 89.4912 97.1398C67.5872 97.1398 45.701 100.442 24.5579 107.01C23.8855 107.223 23.2309 107.436 22.5586 107.649C21.5855 107.969 20.5946 108.288 19.6215 108.608C19.0907 108.785 18.5599 108.98 18.0292 109.158C13.8005 110.614 9.5896 112.194 5.43175 113.933V80.2575C7.96185 79.2101 10.5273 78.216 13.0928 77.2574C14.0129 76.9201 14.9152 76.565 15.8352 76.2455C16.8968 75.8727 17.9584 75.5176 19.02 75.1448C19.7808 74.8786 20.5416 74.63 21.2847 74.3815C43.4363 67.1209 66.4549 63.4817 89.4735 63.4817C95.5952 63.4817 101.717 63.748 107.821 64.2628C108.033 65.0794 108.688 65.3989 109.75 65.5587C110.44 65.3279 109.643 64.7421 109.325 64.6001C109.307 64.5291 109.29 64.4581 109.272 64.387C109.962 64.4403 110.634 64.5113 111.324 64.5823C111.218 64.8308 111.024 65.0616 110.97 65.3279C110.97 65.825 111.643 65.8072 112.014 65.7895C112.28 65.825 112.616 65.9847 112.828 66.038C113.111 66.0557 112.952 65.6297 112.97 65.4522C112.97 65.2391 112.97 65.0261 113.005 64.7776C117.481 65.2569 121.94 65.8782 126.381 66.6238C127.16 66.7658 127.956 66.9079 128.734 67.0499C129.548 67.1919 130.362 67.3517 131.176 67.5114C132.078 67.6889 132.963 67.8665 133.865 68.0617C134.538 68.2038 135.21 68.3458 135.882 68.4878C136.873 68.7008 137.846 68.9138 138.837 69.1446C139.368 69.2689 139.881 69.3932 140.412 69.5174C141.526 69.7837 142.623 70.05 143.72 70.334C143.915 70.3873 144.109 70.4405 144.304 70.4938C148.515 71.5944 152.708 72.8016 156.866 74.1507C157.131 74.2395 157.397 74.3105 157.662 74.3993C158.423 74.6478 159.184 74.9141 159.927 75.1626C160.989 75.5176 162.05 75.8727 163.112 76.2632C164.032 76.6005 164.952 76.9378 165.854 77.2751C168.42 78.2337 170.967 79.2101 173.515 80.2752V113.951L173.551 113.916Z" fill="var(--fill-0, white)"/>
<path id="Vector_12" d="M108.387 19.9003C108.299 19.35 108.989 18.9239 108.989 18.3736C109.077 18.1783 109.148 17.9653 109.183 17.7523C111.271 18.3736 113.306 19.1014 115.305 19.9003H108.37H108.387ZM63.6948 19.9003C66.5787 18.7286 69.5512 17.7523 72.612 16.9712C72.5059 17.0777 72.4174 17.1842 72.3643 17.3085C72.4705 18.5334 71.1966 19.1369 70.4358 19.9003H63.6948ZM84.2717 16.0836C84.0417 16.2433 83.794 16.0481 83.5463 16.0303C83.0863 15.906 82.5555 16.0836 82.0778 15.9948C81.7062 15.9238 81.4585 15.622 81.1578 15.3912C81.9539 15.3025 82.7324 15.2137 83.5286 15.1427C83.9179 15.3025 84.8556 15.5155 84.254 16.1013L84.2717 16.0836Z" fill="var(--fill-0, white)"/>
<path id="Vector_13" d="M89.5088 158.243C58.1569 158.243 31.3697 138.68 20.5769 111.075C21.5324 110.756 22.5055 110.436 23.4609 110.134C27.0703 119.259 32.502 127.478 39.3138 134.313C39.3138 134.313 39.3315 134.331 39.3492 134.348C39.7385 134.739 40.1454 135.129 40.5346 135.52C40.6054 135.591 40.6762 135.644 40.747 135.715C41.5431 136.461 42.3393 137.206 43.1709 137.917C43.1886 137.917 43.2063 137.952 43.224 137.97C43.6486 138.343 44.0909 138.715 44.5333 139.07C44.5686 139.106 44.604 139.124 44.6394 139.159C45.471 139.851 46.3379 140.508 47.2049 141.165C47.2757 141.218 47.3287 141.254 47.3995 141.307C47.8418 141.644 48.3019 141.964 48.7619 142.284C48.7973 142.301 48.8327 142.337 48.868 142.355C49.7173 142.958 50.5843 143.526 51.4512 144.094C51.5928 144.183 51.7166 144.272 51.8582 144.343C52.3005 144.627 52.7428 144.893 53.1851 145.159C53.2736 145.213 53.3621 145.266 53.4505 145.319C54.2644 145.798 55.0783 146.26 55.9098 146.704C56.1399 146.828 56.3522 146.952 56.5822 147.059C56.9891 147.272 57.4138 147.503 57.8384 147.698C58.1215 147.84 58.4223 147.982 58.7053 148.124C59.3246 148.426 59.9615 148.728 60.5985 149.012C60.917 149.154 61.2354 149.296 61.5716 149.438C61.9432 149.597 62.3147 149.757 62.6863 149.917C63.2878 150.165 63.8894 150.396 64.4909 150.627C64.8271 150.751 65.1456 150.876 65.4818 151C65.9064 151.16 66.3487 151.302 66.7733 151.461C67.0918 151.568 67.3926 151.674 67.7111 151.781C68.3834 151.994 69.0557 152.207 69.7281 152.402C70.0112 152.491 70.2942 152.562 70.5773 152.651C71.1081 152.793 71.6566 152.953 72.2051 153.077C72.4351 153.13 72.6828 153.201 72.9128 153.254C73.6382 153.432 74.3813 153.592 75.1244 153.751C75.3721 153.805 75.6198 153.858 75.8675 153.893C76.5222 154.018 77.1591 154.142 77.8138 154.248C77.973 154.284 78.1322 154.302 78.2915 154.337C79.0877 154.462 79.8662 154.568 80.6623 154.675C80.8747 154.71 81.1047 154.728 81.317 154.746C82.0601 154.834 82.8209 154.905 83.5817 154.976C83.6702 154.976 83.7409 154.976 83.8294 154.994C84.661 155.065 85.4925 155.101 86.3241 155.154C86.5364 155.154 86.731 155.154 86.9434 155.172C87.7926 155.207 88.6419 155.225 89.5088 155.225C90.3758 155.225 91.2251 155.207 92.0743 155.172C92.2866 155.172 92.4813 155.172 92.6936 155.154C93.5251 155.118 94.3744 155.065 95.1883 154.994C95.2768 154.994 95.3475 154.994 95.436 154.976C96.1968 154.905 96.9399 154.834 97.7007 154.746C97.913 154.728 98.143 154.692 98.3553 154.675C99.1515 154.568 99.9477 154.462 100.726 154.337C100.885 154.32 101.045 154.284 101.204 154.248C101.859 154.142 102.513 154.018 103.15 153.893C103.398 153.84 103.646 153.805 103.893 153.751C104.636 153.592 105.379 153.432 106.105 153.254C106.353 153.201 106.583 153.13 106.813 153.077C107.361 152.935 107.892 152.793 108.44 152.651C108.723 152.58 109.007 152.491 109.29 152.402C109.962 152.207 110.634 151.994 111.307 151.781C111.625 151.674 111.926 151.568 112.244 151.461C112.669 151.319 113.111 151.16 113.536 151C113.872 150.876 114.208 150.769 114.527 150.627C115.128 150.396 115.748 150.148 116.331 149.917C116.703 149.757 117.075 149.597 117.446 149.438C117.765 149.296 118.101 149.154 118.419 149.012C119.056 148.728 119.693 148.426 120.33 148.124C120.613 147.982 120.896 147.84 121.179 147.698C121.604 147.485 122.011 147.272 122.435 147.059C122.665 146.935 122.878 146.828 123.108 146.704C123.939 146.26 124.753 145.798 125.567 145.319C125.656 145.266 125.744 145.213 125.833 145.159C126.275 144.893 126.717 144.609 127.16 144.343C127.301 144.254 127.425 144.165 127.566 144.094C128.451 143.526 129.3 142.958 130.15 142.355C130.185 142.337 130.22 142.301 130.256 142.284C130.716 141.964 131.158 141.627 131.618 141.307C131.689 141.254 131.742 141.218 131.813 141.165C132.68 140.508 133.529 139.851 134.378 139.159C134.414 139.124 134.449 139.106 134.484 139.07C134.927 138.715 135.369 138.343 135.794 137.97C135.811 137.97 135.829 137.934 135.847 137.917C136.678 137.206 137.475 136.461 138.271 135.715C138.341 135.644 138.412 135.591 138.483 135.52C138.89 135.129 139.279 134.739 139.668 134.348C139.668 134.348 139.686 134.331 139.704 134.313C146.516 127.478 151.947 119.277 155.557 110.134C156.512 110.436 157.485 110.756 158.441 111.075C147.648 138.68 120.861 158.243 89.5088 158.243ZM106.565 11.6631C135.864 18.5865 158.423 42.978 162.776 73.2809C161.696 72.9081 160.617 72.5175 159.538 72.1625C159.432 71.5767 159.325 70.9909 159.202 70.3873C159.166 70.192 159.131 69.979 159.078 69.7837C158.901 68.8784 158.688 67.9908 158.476 67.1031C158.423 66.8901 158.37 66.6771 158.317 66.4641C158.105 65.5942 157.857 64.7244 157.609 63.8722C157.538 63.6415 157.485 63.4284 157.415 63.1977C157.167 62.3633 156.884 61.529 156.601 60.7124C156.512 60.4816 156.441 60.2508 156.353 60.02C156.07 59.2034 155.751 58.4046 155.433 57.6235C155.344 57.3927 155.256 57.1619 155.15 56.9134C154.831 56.1146 154.477 55.3335 154.124 54.5524C154.017 54.3216 153.929 54.1086 153.823 53.8778C153.451 53.0789 153.062 52.2801 152.655 51.499C152.567 51.3215 152.478 51.1262 152.372 50.9487C151.93 50.0966 151.452 49.2445 150.974 48.4101C150.921 48.3214 150.886 48.2326 150.833 48.1438C141.756 32.5042 126.912 20.6457 109.254 15.4799C109.254 15.4799 109.254 15.4621 109.254 15.4444C108.865 14.8585 108.635 14.1484 108.193 13.6159C107.538 13.1188 106.335 12.7638 106.494 11.7519C106.494 11.7164 106.512 11.6809 106.529 11.6276L106.565 11.6631ZM92.8882 12.0714C93.0474 11.8229 93.1182 11.6099 93.189 11.3614C93.2244 11.2371 93.2244 11.0418 93.3659 10.9886C93.4544 10.9531 93.5782 11.0418 93.6844 11.0951C93.9321 11.1838 93.6667 10.6513 93.6844 10.527C93.6844 10.172 94.1267 10.172 94.2152 10.456C94.2859 10.9176 94.2152 11.4679 94.2329 11.9472C94.2329 12.2135 94.2329 12.391 94.1444 12.4975C93.9144 12.675 93.3836 12.5508 93.1359 12.6928C93.012 12.7283 92.9059 12.8348 92.7997 12.7283C92.6759 12.4975 92.782 12.2845 92.9236 12.0892L92.8882 12.0714ZM82.467 9.99444C82.2724 10.4027 81.9716 10.8998 82.5378 11.0063C84.7848 10.7755 82.9978 11.2371 84.024 11.9472C84.2186 12.3555 83.7232 12.675 83.4578 12.9591C81.1577 13.1543 78.8753 13.4561 76.646 13.8644C76.3806 13.6869 76.1152 13.5626 75.8498 13.5094C74.6467 13.4739 74.2929 13.8467 74.1336 14.3792C46.1079 20.6102 24.2571 43.5105 19.48 72.1448C18.4007 72.4998 17.3214 72.8903 16.2422 73.2631C21.0724 39.6051 48.408 13.2253 82.467 9.99444Z" fill="var(--fill-0, #ADD2A3)"/>
<g id="Group_4">
<path id="Vector_14" d="M100.302 139.674C100.302 138.804 99.6292 138.094 98.55 138.094C97.4707 138.094 96.7984 138.804 96.7984 139.674C96.7984 140.544 97.4884 141.254 98.55 141.254C99.6116 141.254 100.302 140.544 100.302 139.674Z" fill="var(--fill-0, #006535)"/>
<path id="Vector_15" d="M174.577 77.7899C171.604 76.5472 168.597 75.3933 165.571 74.2927C161.484 41.7708 137.103 15.5331 105.592 8.75176C105.344 7.58011 104.141 7.20732 103.079 6.99429C102.92 6.95879 102.761 6.99429 102.584 6.97654C101.717 7.10081 101.133 6.74576 100.549 6.01792C100.036 5.57412 100.195 5.11256 100.319 4.56225C100.319 4.49124 100.355 4.34922 100.337 4.26046C99.9831 2.00594 99.0277 3.05331 97.8069 3.74565C97.4176 3.69239 96.816 3.08882 96.763 3.90542C96.8337 4.1717 97.2407 4.06519 96.7453 4.5445C96.0906 4.91729 95.6306 3.81666 94.9229 3.95867C94.3213 3.97643 94.2506 4.50899 93.8967 4.91729C93.4367 5.32559 92.7997 4.91729 92.269 4.91729C91.8266 4.88179 91.3843 5.00605 91.1543 4.84628C90.8181 4.58 90.8358 4.01193 90.4112 3.81666C89.9335 3.63914 89.0665 3.55038 88.5534 3.85216C88.1465 4.04744 87.828 4.84628 87.3149 4.86403C87.2972 4.86403 87.2795 4.86403 87.2441 4.86403C86.9964 4.86403 86.3595 4.79303 86.0764 5.05931C85.7933 5.32559 85.1564 5.69839 85.351 6.03568C85.5456 6.37297 85.6872 6.72801 85.7048 6.87003C85.7048 6.95879 85.7048 7.04755 85.7048 7.13631C48.3903 8.96478 18.0469 37.6523 13.429 74.275C10.4212 75.3756 7.41336 76.5472 4.42325 77.7721C3.43244 78.1804 2.79549 79.1568 2.79549 80.2219V113.898C2.79549 114.785 3.23782 115.62 3.98092 116.099C4.42325 116.401 4.93635 116.543 5.44944 116.543C5.78561 116.543 6.13947 116.472 6.45794 116.348C10.2973 114.75 14.1721 113.276 18.0645 111.91C29.2465 140.544 57.0422 160.87 89.4912 160.87C121.94 160.87 149.736 140.544 160.918 111.91C164.81 113.276 168.685 114.75 172.524 116.348C172.843 116.49 173.197 116.543 173.533 116.543C174.046 116.543 174.559 116.383 175.001 116.099C175.744 115.602 176.187 114.785 176.187 113.898V80.2219C176.187 79.139 175.55 78.1804 174.559 77.7721L174.577 77.7899ZM106.565 11.6631C135.864 18.5864 158.423 42.9779 162.776 73.2808C161.696 72.908 160.617 72.5175 159.538 72.1625C159.432 71.5766 159.325 70.9908 159.202 70.3872C159.166 70.192 159.131 69.9789 159.078 69.7837C158.901 68.8783 158.688 67.9907 158.476 67.1031C158.423 66.8901 158.37 66.677 158.317 66.464C158.105 65.5942 157.857 64.7243 157.609 63.8722C157.538 63.6414 157.485 63.4284 157.415 63.1976C157.167 62.3633 156.884 61.5289 156.601 60.7123C156.512 60.4815 156.441 60.2508 156.353 60.02C156.07 59.2034 155.751 58.4045 155.433 57.6234C155.344 57.3927 155.256 57.1619 155.15 56.9133C154.831 56.1145 154.478 55.3334 154.124 54.5523C154.017 54.3215 153.929 54.1085 153.823 53.8777C153.451 53.0789 153.062 52.28 152.655 51.4989C152.567 51.3214 152.478 51.1261 152.372 50.9486C151.93 50.0965 151.452 49.2444 150.974 48.4101C150.921 48.3213 150.886 48.2325 150.833 48.1438C141.756 32.5041 126.912 20.6457 109.254 15.4798C109.254 15.4798 109.254 15.4621 109.254 15.4443C108.865 14.8585 108.635 14.1484 108.193 13.6158C107.538 13.1188 106.335 12.7637 106.494 11.7519C106.494 11.7164 106.512 11.6809 106.529 11.6276L106.565 11.6631ZM111.767 60.7478C111.43 60.375 110.776 60.2863 110.776 59.7182C110.847 59.2211 110.758 58.5465 110.864 58.085C110.988 57.8542 111.607 58.3513 111.466 57.9607C111.377 57.6234 110.369 57.0021 111.041 56.8246C111.2 56.8956 111.271 57.1264 111.395 57.2329C111.554 57.3927 111.926 57.4104 112.085 57.6767C112.51 59.3809 111.324 59.2566 113.518 60.304C114.438 60.2685 113.554 58.9548 113.89 58.4578C114.385 57.8542 115.482 57.6589 114.951 58.7418C114.686 59.2211 114.81 59.7004 114.527 60.1265C114.491 60.6591 114.898 61.3869 115.553 61.1029C116.225 60.9253 115.694 60.1087 116.137 60.0377C116.721 60.02 116.668 60.9253 117.251 60.9431C117.818 61.1384 118.915 61.3514 118.862 60.446C118.844 60.1265 118.525 59.5407 118.649 59.2921C118.932 58.7773 118.596 58.7951 118.171 58.8661C117.588 59.0614 116.384 58.5288 116.774 57.8542C117.145 57.6944 117.163 57.3572 117.375 57.0021C117.747 56.7181 118.242 56.221 118.525 55.9725C118.738 55.866 118.915 56.0612 119.109 56.15C119.41 56.3275 119.941 56.2565 120.171 56.3808C120.348 56.6471 119.534 56.6293 119.392 56.7891C118.578 57.5169 120.118 57.2329 120.472 57.2861C120.684 57.3394 120.843 57.4814 121.02 57.5879C122.082 58.2093 122.152 55.3512 122.595 54.8363C122.719 54.4636 122.312 54.073 122.259 53.7002C122.223 53.0966 123.267 53.6825 123.196 53.0079C123.214 52.5286 123.249 52.1203 123.302 51.712C124.169 51.5877 125.001 51.4989 125.744 51.4812C128.54 51.4102 130.291 50.7711 131.848 50.203C133.741 49.5107 135.245 48.9604 138.306 49.6882C140.058 50.0965 141.314 50.7356 142.535 51.3392C142.906 51.5344 143.278 51.712 143.649 51.8895C141.19 54.144 140.164 57.1619 137.121 59.3631C133.087 60.2863 127.726 60.2685 124.983 63.0201C124.789 63.2154 124.594 63.3751 124.399 63.5704C120.312 62.9136 116.19 62.381 112.05 61.955C112.085 61.4046 112.439 61.1561 111.749 60.7478H111.767ZM108.971 23.6281C109.13 23.415 109.484 23.344 109.643 23.1132C109.873 22.8115 109.59 22.4032 109.75 22.0659H120.082C122.489 23.273 124.806 24.6044 127.053 26.0779H113.324C113.801 25.7583 114.261 25.4743 113.589 25.1725C111.873 25.1547 111.997 24.3204 110.829 23.9121C110.493 23.9654 110.369 24.5157 109.962 24.4802C109.59 24.4802 108.83 24.0541 108.971 23.6281ZM108.387 19.9001C108.299 19.3498 108.989 18.9237 108.989 18.3734C109.077 18.1781 109.148 17.9651 109.183 17.7521C111.271 18.3734 113.306 19.1013 115.305 19.9001H108.37H108.387ZM115.199 28.6874C115.058 28.5632 114.969 28.4034 114.916 28.2614H130.22C133.494 30.6757 136.537 33.374 139.35 36.3209H118.118C117.729 35.8593 117.747 34.2616 116.827 34.9184C116.615 35.1137 116.473 35.167 116.208 35.1315C114.421 35.5575 113.89 34.7587 114.739 33.161C114.863 31.9716 115.04 30.7112 115.694 29.646C115.924 29.22 115.588 28.8472 115.234 28.6519L115.199 28.6874ZM109.661 50.6823C109.838 50.7001 110.033 50.5758 110.21 50.5403C110.369 50.5226 110.422 50.6823 110.44 50.8066C110.581 51.3747 110.333 51.8007 109.785 51.854H109.767C109.767 51.854 109.679 51.7475 109.661 51.5877C109.626 51.3392 109.59 51.0551 109.555 50.8066C109.555 50.7178 109.573 50.6823 109.661 50.6823ZM110.475 34.4569C110.475 34.1551 110.546 33.8533 110.723 33.6225C110.9 33.374 111.2 33.2142 111.484 33.303C111.696 33.374 111.855 33.5515 111.979 33.7113C112.12 33.6225 112.297 33.8355 112.244 33.9953C112.191 34.1551 111.997 34.2261 111.837 34.2438C111.678 34.2438 111.501 34.2438 111.342 34.2794C111.183 34.3326 111.024 34.4924 111.077 34.6521C111.006 34.8119 110.617 34.7942 110.475 34.4746V34.4569ZM143.49 49.4042C142.234 48.7651 140.801 48.055 138.802 47.5757C135.104 46.7059 133.157 47.3982 131.105 48.1615C129.637 48.6941 128.133 49.2444 125.691 49.2977C124.93 49.3154 124.116 49.3864 123.249 49.5107C123.285 49.4219 123.338 49.3332 123.426 49.2267C123.002 48.7829 122.825 48.6586 123.32 48.1438C124.47 46.9011 123.232 45.1969 122.789 43.901C122.612 43.3862 122.029 43.1909 121.763 42.7649C121.604 41.8595 121.232 41.2204 120.312 40.8121C119.021 40.2263 120.259 40.1376 119.658 39.4807C119.392 39.1257 118.932 39.2855 118.632 39.0547C118.543 38.8594 118.755 38.6464 118.879 38.4866H141.314C144.145 41.7353 146.693 45.2502 148.887 48.9781C147.754 49.4574 146.675 49.9545 145.808 50.4161C145.012 50.1498 144.286 49.7947 143.508 49.4042H143.49ZM107.22 60.304C107.786 60.0377 107.432 61.0851 107.184 61.2804C107.131 61.3336 107.096 61.3869 107.06 61.4402C106.512 61.3869 106.016 61.3336 105.609 61.2804C103.079 61.0141 100.284 60.3395 99.3638 59.8247C99.93 59.4874 100.638 59.1324 101.381 58.7773L101.505 58.7241C101.505 58.7241 103.274 57.9607 105.839 56.9489C105.963 57.3572 106.193 57.7832 106.529 57.9785C106.795 58.1205 107.113 57.9785 107.22 58.1738C107.22 58.4578 106.742 58.5821 106.547 58.7773C105.539 59.5939 105.769 62.2568 107.22 60.2863V60.304ZM100.585 30.1431C100.974 29.8413 101.416 29.5218 101.894 29.5573C102.071 29.5573 102.248 29.6283 102.425 29.575C102.531 29.5395 102.637 29.4508 102.743 29.4153C102.938 29.3443 103.168 29.4153 103.292 29.6105C103.504 29.9301 103.097 30.9064 102.761 30.9952C102.389 31.1017 102.212 30.4626 101.859 30.3561C101.735 30.3206 101.593 30.3561 101.452 30.3561C101.08 30.4271 100.443 30.7467 100.319 30.5514C100.319 30.3739 100.461 30.2496 100.585 30.1431ZM95.7899 39.2855C95.9137 39.1612 96.0729 39.0902 96.2145 39.0192C96.533 38.8772 96.8691 38.7351 97.1876 38.5931H97.2584C97.3468 38.4866 97.5238 38.4689 97.6299 38.5576C97.7361 38.6464 97.7715 38.8062 97.7007 38.9304C97.6653 38.9837 97.6299 39.0192 97.6122 39.0902C97.5238 39.321 97.8422 39.6405 97.6476 39.7648C97.5592 39.818 97.4707 39.7648 97.3645 39.7648C97.2053 39.7648 97.0638 39.8713 96.9045 39.9423C96.763 40.0133 96.5683 40.0666 96.4445 39.96C96.3737 39.9068 96.3383 39.818 96.2853 39.747C96.126 39.605 95.8783 39.676 95.6837 39.7648C95.6129 39.605 95.666 39.4275 95.7722 39.2855H95.7899ZM92.8882 12.0714C93.0474 11.8229 93.1182 11.6099 93.189 11.3613C93.2244 11.2371 93.2244 11.0418 93.3659 10.9885C93.4544 10.953 93.5782 11.0418 93.6844 11.095C93.9321 11.1838 93.6667 10.6512 93.6844 10.527C93.6844 10.1719 94.1267 10.1719 94.2152 10.456C94.2859 10.9175 94.2152 11.4678 94.2329 11.9471C94.2329 12.2134 94.2329 12.3909 94.1444 12.4975C93.9144 12.675 93.3836 12.5507 93.1359 12.6927C93.0121 12.7282 92.9059 12.8348 92.7997 12.7282C92.6759 12.4975 92.782 12.2844 92.9236 12.0892L92.8882 12.0714ZM91.0481 46.7946C91.0835 45.765 91.1366 44.1495 91.3843 43.1909C91.5258 42.6584 92.4459 40.6346 93.1713 41.1317C93.5075 41.3625 93.4367 44.0075 93.7021 44.3803C94.8698 44.7176 94.8344 45.7117 94.7814 46.7059C94.8698 47.1319 95.0998 47.3982 95.5245 47.0609C95.7545 47.0609 95.8783 47.6467 96.0376 47.6645C96.816 47.1674 96.7984 46.0313 97.0284 45.1969C97.2584 44.9839 97.9661 44.8596 98.0899 45.3389C98.2846 45.8715 97.6122 46.4218 97.8599 46.8834C98.1076 47.1674 98.373 47.3982 98.4792 47.7887C98.7446 48.4988 99.5938 48.0728 100.054 48.4278C101.522 49.99 101.505 47.5935 102.69 47.5757C102.885 47.5935 103.15 47.8065 103.274 47.7887C103.469 47.8242 103.858 47.4159 103.964 47.7355C103.964 47.9485 103.61 48.3213 103.805 48.5876C104.123 48.9426 103.876 49.2622 103.769 49.6527C103.699 50.2563 104.672 51.0374 104.088 51.5877C103.876 51.8185 103.61 51.996 103.646 52.351C103.646 52.5818 103.787 52.7948 104.017 52.6173C104.265 52.4576 104.265 51.7652 104.672 51.9605C105.397 52.5641 105.556 51.2682 106.211 51.2859C106.76 51.3747 106.317 52.0138 106.423 52.3155C107.237 52.9369 107.007 53.4339 106.423 54.1618C106.37 54.2505 106.299 54.3393 106.246 54.4458C103.522 55.4932 101.487 56.3453 100.832 56.6293C99.5408 56.6293 97.5592 56.6293 95.2945 56.6293C95.2945 56.1855 95.1352 55.5642 95.2945 55.2624C95.5598 55.4222 95.7722 55.4754 95.9491 55.5819C96.2145 55.7595 96.3914 56.008 96.2676 56.5761C97.0991 56.292 96.1968 55.1736 96.1968 55.0494C96.1968 55.0494 96.3737 55.0494 96.5153 55.1559C96.6568 55.2624 96.7807 55.3867 96.7807 55.3867C96.7807 55.3867 96.7807 54.9961 96.2499 54.7476C95.8075 54.5523 95.1352 53.6292 95.1352 53.6292C95.5952 53.5404 96.9753 54.1618 97.0814 54.5701C97.1522 54.8541 96.993 54.9429 97.0814 55.2269C97.0814 55.2802 97.2938 55.5997 97.683 55.4754C97.7184 55.4754 97.4176 55.3867 97.3468 54.9606C97.2761 54.5878 97.4353 54.2328 96.9753 53.9842C96.0199 53.3274 95.0467 53.1676 94.0913 52.7593C93.189 52.3688 92.3043 51.925 91.4905 51.3214C91.2251 51.1261 91.0835 50.8244 91.0481 50.5048C90.9597 49.2799 90.9597 48.0195 91.0127 46.7946H91.0481ZM94.3036 55.6707C94.1975 55.3157 94.0029 55.1914 94.0029 55.1914C95.0291 54.9251 94.9229 55.7595 94.6398 56.5583C94.6398 56.5761 94.6044 56.6116 94.5867 56.6471C93.5605 56.6471 92.499 56.6471 91.4197 56.6471C91.4197 56.5583 91.4197 56.4873 91.4551 56.4163C91.632 56.0612 92.1628 56.1678 92.1982 55.9902C92.3397 55.4754 91.8974 54.6233 93.2598 55.0849C93.6844 55.2269 93.8967 55.5997 94.1444 55.8482C94.2859 55.9902 94.4983 56.0967 94.6575 56.079C94.6575 56.079 94.4098 55.9547 94.3036 55.6529V55.6707ZM91.1189 56.6648C91.0127 56.6648 90.9243 56.6648 90.8181 56.6648C90.8181 56.3985 90.8358 56.1323 90.7297 55.7772C91.3666 55.5819 91.2074 56.1145 91.1366 56.6648H91.1189ZM89.4912 60.0555C89.5973 59.6649 89.4027 59.2389 89.6327 58.8306C92.2866 58.0317 96.5507 57.801 98.4792 58.3158C97.5592 58.9903 97.6122 59.7892 97.6653 60.0555C97.7361 60.4105 98.0369 60.7123 98.4438 60.9964C95.4714 60.8721 92.4813 60.7656 89.4912 60.8011H89.2965C89.3496 60.588 89.4027 60.3395 89.4735 60.0555H89.4912ZM87.1026 44.5046C87.5449 46.7236 87.4211 50.061 85.3864 51.4989C84.3602 52.2268 84.3071 51.4634 83.5817 51.4989C83.2101 51.4989 82.9624 51.854 82.7855 51.8362C82.467 51.783 80.8216 50.0788 80.3969 49.9545C79.5477 49.6882 78.8754 50.0965 78.203 50.0255C77.8492 49.99 77.2476 49.1202 76.3629 49.1024C76.1152 49.1024 75.8322 49.2444 75.5491 49.2444C72.2759 49.2089 69.215 49.3154 66.101 49.5285C64.5263 48.9071 63.0401 48.3391 60.8108 47.2739C60.4746 47.1142 60.0677 46.7236 59.6608 46.3331C58.9707 45.6762 58.1746 44.9129 57.1837 44.7354C56.8122 44.6644 56.3522 44.5578 55.8568 44.4513C54.1936 44.0785 52.1059 43.617 50.7081 43.8478C46.6387 44.5578 42.2863 44.8596 38.0753 45.1614C36.1291 45.3034 34.1652 45.4455 32.2012 45.623C33.8644 43.1199 35.7045 40.7411 37.6684 38.4866H59.59C59.6431 38.7706 59.7846 39.0902 60.2446 39.605C60.5631 40.5636 60.4923 41.3092 61.4478 41.9128C62.3501 43.0667 62.6332 44.5756 63.9779 45.3744C64.3317 46.0313 64.1371 47.0076 64.9687 47.3804C66.8087 48.197 67.0918 45.3034 68.2949 46.4218C69.4273 46.6881 68.5603 45.1969 69.1619 45.0017C69.5158 45.0017 69.6927 45.3922 70.0466 45.2147C70.5773 44.8774 70.9135 45.5875 71.3912 45.7117C72.3466 45.6762 73.5675 45.3034 74.576 45.2679C75.2129 45.2679 75.8322 45.765 76.6106 45.4455C76.0268 44.4158 78.0438 43.2974 78.3092 44.4513C78.3623 44.6821 78.2384 44.9129 78.2915 45.1437C78.5038 46.12 79.8308 46.5993 80.7685 46.3863C80.9808 46.3331 81.9716 45.6407 82.007 45.4987C82.0955 45.1969 81.6885 44.6644 81.9009 44.1673C81.9009 44.1318 82.467 43.5637 82.5201 43.546C82.7147 43.4395 83.0332 43.5105 83.1394 43.4395C83.2986 43.3152 83.2101 42.3566 83.8825 42.5164C84.0594 42.5519 84.1656 42.8359 84.3248 42.8891C84.5902 42.9957 84.9617 42.9424 85.1387 43.0489C85.3333 43.1732 85.2625 43.6702 85.5633 43.7768C85.8995 43.901 86.3595 43.617 86.4126 43.6525C86.4656 43.6702 87.0672 44.4513 87.0849 44.5223L87.1026 44.5046ZM53.769 51.4989C49.8589 51.8185 46.0195 52.9724 42.1447 53.718C37.6153 54.5878 32.679 54.8363 28.6096 52.6706C28.4857 52.5996 28.3442 52.5286 28.2203 52.4753C28.9988 50.9486 29.8304 49.4397 30.7327 47.9663C33.2274 47.7 35.7575 47.5047 38.2346 47.3272C42.4986 47.0254 46.9041 46.7059 51.0797 45.978C52.0705 45.8005 53.9813 46.2443 55.3968 46.5461C55.9275 46.6704 56.4053 46.7769 56.7945 46.8479C57.1661 46.9189 57.6968 47.4337 58.1746 47.8775C58.7053 48.3746 59.2538 48.8894 59.8908 49.1912C60.4216 49.4397 60.917 49.6705 61.377 49.8657C59.8731 50.0255 57.803 50.5226 56.3345 50.9309C55.8922 51.0551 54.9367 51.3569 54.1406 51.4457C54.0698 51.4457 53.9813 51.4457 53.9105 51.4457C53.8575 51.4457 53.8044 51.4457 53.769 51.4457V51.4989ZM58.8823 22.0659H69.675C69.7104 22.1901 69.9404 22.1901 70.3296 22.5452C71.1966 24.5512 71.8512 22.7582 74.4167 24.6932C74.8414 25.137 75.0714 25.6163 75.1244 26.0779H66.1895C65.9772 25.8293 65.6941 25.6873 65.2871 25.7583C65.0041 25.7761 64.7917 25.4565 64.5086 25.5453C64.3317 25.6518 64.1371 25.8471 63.9425 26.0601H51.8935C54.1229 24.6044 56.4583 23.2553 58.8646 22.0481L58.8823 22.0659ZM63.6948 19.9001C66.5787 18.7285 69.5511 17.7521 72.612 16.971C72.5059 17.0775 72.4174 17.184 72.3643 17.3083C72.4705 18.5332 71.1966 19.1368 70.4358 19.9001H63.6948ZM73.6736 28.2436C72.9305 29.0425 72.3113 29.3975 71.7274 28.2436H73.6736ZM48.815 28.2436H62.5093C61.7132 28.4211 61.8193 29.4508 61.5185 30.1431C61.4478 30.2674 61.3239 29.9123 61.1293 29.9656C60.8993 30.0366 60.7931 30.2674 60.5808 30.3561C59.0061 29.9123 58.9 32.0781 59.6077 33.0367C60.4393 33.9066 60.1562 34.1551 59.3069 34.7054C59.1654 34.9007 59.2715 35.2912 59.36 35.5753C59.3954 35.8238 59.3423 36.0723 59.3246 36.3031H39.6854C42.4809 33.3562 45.5418 30.6579 48.8327 28.2436H48.815ZM85.6341 23.5926C85.8818 23.6813 86.2003 23.6991 86.2887 23.9298C86.3772 24.1074 86.5541 24.2671 86.5895 24.4624C86.5895 24.9417 85.8464 25.3855 85.4925 25.563C85.2448 25.7051 85.1741 26.0424 84.8733 25.9891C83.9532 25.6341 83.1571 24.0719 83.8117 23.3973C84.0417 23.1665 84.3779 23.0777 84.6787 23.131C85.0148 23.202 85.2802 23.486 85.6341 23.5926ZM84.2717 16.0834C84.0417 16.2432 83.794 16.0479 83.5463 16.0301C83.0863 15.9059 82.5555 16.0834 82.0778 15.9946C81.7062 15.9236 81.4585 15.6218 81.1577 15.3911C81.9539 15.3023 82.7324 15.2135 83.5286 15.1425C83.9179 15.3023 84.8556 15.5153 84.254 16.1011L84.2717 16.0834ZM82.467 9.99441C82.2724 10.4027 81.9716 10.8998 82.5378 11.0063C84.7848 10.7755 82.9978 11.2371 84.024 11.9471C84.2186 12.3554 83.7232 12.675 83.4578 12.959C81.1577 13.1543 78.8754 13.4561 76.646 13.8644C76.3806 13.6869 76.1152 13.5626 75.8499 13.5093C74.6467 13.4738 74.2929 13.8466 74.1336 14.3792C46.1079 20.6102 24.2571 43.5105 19.48 72.1447C18.4007 72.4997 17.3214 72.8903 16.2422 73.2631C21.0724 39.605 48.408 13.2253 82.467 9.99441ZM89.5088 158.243C58.1569 158.243 31.3697 138.68 20.577 111.075C21.5324 110.756 22.5055 110.436 23.4609 110.134C27.0703 119.259 32.502 127.478 39.3138 134.313C39.3138 134.313 39.3315 134.33 39.3492 134.348C39.7385 134.739 40.1454 135.129 40.5346 135.52C40.6054 135.591 40.6762 135.644 40.747 135.715C41.5431 136.461 42.3393 137.206 43.1709 137.916C43.1886 137.916 43.2063 137.952 43.224 137.97C43.6486 138.342 44.0909 138.715 44.5333 139.07C44.5686 139.106 44.604 139.124 44.6394 139.159C45.471 139.851 46.3379 140.508 47.2049 141.165C47.2757 141.218 47.3288 141.254 47.3995 141.307C47.8419 141.644 48.3019 141.964 48.7619 142.283C48.7973 142.301 48.8327 142.337 48.868 142.354C49.7173 142.958 50.5843 143.526 51.4512 144.094C51.5928 144.183 51.7166 144.272 51.8582 144.343C52.3005 144.627 52.7428 144.893 53.1851 145.159C53.2736 145.213 53.3621 145.266 53.4505 145.319C54.2644 145.798 55.0783 146.26 55.9099 146.704C56.1399 146.828 56.3522 146.952 56.5822 147.059C56.9891 147.272 57.4138 147.503 57.8384 147.698C58.1215 147.84 58.4223 147.982 58.7053 148.124C59.3246 148.426 59.9615 148.727 60.5985 149.012C60.917 149.154 61.2354 149.296 61.5716 149.438C61.9432 149.597 62.3147 149.757 62.6863 149.917C63.2878 150.165 63.8894 150.396 64.491 150.627C64.8271 150.751 65.1456 150.875 65.4818 151C65.9064 151.16 66.3487 151.302 66.7734 151.461C67.0918 151.568 67.3926 151.674 67.7111 151.781C68.3834 151.994 69.0557 152.207 69.7281 152.402C70.0112 152.491 70.2943 152.562 70.5773 152.651C71.1081 152.793 71.6566 152.952 72.2051 153.077C72.4351 153.13 72.6828 153.201 72.9128 153.254C73.6382 153.432 74.3813 153.592 75.1244 153.751C75.3721 153.805 75.6198 153.858 75.8675 153.893C76.5222 154.018 77.1591 154.142 77.8138 154.248C77.973 154.284 78.1322 154.302 78.2915 154.337C79.0877 154.461 79.8662 154.568 80.6623 154.674C80.8747 154.71 81.1047 154.728 81.317 154.745C82.0601 154.834 82.8209 154.905 83.5817 154.976C83.6702 154.976 83.7409 154.976 83.8294 154.994C84.661 155.065 85.4925 155.101 86.3241 155.154C86.5364 155.154 86.731 155.154 86.9434 155.172C87.7926 155.207 88.6419 155.225 89.5088 155.225C90.3758 155.225 91.2251 155.207 92.0743 155.172C92.2866 155.172 92.4813 155.172 92.6936 155.154C93.5251 155.118 94.3744 155.065 95.1883 154.994C95.2768 154.994 95.3475 154.994 95.436 154.976C96.1968 154.905 96.9399 154.834 97.7007 154.745C97.913 154.728 98.143 154.692 98.3553 154.674C99.1515 154.568 99.9477 154.461 100.726 154.337C100.885 154.319 101.045 154.284 101.204 154.248C101.859 154.142 102.513 154.018 103.15 153.893C103.398 153.84 103.646 153.805 103.893 153.751C104.636 153.592 105.379 153.432 106.105 153.254C106.353 153.201 106.583 153.13 106.813 153.077C107.361 152.935 107.892 152.793 108.44 152.651C108.723 152.58 109.007 152.491 109.29 152.402C109.962 152.207 110.634 151.994 111.307 151.781C111.625 151.674 111.926 151.568 112.244 151.461C112.669 151.319 113.111 151.16 113.536 151C113.872 150.875 114.208 150.769 114.527 150.627C115.128 150.396 115.748 150.148 116.331 149.917C116.703 149.757 117.075 149.597 117.446 149.438C117.765 149.296 118.101 149.154 118.419 149.012C119.056 148.727 119.693 148.426 120.33 148.124C120.613 147.982 120.896 147.84 121.179 147.698C121.604 147.485 122.011 147.272 122.435 147.059C122.666 146.935 122.878 146.828 123.108 146.704C123.939 146.26 124.753 145.798 125.567 145.319C125.656 145.266 125.744 145.213 125.833 145.159C126.275 144.893 126.717 144.609 127.16 144.343C127.301 144.254 127.425 144.165 127.566 144.094C128.451 143.526 129.3 142.958 130.15 142.354C130.185 142.337 130.22 142.301 130.256 142.283C130.716 141.964 131.158 141.627 131.618 141.307C131.689 141.254 131.742 141.218 131.813 141.165C132.68 140.508 133.529 139.851 134.378 139.159C134.414 139.124 134.449 139.106 134.484 139.07C134.927 138.715 135.369 138.342 135.794 137.97C135.811 137.97 135.829 137.934 135.847 137.916C136.678 137.206 137.475 136.461 138.271 135.715C138.342 135.644 138.412 135.591 138.483 135.52C138.89 135.129 139.279 134.739 139.668 134.348C139.668 134.348 139.686 134.33 139.704 134.313C146.516 127.478 151.947 119.277 155.557 110.134C156.512 110.436 157.485 110.756 158.441 111.075C147.648 138.68 120.861 158.243 89.5088 158.243ZM110.847 139.922H110.44V138.928C110.776 138.946 110.864 138.946 110.953 138.946C111.66 138.946 111.784 138.769 111.784 138.573C111.784 138.378 111.554 138.094 110.864 138.094C110.298 138.094 109.75 138.289 109.007 138.84L108.405 138.023C109.237 137.402 110.033 137.135 110.882 137.135C112.014 137.135 112.811 137.686 112.811 138.609C112.811 138.911 112.722 139.177 112.545 139.372C112.934 139.638 113.147 140.011 113.147 140.508C113.147 141.485 112.12 142.248 110.67 142.248C109.59 142.248 108.741 141.911 107.839 141.023L108.476 140.242C109.325 141.023 109.873 141.272 110.652 141.272C111.696 141.272 112.12 140.81 112.12 140.508C112.12 140.189 111.855 139.94 110.864 139.94L110.847 139.922ZM40.4816 132.449C34.0767 125.934 28.9457 118.141 25.5133 109.477C46.2141 103.051 67.658 99.7848 89.5088 99.7848C111.36 99.7848 132.804 103.051 153.504 109.477C150.072 118.141 144.941 125.916 138.536 132.449C106.37 124.212 72.6474 124.212 40.4816 132.449ZM104.831 138.094C104.3 138.094 103.769 138.307 102.991 138.875L102.389 138.094C103.256 137.419 103.982 137.135 104.778 137.135C105.928 137.135 106.742 137.757 106.742 138.609C106.742 139.638 105.539 139.887 104.778 140.153C103.716 140.508 103.451 140.633 103.451 141.147H106.848V142.124H102.46C102.46 141.591 102.442 141.414 102.442 141.343C102.442 139.425 104.035 139.461 105.362 138.893C105.698 138.751 105.733 138.662 105.733 138.573C105.733 138.396 105.503 138.094 104.849 138.094H104.831ZM101.328 139.674C101.328 141.13 100.178 142.23 98.55 142.23C96.9222 142.23 95.7722 141.13 95.7722 139.674C95.7722 138.218 96.9222 137.118 98.55 137.118C100.178 137.118 101.328 138.218 101.328 139.674ZM92.8705 138.094C92.3397 138.094 91.8089 138.307 91.0304 138.875L90.4289 138.094C91.2958 137.419 92.0212 137.135 92.8174 137.135C93.9675 137.135 94.7814 137.757 94.7814 138.609C94.7814 139.638 93.5782 139.887 92.8174 140.153C91.7559 140.508 91.4905 140.633 91.4905 141.147H94.8875V142.124H90.4997C90.4997 141.591 90.482 141.414 90.482 141.343C90.482 139.425 92.0743 139.461 93.4013 138.893C93.7375 138.751 93.7729 138.662 93.7729 138.573C93.7729 138.396 93.5428 138.094 92.8882 138.094H92.8705ZM84.7317 141.627C84.7317 141.982 84.484 142.23 84.1656 142.23C83.8471 142.23 83.5994 141.982 83.5994 141.627C83.5994 141.272 83.8471 141.023 84.1656 141.023C84.484 141.023 84.7317 141.289 84.7317 141.627ZM77.2476 137.97V136.993H82.1839V137.97H80.22V142.106H79.2115V137.97H77.2476ZM74.5583 139.869C73.939 139.816 73.1428 139.834 72.559 139.55C72.0635 139.319 71.7805 138.893 71.7805 138.396C71.7805 137.508 72.6474 136.887 73.7975 136.887C74.629 136.887 75.4429 137.171 76.3276 137.81L75.7437 138.662C75.0183 138.076 74.4344 137.863 73.8152 137.863C73.0897 137.863 72.8244 138.183 72.8244 138.36C72.8244 138.715 73.4259 138.769 73.6382 138.804C73.9567 138.84 74.3459 138.84 74.7706 138.893C75.8145 139.017 76.5045 139.638 76.5045 140.49C76.5045 141.467 75.6198 142.212 74.2221 142.212C73.2667 142.212 72.4174 141.928 71.4974 141.218L72.0812 140.366C72.8951 141.005 73.5852 141.254 74.2221 141.254C75.0714 141.254 75.4606 140.863 75.4606 140.49C75.4606 140.224 75.2483 139.922 74.576 139.869H74.5583ZM68.9496 138.911V139.887H67.0741V141.147H70.3473V142.124H66.0656V137.011H70.1704V137.987H67.0918V138.928H68.9673L68.9496 138.911ZM173.551 113.916C169.393 112.194 165.182 110.614 160.953 109.14C160.422 108.963 159.892 108.767 159.361 108.59C158.388 108.253 157.397 107.951 156.424 107.631C155.769 107.418 155.097 107.205 154.424 106.992C133.281 100.424 111.395 97.1397 89.4912 97.1397C67.5872 97.1397 45.701 100.442 24.5579 107.01C23.8855 107.223 23.2309 107.436 22.5586 107.649C21.5855 107.969 20.5946 108.288 19.6215 108.608C19.0907 108.785 18.5599 108.98 18.0292 109.158C13.8005 110.614 9.5896 112.194 5.43175 113.933V80.2574C7.96185 79.2101 10.5273 78.2159 13.0928 77.2573C14.0129 76.92 14.9152 76.565 15.8352 76.2454C16.8968 75.8726 17.9584 75.5176 19.02 75.1448C19.7808 74.8785 20.5416 74.63 21.2847 74.3815C43.4363 67.1208 66.4549 63.4816 89.4735 63.4816C95.5952 63.4816 101.717 63.7479 107.821 64.2627C108.033 65.0793 108.688 65.3989 109.75 65.5587C110.44 65.3279 109.643 64.7421 109.325 64.6C109.307 64.529 109.29 64.458 109.272 64.387C109.962 64.4403 110.634 64.5113 111.324 64.5823C111.218 64.8308 111.024 65.0616 110.97 65.3279C110.97 65.8249 111.643 65.8072 112.014 65.7894C112.28 65.8249 112.616 65.9847 112.828 66.038C113.111 66.0557 112.952 65.6297 112.97 65.4521C112.97 65.2391 112.97 65.0261 113.005 64.7776C117.481 65.2569 121.94 65.8782 126.381 66.6238C127.16 66.7658 127.956 66.9078 128.734 67.0498C129.548 67.1919 130.362 67.3516 131.176 67.5114C132.078 67.6889 132.963 67.8664 133.865 68.0617C134.538 68.2037 135.21 68.3457 135.882 68.4878C136.873 68.7008 137.846 68.9138 138.837 69.1446C139.368 69.2688 139.881 69.3931 140.412 69.5174C141.526 69.7837 142.623 70.0499 143.72 70.334C143.915 70.3872 144.109 70.4405 144.304 70.4938C148.515 71.5944 152.708 72.8015 156.866 74.1507C157.131 74.2395 157.397 74.3105 157.662 74.3992C158.423 74.6478 159.184 74.914 159.927 75.1626C160.989 75.5176 162.05 75.8727 163.112 76.2632C164.032 76.6005 164.952 76.9378 165.854 77.2751C168.42 78.2337 170.967 79.2101 173.515 80.2752V113.951L173.551 113.916Z" fill="var(--fill-0, #006535)"/>
</g>
<path id="Vector_16" d="M19.7277 92.045C20.7716 93.0391 21.4793 94.2995 21.3731 96.0924C21.3731 96.3055 21.3377 96.5185 21.3201 96.7493C21.2139 97.3884 21.0193 98.0274 20.7539 98.6488C19.3915 101.738 16.2245 103.247 13.6059 103.513C13.022 103.584 11.4474 103.886 11.4828 103.016C11.5181 102.27 11.7481 101.542 11.9428 100.797C11.9958 100.619 12.0489 100.406 12.1551 100.193C12.3497 99.8027 12.6682 99.7671 12.9336 99.8737C13.3936 100.051 13.8713 100.3 14.4021 100.3C15.446 100.3 17.0207 99.6074 17.693 98.2937C18.2592 97.1221 17.9584 95.4001 17.1799 94.8676C16.6491 94.4948 16.0299 94.2817 15.4991 93.9444C14.9152 93.6249 14.3844 93.2166 13.8536 92.8261C13.2697 92.3645 12.5797 91.9207 12.1728 91.2639C11.8012 90.6603 11.7128 89.8259 11.7658 88.9916C11.8543 87.891 12.0843 86.7371 12.6682 85.6187C13.3405 84.3938 14.3136 83.2754 15.4106 82.5298C15.9237 82.1925 16.4191 81.944 16.9322 81.7487C17.6576 81.4824 18.3299 81.4114 19.02 81.3759C19.6038 81.3759 20.2054 81.3404 20.0639 82.1215C19.9223 82.8316 19.6038 83.4707 19.4269 84.2163C19.3384 84.5358 19.2854 84.8553 18.9138 84.9619C18.7015 85.0329 18.5423 84.9618 18.383 84.9441C18.1176 84.8731 17.8699 84.8021 17.5868 84.8198C16.596 84.8376 15.2867 85.5832 15.039 86.8436C14.7913 88.033 15.0921 89.1336 15.8883 89.6307C17.1976 90.4295 18.613 90.9621 19.7454 92.0272L19.7277 92.045ZM42.1801 75.1627C41.5785 75.2869 41.0654 75.3402 40.4639 75.4999C40.2693 75.5355 40.0746 75.5887 39.8977 75.6597C39.5969 75.7307 39.3846 75.9438 39.2608 76.2455C39.1723 76.5296 39.0484 76.8669 38.96 77.1686C38.553 79.0149 38.1638 81.1096 37.6861 82.9559C37.3322 84.3228 36.943 85.6897 36.6422 87.0389C36.6422 87.0744 36.536 87.5004 36.4299 87.5359C36.2352 87.5892 36.1822 87.2874 36.1291 87.0211C36.0937 86.9146 34.7313 79.3522 34.5544 77.861C34.5013 77.2752 34.3067 76.9556 33.6875 77.0799C33.5813 77.1154 33.4751 77.1331 33.369 77.1686C32.6613 77.3994 32.2897 77.4172 31.582 77.648C31.0158 77.8255 30.9274 77.8965 30.8035 78.4646C30.7681 78.5888 30.7681 78.7131 30.7504 78.8551C30.5381 80.1155 29.1227 88.2993 28.928 89.2934C28.928 89.3466 28.8927 89.4709 28.8219 89.4887C28.7157 89.5242 28.6803 89.3821 28.6626 89.3466C28.6273 89.2401 26.2741 79.8137 26.2033 79.5829C26.0972 79.2812 25.8495 79.1569 25.4779 79.2634C24.8763 79.4587 24.434 79.5652 23.6732 79.796C23.6555 79.796 23.4255 79.8492 23.2132 79.9025C22.8417 80.009 22.647 80.2043 22.594 80.5771C22.5586 80.7723 22.5586 81.0031 22.6293 81.1451C22.8417 81.9262 27.0172 98.3292 27.2472 99.0571C27.3357 99.3588 27.3534 99.3588 27.6718 99.2701C28.3973 99.0748 29.1404 98.8618 29.8658 98.6665C29.9188 98.6665 29.9719 98.631 30.025 98.631C30.3789 98.5422 30.3966 98.0274 30.485 97.5481C31.0335 94.5658 31.7058 91.6012 32.3605 88.7076C32.3959 88.53 32.449 88.3525 32.502 88.2105C32.5374 88.1572 32.5905 88.104 32.6082 88.104C32.6613 88.104 32.7143 88.104 32.7497 88.1572C32.8913 88.459 34.519 95.8439 34.8375 97.1221C34.8906 97.2818 34.979 97.3884 35.1914 97.3351C35.9168 97.1576 36.6422 96.9978 37.3676 96.8203C37.7745 96.7315 38.0576 96.4475 38.1284 96.0214C38.4823 94.122 38.9423 91.9917 39.3846 90.11C39.9331 87.7844 40.4993 85.4944 41.0831 83.1689C41.5255 81.3227 41.9855 79.2989 42.534 77.4527C42.7286 76.8314 43.4363 74.9496 42.2332 75.1982L42.1801 75.1627ZM49.7527 77.0444C51.0443 76.8136 52.3359 76.5828 53.6275 76.3698C54.1583 76.2278 54.3175 76.2278 54.2821 75.713C54.229 74.9319 54.3175 74.0798 54.229 73.2987C54.1759 72.8726 54.0344 72.8016 53.539 72.8904C52.7074 73.0501 52.5128 73.0857 51.6989 73.2632C50.8674 73.4229 47.5765 74.0088 46.7803 74.1508C45.6302 74.3638 45.5418 74.3106 45.5241 75.713C45.471 76.8314 45.4887 77.9497 45.4887 79.0681C45.4887 80.9854 45.3825 87.9087 45.4356 89.4354C45.4356 89.4354 45.4179 89.4354 45.4002 89.4354C45.4002 90.1277 45.3648 90.8378 45.4002 91.5479C45.4356 92.4178 45.4887 93.2876 45.5418 94.1575C45.5418 94.4593 45.6302 94.5303 45.8956 94.5303C46.4795 94.5658 47.028 94.477 47.5942 94.3705C49.0804 94.051 50.5666 93.8912 52.0528 93.5894C52.6543 93.4651 52.9374 93.4651 53.539 93.2699C54.0875 93.0746 54.2821 92.7373 54.2821 91.9207C54.229 91.4059 54.2467 91.1751 54.2467 90.5538C54.2467 89.6484 53.6098 89.4354 53.0613 89.5597C52.672 89.6484 50.832 89.8969 50.0889 90.0212C48.8504 90.2697 49.045 90.394 49.045 89.0981C49.045 88.0507 49.0804 86.7016 49.0804 85.6364C49.0804 85.0506 49.1334 84.8553 49.6819 84.7666C50.832 84.5713 51.982 84.376 53.1144 84.1985C53.6628 84.1985 54.0521 83.7547 54.0521 83.1689C54.0521 82.5831 54.1052 82.5476 54.1052 81.9795C54.0698 81.7132 54.0521 81.4469 54.0167 81.1629C53.9636 80.7013 53.7867 80.5593 53.3267 80.6303C53.0259 80.6836 52.7251 80.7546 52.4243 80.8256C51.2389 81.0919 50.6904 81.0209 49.5404 81.3049C49.1511 81.3759 49.0981 81.3227 49.0804 80.9676C48.9742 79.9202 49.0804 78.7131 49.1865 77.6302C49.2219 77.1864 49.3281 77.0799 49.735 76.9911L49.7527 77.0444ZM61.2178 75.3402C62.5093 75.1627 63.8186 75.0206 65.1102 74.8609C65.641 74.7544 65.8002 74.7544 65.7825 74.2395C65.7295 73.4407 65.8179 72.6241 65.7295 71.8253C65.6764 71.3992 65.5348 71.3282 65.0394 71.3814C64.2079 71.5057 64.0132 71.5235 63.1817 71.6655C62.3501 71.772 59.0415 72.198 58.2276 72.3046C57.0599 72.4643 56.9891 72.3933 56.9537 73.7957C56.9007 74.8964 56.9184 76.0325 56.9184 77.1509C56.9184 79.0681 56.8122 85.9915 56.8653 87.5182C56.8653 87.5182 56.8476 87.5182 56.8299 87.5182C56.8299 88.2105 56.7945 88.9206 56.8299 89.6307C56.8653 90.5005 56.9184 91.3704 56.9714 92.258C56.9714 92.5598 57.0599 92.6308 57.3253 92.6485C57.9092 92.7018 58.4576 92.6485 59.0415 92.5775C60.5277 92.329 62.0316 92.258 63.5178 92.0272C64.1194 91.9384 64.4025 91.9562 65.0041 91.7787C65.5525 91.6189 65.7472 91.2816 65.7472 90.465C65.6941 89.9502 65.7118 89.7194 65.7118 89.0981C65.7118 88.1927 65.0748 87.962 64.5263 88.0507C64.1371 88.1217 62.2793 88.2638 61.5362 88.3703C60.2977 88.5478 60.4923 88.6898 60.4923 87.3939C60.4923 86.3465 60.5277 84.9974 60.5277 83.9322C60.5277 83.3464 60.5808 83.1511 61.1293 83.0801C62.2793 82.9381 63.4294 82.8138 64.5794 82.6896C65.1279 82.7073 65.5172 82.2813 65.5172 81.7132C65.5172 81.1274 65.5702 81.1096 65.5702 80.5238C65.5348 80.2575 65.5172 79.9735 65.4818 79.7072C65.4287 79.2457 65.2518 79.1036 64.7917 79.1569C64.491 79.1924 64.1902 79.2457 63.8717 79.3167C62.6863 79.5297 62.1378 79.4409 60.9701 79.654C60.5808 79.7072 60.5277 79.654 60.4923 79.2989C60.3862 78.2338 60.4923 77.0444 60.5985 75.9615C60.6339 75.5177 60.74 75.4289 61.147 75.3402H61.2178ZM78.4684 70.5293C77.9907 70.5293 73.4613 70.7956 71.6035 70.9909C70.6835 71.0619 69.9404 71.0974 69.0204 71.1684C68.3303 71.2217 68.348 71.772 68.348 72.9791C68.348 73.7425 68.3126 74.5236 68.985 74.4526C69.3742 74.4171 70.9489 74.2928 71.3912 74.2751C71.6743 74.2573 71.8689 74.3283 71.922 74.6123C71.922 74.7011 71.9574 74.7721 71.9574 74.8609C71.9574 76.8314 71.8159 86.0625 71.8689 88.53C71.9043 89.3821 71.9043 90.2342 71.922 91.0863C71.922 91.4769 71.9574 91.5301 72.3466 91.4946C73.1782 91.4414 74.0098 91.3704 74.8414 91.3171C75.3721 91.2816 75.266 90.4118 75.2306 89.9502C75.266 84.8198 75.2837 79.6895 75.3191 74.5591C75.3191 74.1508 75.4606 74.0088 76.0091 73.9733C76.823 73.92 77.6369 73.8845 78.4507 73.849C79.0346 73.8135 78.8931 72.8371 78.8931 72.1448C78.8931 71.5412 79.1231 70.4761 78.4507 70.5116L78.4684 70.5293ZM97.1699 70.7424C97.1168 70.2986 97.0107 70.2098 96.4976 70.1921C95.666 70.1921 95.4714 70.1921 94.6398 70.2276C93.8083 70.2276 90.4466 70.1921 89.6327 70.1921C88.5003 70.1921 88.3765 70.121 88.3588 71.5057C88.3234 72.6063 88.3234 73.7247 88.3234 74.8609C88.3234 76.7781 88.2173 83.6837 88.288 85.2281C88.288 85.2281 88.2703 85.2281 88.2526 85.2281C88.2526 85.9205 88.2173 86.6305 88.2526 87.3406C88.288 88.2282 88.3057 89.0981 88.3588 89.9857C88.3942 90.2875 88.4473 90.3763 88.7481 90.4295C89.2965 90.5715 89.8804 90.5893 90.4643 90.5893C91.9682 90.536 91.9682 90.3052 91.9682 89.2756C91.9151 88.7608 91.9328 88.53 91.9328 87.9087C91.9328 87.0034 91.8974 86.8968 91.8974 85.6009C91.9328 84.5535 91.9328 83.2044 91.9328 82.1393C91.9328 81.5534 92.0213 81.3759 92.552 81.3759C93.8967 81.3937 95.2591 81.4292 96.6037 81.4647C97.1876 81.5712 96.9576 81.1806 96.9576 80.5948C96.9576 80.009 97.0461 79.9912 97.0107 79.4232C97.0107 79.1569 96.9576 78.8729 96.9222 78.5888C96.8691 78.1273 96.6922 77.9497 96.2322 77.932C95.9314 77.932 96.1968 77.9497 95.9314 77.9853C94.7283 78.0385 93.5959 77.8432 92.3928 77.9142C92.0036 77.9142 91.9505 77.861 91.9151 77.4882C91.8266 76.4231 91.9151 75.2337 92.0213 74.1685C92.0743 73.7247 92.1628 73.6537 92.5697 73.6182C93.879 73.6182 95.1883 73.6537 96.4976 73.6715C97.0461 73.636 97.223 73.6715 97.1699 73.1389C97.1168 72.3401 97.223 71.5235 97.1168 70.7246L97.1699 70.7424ZM104.212 74.0798C105.521 74.1508 106.813 74.2395 108.122 74.3283C108.653 74.3283 108.812 74.3638 108.794 73.8312C108.741 73.0324 108.83 72.2158 108.741 71.417C108.688 70.9732 108.547 70.8844 108.051 70.8311C107.22 70.7956 107.025 70.7779 106.193 70.7779C105.362 70.7424 102.035 70.5293 101.222 70.4938C100.054 70.4406 99.9654 70.3518 99.9477 71.7542C99.8946 72.8549 99.9123 73.9733 99.9123 75.1094C99.9123 77.0266 99.8062 83.9322 99.8592 85.4767C99.8592 85.4767 99.8416 85.4767 99.8239 85.4767C99.8239 86.169 99.7885 86.8791 99.8239 87.5892C99.8592 88.4768 99.9123 89.3466 99.9654 90.2342C99.9654 90.536 100.054 90.6248 100.319 90.6958C100.903 90.8556 101.452 90.9088 102.035 90.9443C103.539 90.9621 105.026 91.1751 106.53 91.2284C107.131 91.2461 107.414 91.3171 108.033 91.2639C108.582 91.1929 108.777 90.9088 108.777 90.0922C108.723 89.5597 108.741 89.3466 108.741 88.7076C108.741 87.8022 108.104 87.4472 107.556 87.4294C107.166 87.4294 105.309 87.2341 104.566 87.1809C103.309 87.1276 103.504 87.3051 103.504 86.0092C103.504 84.9618 103.539 83.6127 103.539 82.5476C103.539 81.9617 103.592 81.7842 104.159 81.8197C105.309 81.8907 106.476 81.9795 107.626 82.0682C108.175 82.1925 108.564 81.8375 108.564 81.2694C108.564 80.6836 108.617 80.6658 108.617 80.0978C108.582 79.8137 108.564 79.5474 108.529 79.2634C108.476 78.7841 108.299 78.6066 107.839 78.5711C107.538 78.5533 107.237 78.5533 106.919 78.5711C105.733 78.5711 105.167 78.358 103.999 78.3758C103.61 78.358 103.557 78.287 103.522 77.932C103.416 76.8491 103.522 75.6775 103.628 74.6123C103.663 74.1685 103.769 74.0975 104.176 74.0975L104.212 74.0798ZM119.994 89.8259C119.958 89.4354 119.746 89.2756 119.41 89.2224C118.278 89.0981 117.145 88.9028 116.013 88.8318C115.818 88.8318 115.624 88.8318 115.429 88.7963C115.093 88.7253 115.022 88.6365 114.987 88.2815V87.8732C114.898 85.5832 115.075 83.2399 115.075 80.9499C115.04 79.0149 115.075 77.2929 115.04 75.5887C115.04 74.8431 115.04 74.0975 115.004 73.3874C114.969 72.9436 115.004 72.4821 114.898 72.0205C114.845 71.843 114.757 71.6122 114.562 71.5945C113.695 71.5057 112.828 71.417 111.961 71.3282C111.519 71.2927 111.377 71.5767 111.36 72.0205V73.9733C111.324 75.6775 111.501 88.1395 111.466 89.0448C111.466 89.897 111.466 90.7491 111.501 91.6012C111.501 91.7432 111.59 91.8852 111.731 91.9029C113.677 92.1692 115.588 92.2225 117.517 92.471C118.154 92.5775 118.791 92.6308 119.392 92.7018C119.994 92.755 120.065 92.5065 120.029 92.0095C119.994 91.2284 119.994 90.5538 119.994 89.8082V89.8259ZM131.176 91.6012C131.14 91.2106 130.928 91.0331 130.592 90.9798C129.46 90.8023 128.345 90.5538 127.213 90.4295C127.018 90.4295 126.823 90.394 126.629 90.3585C126.293 90.2697 126.222 90.181 126.186 89.8259V89.4176C126.098 87.1276 126.275 84.7843 126.275 82.5121C126.24 80.5771 126.275 78.8551 126.24 77.1509C126.24 76.4053 126.24 75.6597 126.204 74.9496C126.169 74.5058 126.204 74.0443 126.098 73.5827C126.045 73.4052 125.956 73.1744 125.762 73.1389C124.895 72.9969 124.028 72.8726 123.179 72.7484C122.736 72.6774 122.595 72.9614 122.577 73.4052V75.3579C122.542 77.0621 122.719 89.5242 122.683 90.4295C122.683 91.2816 122.683 92.1337 122.719 92.9858C122.719 93.1278 122.807 93.2699 122.949 93.2876C124.877 93.6427 126.788 93.7847 128.699 94.1397C129.336 94.2817 129.955 94.3527 130.574 94.4593C131.176 94.548 131.229 94.2995 131.211 93.8024C131.176 93.0213 131.176 92.3467 131.176 91.6012ZM138.076 78.7486C139.368 79.0149 140.642 79.2989 141.933 79.5829C142.446 79.654 142.623 79.7072 142.588 79.1924C142.535 78.3758 142.623 77.577 142.535 76.7604C142.482 76.3165 142.34 76.1923 141.845 76.0858C141.031 75.926 140.836 75.8727 140.022 75.7485C139.208 75.5887 135.918 74.8964 135.121 74.7366C133.971 74.5058 133.883 74.4171 133.865 75.8017C133.812 76.8846 133.83 78.0208 133.83 79.1569C133.83 81.0741 133.724 87.962 133.777 89.5064C133.777 89.5064 133.759 89.5064 133.741 89.5064C133.741 90.1987 133.706 90.9088 133.741 91.6189C133.777 92.5065 133.83 93.3941 133.883 94.2817C133.883 94.5835 133.971 94.69 134.237 94.7965C134.821 95.0451 135.351 95.1871 135.935 95.2936C137.421 95.5421 138.89 95.9682 140.359 96.2345C140.96 96.341 141.225 96.4652 141.827 96.483C142.376 96.483 142.57 96.2345 142.57 95.4179C142.517 94.8853 142.535 94.6723 142.535 94.0332C142.535 93.1278 141.916 92.684 141.367 92.5775C140.978 92.5065 139.155 92.045 138.412 91.9029C137.191 91.6722 137.368 91.8674 137.368 90.5893C137.368 89.5419 137.404 88.2105 137.404 87.1276C137.404 86.5418 137.457 86.3643 138.005 86.4885C139.138 86.7371 140.288 86.9856 141.42 87.2519C141.969 87.4649 142.34 87.1631 142.34 86.595C142.34 86.0092 142.393 86.0092 142.393 85.4234C142.358 85.1394 142.34 84.8553 142.305 84.5713C142.252 84.092 142.092 83.879 141.615 83.7725C141.314 83.7014 141.013 83.6659 140.712 83.6304C139.545 83.4529 138.996 83.1689 137.846 83.0091C137.457 82.9204 137.404 82.8671 137.386 82.4943C137.28 81.3937 137.386 80.2398 137.492 79.1924C137.528 78.7663 137.634 78.6953 138.041 78.7663L138.076 78.7486ZM156.194 100.158C156.282 100.477 156.194 100.673 155.84 100.584C154.849 100.282 153.858 99.9802 152.867 99.6961C152.708 99.6429 152.514 99.6606 152.407 99.4654C152.319 99.3588 152.036 98.4002 151.894 98.0629C150.921 95.7019 149.966 93.3054 148.887 90.8733C148.851 90.7846 148.798 90.7135 148.692 90.678C148.586 90.6425 148.533 90.8023 148.497 90.8733C148.462 91.2284 148.462 95.7374 148.462 96.4475C148.462 97.5126 148.674 98.56 148.09 98.418C147.294 98.205 146.834 98.1162 146.073 97.9387C145.879 97.8854 145.666 97.8144 145.472 97.7612C145.153 97.6724 145.083 97.5836 145.083 97.2286C145.083 96.0214 145.136 87.6247 145.136 84.4293C145.1 82.3345 145.047 80.2043 145.1 78.1095V77.7722C145.136 77.3107 145.401 77.1331 145.826 77.2397C146.746 77.4704 147.259 77.6125 148.002 77.8255C148.851 78.074 149.647 78.1983 150.497 78.4823C151.877 78.9439 153.044 79.9025 153.929 81.2339C155.097 83.0269 155.486 85.1216 155.221 86.8613C154.973 88.6365 153.823 89.5064 152.531 90.323C152.478 90.394 152.071 90.465 152.124 90.5893C152.177 90.8556 153.805 94.4948 154.035 95.1161C154.389 95.9327 155.928 99.3056 156.141 100.193L156.194 100.158ZM150.815 82.3523C150.355 81.8907 149.293 81.2339 148.78 81.4824C148.409 81.6777 148.533 82.5476 148.515 82.9559C148.515 83.879 148.497 84.8021 148.48 85.7252C148.48 85.7252 148.515 86.5773 148.515 87.0211C148.55 87.6957 149.293 87.7489 149.7 87.7489C150.373 87.7489 150.974 87.5359 151.328 87.0389C152.054 85.956 152.16 83.6659 150.815 82.37V82.3523ZM163.112 82.1038C162.599 81.9617 162.103 81.873 161.59 81.873C160.493 81.8907 159.502 82.3523 158.83 83.1334C158.246 83.8612 157.998 84.8553 157.91 85.9027C157.857 86.7193 157.945 87.5892 158.317 88.4413C158.724 89.3644 159.414 90.2697 160.015 91.1218C160.546 91.8674 161.095 92.613 161.679 93.3409C162.209 94.0332 162.829 94.6545 163.359 95.3824C164.138 96.4475 164.421 98.347 163.873 99.1458C163.2 100.016 161.625 99.6606 160.582 98.9683C160.051 98.5955 159.555 98.0452 159.113 97.5659C158.848 97.2818 158.529 97.1043 158.335 97.3706C158.228 97.4949 158.175 97.6724 158.122 97.8322C157.928 98.4535 157.698 99.0216 157.662 99.7494C157.645 100.584 159.219 101.329 159.803 101.649C162.439 103.105 165.571 103.69 166.933 101.507C167.199 101.045 167.393 100.548 167.5 99.9802C167.535 99.7671 167.553 99.5896 167.553 99.3588C167.659 97.6369 166.969 95.8972 165.925 94.2285C164.81 92.4178 163.395 90.9443 162.086 89.2756C161.289 88.246 160.989 86.9323 161.236 85.9205C161.484 84.8198 162.793 84.9441 163.784 85.5832C164.085 85.7607 164.315 85.9915 164.58 86.24C164.739 86.382 164.899 86.5418 165.111 86.6128C165.483 86.7726 165.536 86.4885 165.624 86.2045C165.819 85.5832 166.137 85.1394 166.261 84.5358C166.403 83.8435 165.801 83.4884 165.217 83.0979C164.527 82.6718 163.855 82.299 163.129 82.086L163.112 82.1038Z" fill="var(--fill-0, #F15A29)"/>
<path id="Vector_17" d="M37.0137 120.431C37.7368 120.431 38.323 119.843 38.323 119.117C38.323 118.392 37.7368 117.803 37.0137 117.803C36.2907 117.803 35.7045 118.392 35.7045 119.117C35.7045 119.843 36.2907 120.431 37.0137 120.431Z" fill="var(--fill-0, #ADD2A3)"/>
<path id="Vector_18" d="M142.022 120.431C142.745 120.431 143.331 119.843 143.331 119.117C143.331 118.392 142.745 117.803 142.022 117.803C141.299 117.803 140.712 118.392 140.712 119.117C140.712 119.843 141.299 120.431 142.022 120.431Z" fill="var(--fill-0, #ADD2A3)"/>
<path id="Vector_19" d="M45.0287 114.395C44.1794 114.59 43.3124 114.786 42.4632 114.999C42.2686 115.052 42.127 114.91 42.127 114.732C42.127 114.075 42.127 113.401 42.127 112.744C42.127 112.567 42.2686 112.371 42.4632 112.318C45.1171 111.679 47.7711 111.111 50.4427 110.578C50.6373 110.543 50.7789 110.667 50.7789 110.862V112.851C50.7789 113.028 50.6373 113.223 50.4427 113.259C49.5758 113.419 48.7265 113.596 47.8595 113.774V123.502C47.8595 123.679 47.7003 123.875 47.5234 123.928C46.798 124.088 46.0902 124.23 45.3648 124.389C45.1879 124.425 45.0287 124.301 45.0287 124.123V114.395ZM52.7782 110.472C52.7782 110.294 52.9197 110.099 53.1144 110.063C54.9191 109.726 56.7237 109.424 58.5284 109.158C60.7047 108.821 62.4917 110.348 62.4917 112.531C62.4917 114.217 61.377 115.709 59.8023 116.579C60.6339 117.999 61.4655 119.419 62.297 120.857C62.4209 121.07 62.297 121.389 61.9962 121.425C61.1824 121.531 60.3862 121.656 59.59 121.762C59.4485 121.78 59.3423 121.709 59.3069 121.638C58.5107 120.147 57.6969 118.673 56.9007 117.182C56.476 117.253 56.0691 117.324 55.6445 117.395V122.046C55.6445 122.224 55.4852 122.419 55.3083 122.454C54.5829 122.579 53.8752 122.703 53.1498 122.827C52.9551 122.863 52.8136 122.721 52.8136 122.543V110.472H52.7782ZM58.2984 114.644C59.0415 114.519 59.6785 113.738 59.6785 112.975C59.6785 112.211 59.0415 111.679 58.2984 111.803C57.3961 111.945 56.5114 112.087 55.6091 112.247V115.087C56.4937 114.928 57.3961 114.786 58.2984 114.644ZM65.1102 108.59C65.1102 108.413 65.2518 108.217 65.4641 108.2C67.9765 107.898 70.4889 107.649 73.0013 107.454C73.1959 107.454 73.3551 107.596 73.3551 107.773V109.762C73.3551 109.939 73.2136 110.117 73.0013 110.134C71.3204 110.277 69.6396 110.436 67.9588 110.614V112.868C69.3388 112.726 70.7366 112.584 72.1166 112.478C72.2936 112.478 72.4705 112.602 72.4705 112.797C72.4705 113.454 72.4705 114.129 72.4705 114.786C72.4705 114.981 72.3113 115.141 72.1166 115.158C70.7366 115.283 69.3388 115.407 67.9588 115.549V118.016C69.6396 117.839 71.3204 117.679 73.0013 117.537C73.1959 117.537 73.3551 117.661 73.3551 117.857V119.845C73.3551 120.022 73.2136 120.2 73.0013 120.218C70.4889 120.413 67.9765 120.679 65.4641 120.963C65.2695 120.981 65.1102 120.839 65.1102 120.662C65.1102 116.632 65.1102 112.62 65.1102 108.59ZM75.9737 107.578C75.9737 107.383 76.1153 107.223 76.3276 107.205C78.84 107.046 81.3701 106.921 83.9002 106.868C84.0948 106.868 84.254 107.028 84.254 107.205V109.194C84.254 109.371 84.1125 109.549 83.9002 109.549C82.2193 109.602 80.5208 109.655 78.84 109.744V111.998C80.22 111.927 81.6178 111.874 83.0155 111.821C83.1924 111.821 83.3694 111.981 83.3694 112.158V114.146C83.3694 114.342 83.2101 114.502 83.0155 114.502C81.6178 114.537 80.2377 114.608 78.84 114.679V117.147C80.5208 117.058 82.2193 116.987 83.9002 116.951C84.0948 116.951 84.254 117.111 84.254 117.289V119.277C84.254 119.454 84.1125 119.632 83.9002 119.632C81.3701 119.703 78.8577 119.809 76.3276 119.969C76.1329 119.969 75.9737 119.827 75.9737 119.65V107.578ZM96.763 106.762C98.5853 106.833 99.9477 107.472 101.186 108.679C101.345 108.839 101.345 109.052 101.204 109.194C100.726 109.655 100.248 110.117 99.7708 110.596C99.6469 110.72 99.4346 110.703 99.3108 110.578C98.6384 109.939 97.7361 109.566 96.8337 109.531C94.7637 109.442 93.2421 111.146 93.2421 113.188C93.2421 115.212 94.7814 116.916 96.8514 116.987C97.7184 117.022 98.6384 116.756 99.2931 116.223C99.4169 116.117 99.6646 116.135 99.7708 116.259C100.248 116.792 100.726 117.324 101.204 117.857C101.328 117.999 101.31 118.229 101.186 118.354C99.9477 119.49 98.373 119.969 96.7453 119.898C93.0828 119.756 90.1458 116.863 90.1458 113.223C90.1458 109.584 93.0828 106.637 96.7453 106.779L96.763 106.762ZM101.947 119.49C103.858 115.531 105.751 111.572 107.662 107.667C107.715 107.56 107.839 107.489 107.963 107.489C108.016 107.489 108.086 107.489 108.14 107.489C108.263 107.489 108.387 107.614 108.458 107.72C110.351 111.998 112.262 116.294 114.155 120.626C114.261 120.875 114.12 121.088 113.854 121.07C113.182 120.981 112.51 120.91 111.837 120.839C111.501 120.804 111.36 120.679 111.2 120.306C110.988 119.809 110.758 119.295 110.546 118.798C108.9 118.62 107.237 118.46 105.592 118.336C105.379 118.798 105.149 119.277 104.937 119.738C104.849 119.951 104.654 120.147 104.282 120.129C103.61 120.076 102.938 120.04 102.283 119.987C102.018 119.969 101.859 119.721 101.965 119.49H101.947ZM109.431 116.206C108.971 115.158 108.511 114.111 108.051 113.064C108.051 113.064 108.051 113.064 108.033 113.064C107.573 114.022 107.113 114.981 106.671 115.939C107.591 116.028 108.511 116.099 109.449 116.206H109.431ZM115.836 108.927C115.836 108.75 115.978 108.608 116.19 108.626C117.995 108.874 119.817 109.14 121.622 109.442C123.798 109.797 125.567 111.892 125.567 114.058C125.567 115.744 124.47 116.88 122.896 117.253C123.727 118.94 124.541 120.626 125.373 122.312C125.496 122.579 125.373 122.845 125.072 122.792C124.276 122.65 123.462 122.508 122.666 122.366C122.524 122.348 122.418 122.224 122.382 122.153C121.586 120.413 120.772 118.673 119.976 116.934C119.552 116.863 119.145 116.809 118.72 116.738V121.389C118.72 121.567 118.561 121.709 118.384 121.691C117.658 121.585 116.951 121.478 116.225 121.389C116.031 121.354 115.871 121.176 115.871 120.999V108.927H115.836ZM121.356 114.839C122.099 114.963 122.736 114.377 122.736 113.614C122.736 112.851 122.099 112.123 121.356 111.998C120.454 111.856 119.569 111.714 118.667 111.59V114.431C119.569 114.555 120.454 114.697 121.356 114.839ZM128.15 110.951C128.15 110.774 128.292 110.632 128.487 110.667C130.981 111.164 133.458 111.714 135.935 112.3C136.13 112.354 136.271 112.549 136.271 112.726V114.715C136.271 114.892 136.13 115.034 135.935 114.981C134.272 114.59 132.627 114.217 130.964 113.862C130.964 114.608 130.964 115.371 130.964 116.117C132.326 116.401 133.688 116.721 135.051 117.04C135.228 117.093 135.387 117.289 135.387 117.466V119.454C135.387 119.65 135.228 119.756 135.051 119.721C133.688 119.401 132.326 119.099 130.964 118.798C130.964 119.614 130.964 120.431 130.964 121.265C132.627 121.62 134.29 121.993 135.935 122.383C136.13 122.437 136.271 122.632 136.271 122.81V124.798C136.271 124.975 136.13 125.117 135.935 125.064C133.458 124.478 130.981 123.928 128.487 123.431C128.292 123.395 128.15 123.2 128.15 123.023V110.951Z" fill="var(--fill-0, #006535)"/>
</g>
<path id="Vector_20" d="M89.4912 60.0556C89.5973 59.6651 89.4027 59.239 89.6327 58.8307C92.2867 58.0319 96.5507 57.8011 98.4792 58.3159C97.5592 58.9905 97.6122 59.7893 97.6653 60.0556C97.7361 60.4107 98.0369 60.7125 98.4438 60.9965C95.4714 60.8722 92.4813 60.7657 89.4912 60.8012H89.2965C89.3496 60.5882 89.4027 60.3397 89.4735 60.0556H89.4912Z" fill="var(--fill-0, #ADD2A3)"/>
</g>
</g>
</g>
</svg>
