<svg preserveAspectRatio="none" width="1728" height="740.246" overflow="visible" style="display: block;" viewBox="0 0 1728 740.246" fill="none" xmlns="http://www.w3.org/2000/svg">
<path id="Subtract" d="M1034.69 1.37116C1043.7 0.48103 1053.15 -0.182282 1062.67 0.044985L1101.19 0.992251L1126.15 1.95807L1135.4 3.01862C1135.7 3.05655 1135.73 3.30327 1135.64 3.4737L1135.31 4.07916C1136.66 4.42002 1139.14 4.98841 1140.28 5.02643L1157.1 5.6319C1160.42 5.74553 1163.86 5.80276 1167.13 6.23834C1170.78 6.7497 1174.37 8.09473 1178.2 8.18952C1189.24 8.45466 1200.56 8.13243 1211.78 7.96198C1213.28 9.23088 1215.28 10.2154 1217.95 10.3858C1225.28 10.8782 1231.92 11.617 1239.14 12.7344C1242.28 13.2268 1246.11 12.8105 1249.28 12.4317C1260.57 11.0871 1271.46 12.375 1282.8 12.3751L1330.24 12.3174L1379.03 12.9424C1379.84 12.9424 1381.69 12.7341 1381.87 12.3174L1382.77 10.2159C1396.18 10.5947 1409.98 11.3517 1423.54 11.0108C1445.35 10.4616 1438.47 12.6016 1466.21 10.3858C1469.24 10.1395 1471.9 8.88972 1473.7 7.39362L1471.09 5.82135C1475.97 5.31002 1481.06 4.76088 1486.12 4.85553L1522.48 5.50006L1575.16 6.52252C1579.38 6.59828 1583.21 6.82515 1587.43 7.07135C1597.52 7.65846 1608.08 6.59847 1617.9 8.24616C1626.82 9.72338 1634.69 11.6362 1644.18 11.5225C1648.46 11.4657 1652.8 12.3366 1656.93 12.9805C1673.27 15.5183 1684.01 13.3974 1701.31 15.3292L1719.66 17.3741C1726.21 18.1083 1726.55 18.6752 1728 18.878V717.79C1719.77 717.417 1713.59 716.757 1708.58 717.093L1683.17 718.815C1679.16 719.081 1675.48 719.573 1671.26 719.573C1667.82 719.573 1660.91 720.482 1662.67 721.751C1663.03 721.997 1663.93 722.565 1664.44 722.717L1668.87 723.986C1668.99 724.024 1669.92 724.156 1670.07 724.156L1671.32 724.251L1672.7 724.346L1674.14 724.46L1675.48 724.555V725.312L1666.59 727.319C1660.52 728.683 1655.43 729.971 1649 730.35C1637.62 731.013 1626.7 733.437 1615.26 733.172L1576.45 732.281L1564.26 732.206C1563.96 732.206 1563.49 732.243 1563.04 732.243C1540.71 733.001 1543.46 735.538 1535.74 736.391C1512.31 739.004 1503.18 733.816 1480.13 736.6C1473.25 737.433 1466.45 738.816 1459.42 738.475L1440.71 737.565C1435.57 737.3 1430.15 737.489 1425.21 736.713C1387.53 730.823 1370.74 732.414 1333.06 732.868L1307.8 733.172C1301.24 733.248 1294.99 733.626 1288.4 733.342C1279.93 732.982 1271.1 731.638 1262.69 732.793C1252.49 734.195 1242.97 735.122 1232.31 734.024L1220.46 732.812C1220.07 732.774 1218.82 732.907 1218.55 732.982C1218.28 733.058 1218.04 733.607 1218.04 733.815L1218.1 734.819V735.964C1218.07 736.294 1217.86 736.902 1217.5 736.902H1215.25L1184.99 737.092L1170.69 736.183C1160.78 735.558 1151.17 735.804 1141.27 735.35C1133.49 734.99 1126.12 735.236 1118.64 735.918C1111.16 736.6 1103.62 735.52 1095.98 735.482C1091.46 735.464 1086.88 736.088 1082.37 736.221C1053.18 737.13 1063.15 741.088 1036.93 740.084C1028.58 739.762 1020.5 739.232 1012.21 738.171C1005.57 737.319 999.49 736.619 992.546 736.543C978.599 736.41 965.04 736.107 951.213 736.485C942.563 736.732 934.542 736.466 925.743 736.391L856.875 735.86C842.898 735.747 843.975 733.551 831.136 734.1C828.741 734.213 826.227 735.179 824.281 736.239C813.297 736.353 802.583 735.615 791.419 735.217L738.712 733.304C716.983 732.508 673.465 730.406 653.622 733.096C641.95 734.668 631.055 736.96 619.293 738.134C614.295 738.645 609.237 738.398 604.418 737.679C582.839 734.459 563.833 737.206 552.849 735.823L530.013 732.963L468.956 725.937C454.32 724.251 440.732 722.641 426.545 720.16C418.733 718.797 407.569 721.978 389.163 718.569C380.394 716.941 372.313 717.168 363.364 717.225C352.26 717.3 341.515 716.865 330.352 717.604C309.221 718.986 297.249 716.467 287.971 717.111L263.249 718.797C258.819 719.1 254.749 719.611 250.14 719.611C246.937 719.611 243.825 719.876 242.089 721.372C241.49 721.902 246.908 724.043 251.876 724.365L253.462 724.479L254.689 724.554C254.78 724.555 255.109 724.876 255.438 725.179L242.298 728.247C239.006 729.024 235.833 729.763 232.392 730.047L221.018 730.993C212.218 731.713 203.539 733.38 194.62 733.19L147.93 732.187C141.196 732.035 134.88 732.489 128.476 733.266C124.944 733.701 121.921 734.99 118.868 735.634C106.836 738.153 94.3555 736.959 82.1143 736.05C61.7321 734.535 50.6577 738.967 40.1523 738.475L20.7578 737.565C15.6101 737.319 10.223 737.509 5.25488 736.751C3.45165 736.477 1.70127 736.221 0 735.979V11.0079C0.922006 10.994 1.84545 10.9777 2.77051 10.9542C24.6791 10.386 16.9874 12.4501 45.3906 10.3858C48.623 10.1396 50.8376 8.90834 53.4414 7.5069L53.0527 6.78717C52.2747 6.57888 50.5392 6.10582 51.1367 5.8028C55.8955 5.15889 60.954 4.70422 65.9521 4.79889L102.167 5.46198L154.245 6.46588C158.735 6.54164 162.805 6.78706 167.265 7.03327C177.351 7.60141 187.916 6.57955 197.703 8.24616C206.143 9.68549 213.625 11.5031 222.574 11.4464C227.393 11.4085 232.093 12.2609 236.762 12.9805C252.624 15.4425 263.399 13.3785 280.997 15.3292L298.896 17.3174C310.777 18.6431 301.709 19.5711 319.427 18.378C350.673 16.2568 347.501 19.1544 371.235 18.8135L400.028 18.3975L413.706 19.003C437.71 20.0635 490.595 17.8286 521.423 18.3399L573.052 19.1924L592.236 19.5899C598.372 19.7225 607.141 19.7985 612.888 19.8174C613.143 19.8174 614.052 20.191 614.108 20.253H628.422C628.453 20.1392 629.978 19.7794 630.517 19.7794C657.154 20.2339 655.957 16.8627 676.578 16.5596C680.828 16.5028 684.899 15.9734 689.06 15.5567L700.312 14.4014L712.374 14.1544L722.461 12.8292C731.53 11.636 740.299 11.0676 749.577 10.4805C764.213 9.55254 778.818 9.74189 793.514 10.3858C798.063 10.5752 802.074 10.6511 806.623 10.2344C812.34 9.72309 817.129 12.6394 837.69 8.94635C848.196 7.0525 858.731 6.33289 869.775 6.38971L909.252 6.56061C916.764 6.59849 923.618 5.68907 931.041 5.51862L971.027 4.57135L993.354 3.7569L1033.58 2.58307C1033.91 2.56413 1034.81 2.4504 1034.81 2.29889L1034.69 1.37116Z" fill="var(--fill-0, #D9D9D9)"/>
</svg>
