<svg preserveAspectRatio="none" width="230" height="232" overflow="visible" style="display: block;" viewBox="0 0 230 232" fill="none" xmlns="http://www.w3.org/2000/svg">
<path id="Vector" d="M146.84 156.631C146.589 150.103 146.088 148.044 148.244 142.471C149.597 143.174 151.001 143.877 152.354 144.58C153.157 140.763 156.365 137.6 160.175 136.847C163.985 136.094 168.146 137.801 170.352 141.014C171.455 136.997 178.223 141.316 181.732 139.056C183.587 137.851 183.788 135.24 184.891 133.332C187.548 128.763 194.366 129.466 199.229 131.474C204.092 133.483 209.506 136.395 214.369 134.236C217.878 132.679 219.933 128.311 218.931 124.595C220.435 123.892 222.24 123.741 223.844 124.193C223.844 119.373 221.538 114.954 220.034 110.385C218.53 105.815 217.878 100.392 220.736 96.5762C221.889 95.0196 223.593 93.7643 223.894 91.8562C224.496 87.9396 219.131 86.2826 215.171 86.132C213.617 82.6673 209.005 81.0102 205.596 82.7175C204.994 81.0604 204.442 79.4537 203.841 77.7966C201.585 77.9975 199.178 78.1482 197.123 77.2946C195.068 76.4409 193.363 74.0307 194.065 71.8716C200.883 68.9592 208.654 71.269 215.672 73.5788C215.672 65.846 203.089 61.8792 204.392 54.2468C201.785 55.703 198.326 53.4937 197.374 50.6818C196.421 47.8699 197.123 44.7566 197.875 41.8443C191.809 40.589 185.191 42.1958 180.329 46.0622C179.075 47.0665 177.872 48.2213 176.368 48.7737C173.761 49.7277 170.954 48.6231 168.247 48.3218C165.539 48.0205 162.03 49.075 161.729 51.8367C157.368 46.9158 157.368 38.7814 161.679 33.8103C164.787 33.6094 167.845 32.7558 170.603 31.3498C169.249 28.789 166.642 26.9814 163.785 26.5797C166.091 23.5669 168.397 20.6043 170.703 17.5916C166.592 16.5371 164.035 11.4656 165.64 7.4988C161.378 5.44007 156.866 3.33114 152.154 3.58221C144.083 4.03412 137.315 11.2648 129.243 10.9635C128.391 10.9635 127.539 10.8129 126.737 10.5116C125.533 10.1099 124.531 9.30645 123.578 8.55326C121.222 6.69539 118.866 4.88774 116.509 3.02987C114.003 1.07157 110.694 -0.987154 107.837 0.519228C107.736 2.22646 107.636 3.93372 107.536 5.64095C104.227 3.63244 99.3139 7.19753 100.166 10.9635C100.467 12.3694 101.419 13.675 101.269 15.1312C100.868 18.7967 95.4537 18.1439 91.794 18.1439C85.8783 18.1439 80.464 23.4163 80.3637 29.3414C80.3637 31.149 80.7146 33.1073 79.7621 34.6639C78.6091 36.572 76.1024 36.9737 73.9968 37.7771C67.5297 40.3881 64.8727 49.6273 68.9836 55.2512C69.8358 56.4061 70.8886 57.4605 71.2897 58.8162C72.0918 61.5779 69.9361 64.2392 68.2817 66.5992C66.6273 68.9592 65.6247 72.7252 67.9809 74.3822C63.2684 73.8801 58.3554 75.6375 55.0466 79.052C52.9411 79.1022 50.7853 79.2026 48.6798 79.2528C38.1519 86.132 34.793 101.949 41.5609 112.544C42.0622 113.297 42.6137 114.1 42.5636 115.004C42.5636 116.862 40.2575 117.866 38.4527 117.515C36.6479 117.163 35.0938 116.009 33.3391 115.456C26.5712 113.397 20.9563 120.729 17.6977 127.005C20.7057 126.101 25.5184 126.754 24.9168 129.817C24.6662 131.022 23.5632 131.826 22.5104 132.478C16.1436 136.345 8.62365 140.06 6.26741 147.14C4.61302 152.111 5.96661 157.685 4.31223 162.706C2.80824 167.326 -1.20238 171.745 0.351734 176.364C1.60505 176.515 2.80824 176.666 4.06156 176.816C6.06688 181.787 6.5682 187.361 5.36502 192.533C7.27006 190.926 9.17511 189.319 11.0802 187.712C9.17511 191.277 10.5788 195.646 11.9825 199.412C12.8849 201.822 13.7873 204.182 14.6897 206.592C17.3969 204.885 20.1041 203.128 22.711 201.27C20.8059 205.839 21.4075 211.413 24.2651 215.48C26.0699 206.291 40.6585 203.73 41.5108 194.441C43.0148 194.34 44.5187 195.495 44.8195 196.951C46.2734 195.696 47.4265 194.089 48.1784 192.282C51.4872 192.282 52.1389 197.102 50.8856 200.165C49.6323 203.228 47.5768 206.743 49.3315 209.505C52.4899 207.546 54.6957 204.032 54.9965 200.316C59.4082 203.027 61.7143 208.701 60.461 213.723C60.9623 215.028 62.0652 216.083 63.3687 216.635C65.0231 212.718 68.382 209.756 70.7883 206.241C73.1947 202.726 74.5483 197.705 71.9414 194.34C70.2369 192.131 66.8279 190.474 67.3292 187.712C68.031 183.645 76.5035 183.344 75.3003 179.377C78.6091 179.477 81.8677 181.034 84.1237 183.545C88.4852 180.632 87.4324 172.598 82.4192 170.991C80.5642 166.623 79.6619 159.945 84.2239 158.589C84.625 159.643 84.9759 160.698 85.377 161.803C87.5327 163.711 90.7913 161.451 92.9471 159.493C95.1028 157.534 99.1134 156.179 100.367 158.79C101.67 161.552 97.459 164.866 99.0633 167.477C99.9155 168.933 102.121 168.983 103.575 168.18C105.029 167.376 106.082 165.92 107.285 164.765C110.494 161.702 115.306 160.447 119.568 161.552C122.626 160.146 122.124 155.727 121.573 152.413C121.021 149.099 122.225 144.329 125.584 144.68C124.029 140.462 125.584 135.24 129.193 132.579C133.254 145.082 134.607 158.438 133.103 171.544C132.753 174.657 132.201 177.82 130.647 180.482C126.837 186.959 118.114 188.064 111.145 190.775C107.887 192.081 104.578 195.546 105.731 198.86C106.533 193.888 111.596 190.022 116.61 190.474C113.602 192.683 111.195 195.696 109.742 199.161C110.494 197.253 112.198 195.746 114.153 195.194C110.443 196.851 108.639 201.822 110.393 205.488C109.992 202.123 111.947 198.608 115.005 197.203C115.206 202.073 115.407 206.944 115.557 211.814L116.409 205.036C116.81 207.446 117.211 209.806 117.663 212.216C116.509 206.643 117.011 200.717 119.016 195.395C118.765 196.951 118.515 198.558 118.314 200.115C119.969 197.705 123.077 196.399 125.934 196.951C128.09 200.717 129.594 204.885 130.296 209.203C129.745 207.898 129.243 206.341 130.045 205.186C130.847 204.031 133.304 204.885 132.652 206.14C131.95 204.031 131.249 201.872 130.597 199.763C134.106 200.266 134.106 205.437 132.452 208.551C130.797 211.664 128.842 217.539 130.847 220.451C133.504 217.288 138.468 228.686 140.974 232C142.779 229.489 146.088 215.58 149.146 215.129C152.204 214.677 154.661 219.547 153.658 222.46C155.212 219.798 156.315 212.819 156.215 209.706C156.616 210.66 156.967 211.563 157.368 212.517C157.368 211.363 157.418 210.007 158.421 209.404C159.423 208.802 160.927 210.308 159.975 210.961C160.175 209.103 160.376 207.245 160.576 205.387C161.98 206.542 163.083 207.998 163.835 209.605C163.935 208.048 163.985 206.542 164.086 204.986C163.684 205.638 164.487 206.592 165.239 206.391C165.991 206.191 166.291 205.186 165.94 204.483C166.993 206.09 168.046 207.697 169.099 209.304C168.447 208.048 171.204 207.195 171.405 208.601C172.257 206.04 173.16 203.479 174.012 200.968C174.714 201.872 175.416 202.826 176.117 203.73C179.326 203.831 182.334 206.04 183.387 209.103C183.738 207.546 184.089 205.99 184.439 204.383C183.437 204.734 184.69 206.442 185.643 205.889C186.595 205.337 186.645 204.031 186.595 202.927C186.545 201.822 186.695 200.517 187.698 200.065C188.45 202.324 189.252 204.534 190.004 206.793C191.659 204.433 193.263 202.023 194.917 199.663C194.717 202.776 194.566 205.94 194.366 209.053C195.519 205.437 197.023 201.973 198.928 198.709C199.329 202.274 201.685 205.538 204.894 207.044C205.044 205.889 205.194 204.734 205.295 203.58C206.097 202.073 206.899 200.617 207.751 199.111C208.954 201.872 210.158 204.634 211.361 207.396C211.461 205.739 211.912 204.082 212.664 202.626C213.216 203.63 213.767 204.634 214.268 205.638C214.068 204.935 214.118 203.981 214.82 203.73C215.522 203.479 216.023 204.885 215.321 204.885C215.772 203.881 216.224 202.877 216.625 201.872C217.377 203.73 219.081 205.186 221.036 205.588C223.393 203.58 227.453 204.132 229.158 206.743C230.712 203.329 230.06 199.06 227.654 196.248C227.804 197.905 225.298 198.608 224.044 197.604C222.791 196.6 222.44 194.792 222.24 193.185C222.139 194.491 222.039 195.847 221.939 197.152C220.635 196.249 219.583 194.993 218.881 193.587C218.981 195.043 218.379 196.5 217.327 197.504C214.72 196.7 212.564 194.692 211.511 192.181C211.461 193.386 211.361 194.642 211.311 195.847C210.759 194.039 210.208 192.232 209.656 190.424C209.656 191.88 209.656 193.336 209.656 194.792C208.904 193.236 208.102 191.679 207.35 190.123C206.899 191.83 206.448 193.537 206.047 195.244C204.894 192.382 203.741 189.52 202.588 186.658L202.487 192.784L200.783 186.658C200.883 188.415 200.632 190.223 199.981 191.88C198.677 190.574 197.374 189.319 196.07 188.014L195.619 192.382C194.867 190.926 194.165 189.52 193.413 188.064C193.413 189.42 193.413 190.826 193.413 192.181C192.31 190.123 191.207 188.114 190.104 186.055L189.453 193.537L186.645 187.21C186.996 189.52 186.846 191.88 186.144 194.089C185.392 192.081 185.041 189.922 185.041 187.813L184.139 193.437C182.534 191.077 181.231 188.566 180.178 185.905L179.927 191.227C178.524 188.767 177.12 186.306 175.716 183.846L175.516 195.596C173.861 193.738 172.558 191.529 171.706 189.219C171.656 190.625 171.555 192.031 171.505 193.386C168.798 193.386 171.004 187.009 168.347 187.009C167.595 187.009 167.043 188.265 167.795 188.516C169.45 186.407 167.043 182.691 164.436 183.344C163.183 182.992 161.93 182.641 160.626 182.289C160.075 183.444 159.523 184.649 158.972 185.804C158.972 184.649 158.972 183.494 158.972 182.289C156.766 183.645 153.708 182.791 151.853 180.984C149.998 179.176 149.096 176.615 148.444 174.105C146.74 167.828 146.489 168.883 146.89 162.455C147.04 159.493 147.291 156.781 147.291 156.781L146.84 156.631Z" fill="var(--fill-0, #006838)"/>
</svg>
