<svg preserveAspectRatio="none" width="363" height="152.098" overflow="visible" style="display: block;" viewBox="0 0 363 152.098" fill="none" xmlns="http://www.w3.org/2000/svg">
<g id="Group" opacity="0.2">
<g id="Group_2">
<g id="Group_3">
<path id="Vector" d="M311.729 90.6653C312.171 89.4657 312.424 88.2029 312.424 86.9402C312.424 77.3433 298.975 69.388 281.232 67.557C281.8 66.0417 282.116 64.4633 282.116 62.8849C282.116 59.8543 280.979 56.9499 279.022 54.3613C281.8 54.677 284.641 54.8033 287.546 54.8033C313.56 54.8033 334.65 42.5546 334.65 27.4016C334.65 12.2487 313.56 2.05636e-06 287.546 2.05636e-06C261.532 2.05636e-06 240.443 12.2487 240.443 27.4016C240.443 32.8314 243.158 37.8193 247.767 42.1126C247.514 42.1126 247.325 42.1126 247.072 42.1126C242.147 42.1126 237.412 42.744 233.181 43.8174C233.181 43.2491 233.244 42.6809 233.244 42.1126C233.244 23.0452 208.493 7.63963 177.933 7.63963C147.372 7.63963 122.621 23.1083 122.621 42.1126C92.0602 42.1126 67.2456 50.7625 67.2456 61.4327C67.2456 63.5162 68.1927 65.5366 69.9607 67.4307C30.4342 69.1355 0 79.8057 0 92.7488C0 98.4943 5.93529 103.735 15.9748 108.028C14.8382 109.796 14.27 111.627 14.27 113.584C14.27 125.707 37.948 135.493 67.1825 135.493C89.1557 135.493 107.972 129.937 115.991 122.045C142.194 125.58 177.491 127.727 216.322 127.727C297.333 127.727 363 118.256 363 106.639C363 100.199 343.11 94.4536 311.792 90.6022L311.729 90.6653Z" fill="var(--fill-0, white)"/>
<path id="Vector_2" d="M193.907 152.098C223.549 152.098 247.578 148.395 247.578 143.827C247.578 139.259 223.549 135.556 193.907 135.556C164.266 135.556 140.237 139.259 140.237 143.827C140.237 148.395 164.266 152.098 193.907 152.098Z" fill="var(--fill-0, white)"/>
</g>
<g id="Group_4">
<path id="Vector_3" d="M361.8 109.417C352.708 119.835 291.019 127.853 216.322 127.853C177.491 127.853 142.258 125.707 115.991 122.171C107.972 130.063 89.1557 135.619 67.1825 135.619C37.948 135.619 14.3331 125.77 14.3331 113.71C14.3331 111.816 14.9014 109.922 16.0379 108.154C8.14525 104.808 2.77823 100.83 0.883985 96.474C10.5446 99.0626 22.9203 100.641 36.3695 100.641C39.9685 100.641 43.5044 100.515 46.9772 100.325C56.0064 106.955 74.0649 111.501 94.8384 111.501C108.54 111.501 121.042 109.543 130.576 106.26C132.408 112.827 146.488 118.004 163.599 118.004C173.386 118.004 182.163 116.362 188.225 113.71C190.877 114.531 193.781 115.036 196.875 115.036C204.831 115.036 211.713 111.879 215.123 107.334C222.321 113.71 237.033 118.067 254.018 118.067C266.962 118.067 278.58 115.541 286.599 111.501C296.323 113.774 308.004 115.099 320.569 115.099C336.417 115.099 350.94 113.016 361.863 109.543L361.8 109.417Z" fill="var(--fill-0, white)"/>
<path id="Vector_4" d="M247.514 143.827C247.514 148.373 223.521 152.098 193.844 152.098C164.168 152.098 141.437 148.562 140.237 144.206C140.237 144.08 140.237 143.953 140.237 143.89C140.237 139.344 164.231 135.619 193.907 135.619C210.387 135.619 225.099 136.756 234.949 138.523C242.842 139.976 247.578 141.807 247.578 143.827H247.514Z" fill="var(--fill-0, white)"/>
</g>
<path id="Vector_5" d="M234.886 138.523C231.098 143.511 208.051 147.363 180.206 147.363C164.483 147.363 150.34 146.163 140.3 144.143C140.3 144.016 140.3 143.89 140.3 143.827C140.3 139.281 164.294 135.556 193.97 135.556C210.45 135.556 225.162 136.692 235.012 138.46L234.886 138.523Z" fill="var(--fill-0, white)"/>
<path id="Vector_6" d="M293.986 86.5614C299.164 92.6226 302.132 100.388 302.511 108.344C308.888 106.323 315.518 104.997 322.021 104.177C334.018 102.661 346.331 102.156 358.391 103.04C359.275 103.103 360.095 103.167 360.979 103.23C355.234 98.2418 337.301 93.8222 311.729 90.6653C312.171 89.4657 312.424 88.203 312.424 86.9402C312.424 77.3433 298.975 69.388 281.232 67.557C281.8 66.0417 282.116 64.4633 282.116 62.8849C282.116 59.8543 280.979 56.9499 279.022 54.3613C281.8 54.677 284.641 54.8033 287.546 54.8033C313.56 54.8033 334.649 42.5546 334.649 27.4016C334.649 12.2487 313.56 4.10349e-06 287.546 4.10349e-06C261.532 4.10349e-06 240.442 12.2487 240.442 27.4016C240.442 32.8315 243.158 37.8193 247.767 42.1126C247.514 42.1126 247.325 42.1126 247.072 42.1126C242.147 42.1126 237.412 42.744 233.181 43.8174C233.181 43.2491 233.244 42.6809 233.244 42.1126C233.244 23.0452 208.493 7.63963 177.932 7.63963C147.372 7.63963 122.621 23.1083 122.621 42.1126C92.0602 42.1126 67.2456 50.7625 67.2456 61.4327C67.2456 63.5162 68.1927 65.5366 69.9607 67.4307C31.255 69.1355 1.13654 79.49 0.0631313 92.1175C4.10418 89.3394 8.33466 86.9402 12.6914 85.0461C20.6472 81.5104 29.487 78.6692 38.2005 77.9116C47.356 77.1539 56.701 76.7751 65.7302 78.4167C73.686 79.8688 81.705 81.6998 89.3451 84.4147C91.555 79.6163 94.7752 75.2598 98.8794 71.7872C106.835 65.0315 115.612 63.3268 125.715 63.3268C128.43 63.3268 131.145 63.8951 133.86 64.8421C133.86 64.337 133.86 63.8319 133.986 63.3268C134.87 53.9825 139.479 45.2064 146.614 39.1452C151.855 34.7256 157.475 32.4526 163.536 31.4424C164.862 31.0636 166.125 30.6848 167.388 30.3691C171.681 29.1695 176.228 29.422 180.584 29.2958C186.078 29.1063 192.076 30.4322 197.001 32.8314C202.179 35.3569 207.293 37.693 211.587 41.5444C215.312 44.9538 218.974 48.0476 222.131 51.7727C227.309 49.8786 232.802 49.3103 238.801 49.3103C247.767 49.3103 257.428 55.3715 262.984 61.9378C266.015 65.4735 268.288 69.6406 269.74 74.0602C278.706 74.0602 288.304 80.1214 293.923 86.6877L293.986 86.5614Z" fill="var(--fill-0, white)"/>
<path id="Vector_7" d="M109.298 96.4108C109.298 96.4108 132.85 123.244 150.529 96.4108C150.529 96.4108 131.713 113.395 109.298 96.4108Z" fill="var(--fill-0, white)"/>
<path id="Vector_8" d="M202.116 107.018C202.116 107.018 223.899 119.709 236.843 98.1786C236.843 98.1786 222.7 112.321 202.116 107.018Z" fill="var(--fill-0, white)"/>
<path id="Vector_9" d="M219.48 60.8013C219.48 60.8013 213.292 77.2802 166.756 77.2802C166.756 77.2802 215.312 87.8873 219.48 60.8013Z" fill="var(--fill-0, white)"/>
<path id="Vector_10" d="M207.988 73.1762C207.988 73.1762 223.142 65.6629 236.843 79.3637C236.843 79.3637 227.12 66.2943 198.453 76.9014L196.622 75.2598L207.988 73.2394V73.1762Z" fill="var(--fill-0, white)"/>
</g>
<path id="Vector_11" d="M34.6646 112.006C34.6646 112.006 74.3175 128.485 111.255 119.456C111.255 119.456 61.3735 148.12 34.6646 112.006Z" fill="var(--fill-0, white)"/>
<path id="Vector_12" d="M287.546 115.983C287.546 115.983 264.878 126.717 245.431 122.865C245.431 122.865 276.37 132.02 287.546 115.983Z" fill="var(--fill-0, white)"/>
</g>
</svg>
