<svg preserveAspectRatio="none" width="175" height="160" overflow="visible" style="display: block;" viewBox="0 0 175 160" fill="none" xmlns="http://www.w3.org/2000/svg">
<g id="Layer_1" clip-path="url(#clip0_0_63)">
<g id="Group">
<g id="Vector">
</g>
<path id="Vector_2" d="M170.676 75.9996C167.77 74.7847 164.829 73.6566 161.871 72.5805C157.875 40.7853 134.039 15.134 103.232 8.50418C102.99 7.35871 101.814 6.99425 100.776 6.78598C100.62 6.75127 100.465 6.78598 100.292 6.76863C99.444 6.89012 98.8732 6.54301 98.3024 5.83143C97.8007 5.39755 97.9564 4.94631 98.0775 4.40829C98.0775 4.33886 98.1121 4.20002 98.0948 4.11324C97.7488 1.9091 96.8148 2.93307 95.6212 3.60994C95.2407 3.55787 94.6526 2.96778 94.6007 3.76613C94.6699 4.02647 95.0677 3.92233 94.5834 4.39093C93.9434 4.7554 93.4936 3.67936 92.8017 3.8182C92.2136 3.83556 92.1444 4.35622 91.7985 4.7554C91.3487 5.15457 90.726 4.7554 90.2071 4.7554C89.7746 4.72068 89.3422 4.84217 89.1173 4.68597C88.7887 4.42564 88.806 3.87027 88.3908 3.67936C87.9238 3.5058 87.0762 3.41903 86.5746 3.71407C86.1767 3.90498 85.8654 4.68597 85.3637 4.70333C85.3464 4.70333 85.3291 4.70333 85.2945 4.70333C85.0524 4.70333 84.4297 4.63391 84.1529 4.89424C83.8761 5.15457 83.2534 5.51904 83.4437 5.84879C83.634 6.17854 83.7724 6.52565 83.7897 6.6645C83.7897 6.75127 83.7897 6.83805 83.7897 6.92483C47.309 8.71244 17.6436 36.7589 13.1289 72.5632C10.1883 73.6392 7.2477 74.7847 4.3244 75.9822C3.35574 76.3814 2.73302 77.3359 2.73302 78.3773V111.301C2.73302 112.168 3.16546 112.984 3.89196 113.453C4.3244 113.748 4.82604 113.887 5.32767 113.887C5.65632 113.887 6.00227 113.817 6.31363 113.696C10.0672 112.134 13.8554 110.693 17.6609 109.357C28.593 137.351 55.7675 157.223 87.4913 157.223C119.215 157.223 146.39 137.351 157.322 109.357C161.127 110.693 164.915 112.134 168.669 113.696C168.98 113.834 169.326 113.887 169.655 113.887C170.157 113.887 170.658 113.73 171.091 113.453C171.817 112.967 172.25 112.168 172.25 111.301V78.3773C172.25 77.3186 171.627 76.3814 170.658 75.9822L170.676 75.9996Z" fill="var(--fill-0, #78C38E)"/>
<g id="Group_2">
<path id="Vector_3" d="M113.905 130.53H60.0054V142.835H113.905V130.53Z" fill="var(--fill-0, #ADD2A3)"/>
<g id="Group_3">
<path id="Vector_4" d="M39.577 129.437C33.3152 123.068 28.2989 115.449 24.9432 106.979C45.1814 100.696 66.1461 97.503 87.5086 97.503C108.871 97.503 129.836 100.696 150.074 106.979C146.718 115.449 141.702 123.05 135.44 129.437C103.993 121.384 71.024 121.384 39.577 129.437Z" fill="var(--fill-0, white)"/>
<path id="Vector_5" d="M107.211 49.4978C107.384 49.5151 107.574 49.3936 107.747 49.3589C107.903 49.3416 107.954 49.4978 107.972 49.6193C108.11 50.1746 107.868 50.5912 107.332 50.6432H107.314C107.314 50.6432 107.228 50.5391 107.211 50.3829C107.176 50.1399 107.141 49.8622 107.107 49.6193C107.107 49.5325 107.124 49.4978 107.211 49.4978ZM140.284 48.2482C139.056 47.6234 137.654 46.9292 135.7 46.4606C132.085 45.6101 130.182 46.287 128.175 47.0333C126.74 47.554 125.269 48.092 122.882 48.144C122.139 48.1614 121.343 48.2308 120.495 48.3523C120.53 48.2655 120.582 48.1788 120.668 48.0746C120.253 47.6407 120.08 47.5192 120.564 47.0159C121.689 45.8011 120.478 44.1349 120.046 42.868C119.873 42.3647 119.302 42.1738 119.042 41.7572C118.887 40.8721 118.523 40.2473 117.624 39.8481C116.361 39.2754 117.572 39.1886 116.984 38.5465C116.724 38.1994 116.275 38.3556 115.981 38.1299C115.894 37.939 116.102 37.7308 116.223 37.5746H138.156C140.924 40.7506 143.415 44.187 145.559 47.8316C144.452 48.3002 143.397 48.7862 142.55 49.2374C141.771 48.9771 141.062 48.63 140.301 48.2482H140.284ZM93.6493 38.3556C93.7704 38.2341 93.9261 38.1647 94.0645 38.0952C94.3758 37.9564 94.7045 37.8175 95.0158 37.6787H95.085C95.1715 37.5746 95.3445 37.5572 95.4483 37.644C95.5521 37.7308 95.5867 37.887 95.5175 38.0085C95.4829 38.0605 95.4483 38.0952 95.431 38.1647C95.3445 38.3903 95.6558 38.7027 95.4656 38.8242C95.3791 38.8762 95.2926 38.8242 95.1888 38.8242C95.0331 38.8242 94.8948 38.9283 94.7391 38.9977C94.6007 39.0671 94.4104 39.1192 94.2893 39.0151C94.2201 38.963 94.1855 38.8762 94.1337 38.8068C93.978 38.668 93.7358 38.7374 93.5455 38.8242C93.4764 38.668 93.5282 38.4944 93.632 38.3556H93.6493ZM89.0136 45.6969C89.0482 44.6903 89.1001 43.111 89.3422 42.1738C89.4806 41.6531 90.3801 39.6746 91.0893 40.1605C91.4179 40.3862 91.3487 42.9721 91.6082 43.3366C92.7498 43.6663 92.7153 44.6382 92.6634 45.6102C92.7498 46.0267 92.9747 46.287 93.3899 45.9573C93.6147 45.9573 93.7358 46.53 93.8915 46.5473C94.6526 46.0614 94.6353 44.9506 94.8602 44.1349C95.085 43.9267 95.7769 43.8052 95.898 44.2738C96.0883 44.7944 95.431 45.3325 95.6732 45.7837C95.9153 46.0614 96.1748 46.287 96.2786 46.6688C96.538 47.363 97.3683 46.9465 97.8181 47.2936C99.2538 48.8209 99.2365 46.4779 100.395 46.4606C100.586 46.4779 100.845 46.6862 100.966 46.6688C101.156 46.7035 101.537 46.3044 101.641 46.6168C101.641 46.825 101.295 47.1895 101.485 47.4498C101.797 47.7969 101.554 48.1093 101.451 48.4912C101.381 49.0812 102.333 49.8449 101.762 50.3829C101.554 50.6085 101.295 50.7821 101.329 51.1292C101.329 51.3548 101.468 51.5631 101.693 51.3895C101.935 51.2333 101.935 50.5565 102.333 50.7474C103.042 51.3375 103.198 50.0705 103.838 50.0879C104.374 50.1746 103.941 50.7994 104.045 51.0945C104.841 51.7019 104.616 52.1879 104.045 52.8994C103.993 52.9862 103.924 53.073 103.872 53.1771C101.208 54.2011 99.2192 55.0342 98.5792 55.3119C97.3164 55.3119 95.3791 55.3119 93.165 55.3119C93.165 54.878 93.0093 54.2705 93.165 53.9755C93.4245 54.1317 93.632 54.1837 93.805 54.2879C94.0645 54.4614 94.2374 54.7044 94.1164 55.2598C94.9294 54.9821 94.0472 53.8887 94.0472 53.7672C94.0472 53.7672 94.2201 53.7672 94.3585 53.8713C94.4969 53.9755 94.618 54.097 94.618 54.097C94.618 54.097 94.618 53.7151 94.0991 53.4722C93.6666 53.2813 93.0093 52.3788 93.0093 52.3788C93.4591 52.292 94.8083 52.8994 94.9121 53.2986C94.9812 53.5763 94.8256 53.6631 94.9121 53.9408C94.9121 53.9928 95.1196 54.3052 95.5002 54.1837C95.5348 54.1837 95.2407 54.097 95.1715 53.6804C95.1023 53.316 95.258 52.9689 94.8083 52.7259C93.8742 52.0837 92.9228 51.9275 91.9888 51.5284C91.1066 51.1465 90.2417 50.7127 89.446 50.1226C89.1865 49.9317 89.0482 49.6366 89.0136 49.3242C88.9271 48.1267 88.9271 46.8945 88.979 45.6969H89.0136ZM85.1562 43.4581C85.5886 45.6275 85.4675 48.8903 83.4783 50.2961C82.4751 51.0077 82.4232 50.2614 81.714 50.2961C81.3507 50.2961 81.1086 50.6432 80.9356 50.6259C80.6242 50.5738 79.0155 48.9077 78.6004 48.7862C77.7701 48.5259 77.1128 48.925 76.4555 48.8556C76.1095 48.8209 75.5214 47.9705 74.6565 47.9531C74.4144 47.9531 74.1376 48.092 73.8608 48.092C70.6608 48.0573 67.6683 48.1614 64.6239 48.3697C63.0844 47.7622 61.6314 47.2069 59.4519 46.1655C59.1233 46.0093 58.7254 45.6275 58.3276 45.2457C57.653 44.6035 56.8746 43.8572 55.9059 43.6837C55.5427 43.6143 55.0929 43.5101 54.6086 43.406C52.9826 43.0415 50.9415 42.5903 49.575 42.8159C45.5965 43.5101 41.3413 43.8052 37.2245 44.1002C35.3217 44.2391 33.4017 44.3779 31.4817 44.5515C33.1076 42.1043 34.9066 39.7787 36.8266 37.5746H58.2584C58.3103 37.8523 58.4487 38.1647 58.8984 38.668C59.2098 39.6052 59.1406 40.3341 60.0746 40.9242C60.9568 42.0523 61.2336 43.5275 62.5482 44.3085C62.8942 44.9506 62.7039 45.9052 63.5169 46.2697C65.3158 47.068 65.5926 44.2391 66.7688 45.3325C67.8759 45.5928 67.0283 44.1349 67.6164 43.944C67.9624 43.944 68.1353 44.3258 68.4813 44.1523C69.0002 43.8225 69.3289 44.5168 69.7959 44.6382C70.73 44.6035 71.9235 44.2391 72.9095 44.2044C73.5322 44.2044 74.1376 44.6903 74.8987 44.3779C74.3279 43.3713 76.2998 42.2779 76.5593 43.406C76.6112 43.6316 76.4901 43.8572 76.542 44.0829C76.7495 45.0374 78.0469 45.506 78.9636 45.2978C79.1712 45.2457 80.1399 44.5688 80.1745 44.43C80.261 44.1349 79.8631 43.6143 80.0707 43.1283C80.0707 43.0936 80.6242 42.5382 80.6761 42.5209C80.8664 42.4167 81.1777 42.4862 81.2815 42.4167C81.4372 42.2953 81.3507 41.3581 82.008 41.5143C82.181 41.549 82.2848 41.8267 82.4405 41.8787C82.6999 41.9829 83.0632 41.9308 83.2362 42.0349C83.4264 42.1564 83.3572 42.6424 83.6513 42.7465C83.98 42.868 84.4297 42.5903 84.4816 42.625C84.5335 42.6424 85.1216 43.406 85.1389 43.4754L85.1562 43.4581ZM92.1963 54.3747C92.0925 54.0275 91.9023 53.9061 91.9023 53.9061C92.9055 53.6457 92.8017 54.4614 92.525 55.2424C92.525 55.2598 92.4904 55.2945 92.4731 55.3292C91.4698 55.3292 90.432 55.3292 89.3768 55.3292C89.3768 55.2424 89.3768 55.173 89.4114 55.1036C89.5844 54.7565 90.1033 54.8606 90.1379 54.6871C90.2763 54.1837 89.8438 53.3507 91.1758 53.8019C91.5909 53.9408 91.7985 54.3052 92.0406 54.5482C92.179 54.6871 92.3866 54.7912 92.5423 54.7738C92.5423 54.7738 92.3001 54.6523 92.1963 54.3573V54.3747ZM89.0828 55.3466C88.979 55.3466 88.8925 55.3466 88.7887 55.3466C88.7887 55.0862 88.806 54.8259 88.7022 54.4788C89.3249 54.2879 89.1692 54.8085 89.1 55.3466H89.0828Z" fill="var(--fill-0, white)"/>
<path id="Vector_6" d="M109.269 59.3383C108.94 58.9738 108.3 58.8871 108.3 58.3317C108.37 57.8457 108.283 57.1862 108.387 56.735C108.508 56.5094 109.113 56.9953 108.975 56.6135C108.889 56.2838 107.903 55.6763 108.56 55.5028C108.716 55.5722 108.785 55.7978 108.906 55.9019C109.061 56.0581 109.425 56.0755 109.58 56.3358C109.996 58.0019 108.837 57.8805 110.982 58.9044C111.881 58.8697 111.016 57.5854 111.345 57.0995C111.829 56.5094 112.902 56.3185 112.383 57.3771C112.123 57.8457 112.244 58.3143 111.967 58.7309C111.933 59.2515 112.331 59.9631 112.971 59.6854C113.628 59.5119 113.109 58.7135 113.542 58.6441C114.112 58.6267 114.06 59.5119 114.631 59.5292C115.185 59.7201 116.257 59.9284 116.205 59.0433C116.188 58.7309 115.877 58.1581 115.998 57.9152C116.275 57.4119 115.946 57.4292 115.531 57.4986C114.96 57.6895 113.784 57.1689 114.164 56.5094C114.528 56.3532 114.545 56.0234 114.752 55.6763C115.116 55.3986 115.6 54.9127 115.877 54.6697C116.084 54.5656 116.257 54.7565 116.448 54.8432C116.742 55.0168 117.261 54.9474 117.485 55.0689C117.658 55.3292 116.863 55.3118 116.724 55.468C115.929 56.1796 117.434 55.9019 117.779 55.954C117.987 56.0061 118.143 56.1449 118.316 56.249C119.354 56.8565 119.423 54.0623 119.855 53.5589C119.976 53.1945 119.578 52.8127 119.527 52.4482C119.492 51.8581 120.513 52.4308 120.443 51.7713C120.461 51.3027 120.495 50.9036 120.547 50.5044C121.395 50.3829 122.208 50.2961 122.934 50.2788C125.667 50.2093 127.38 49.5845 128.902 49.0292C130.753 48.3523 132.223 47.8143 135.215 48.5259C136.928 48.925 138.156 49.5498 139.35 50.1399C139.713 50.3308 140.076 50.5044 140.439 50.6779C138.035 52.8821 137.032 55.8325 134.057 57.9846C130.113 58.8871 124.872 58.8697 122.19 61.5598C122 61.7507 121.81 61.9069 121.62 62.0978C117.624 61.4557 113.593 60.935 109.546 60.5185C109.58 59.9805 109.926 59.7375 109.252 59.3383H109.269ZM104.824 58.9044C105.377 58.6441 105.031 59.6681 104.789 59.859C104.737 59.911 104.702 59.9631 104.668 60.0152C104.132 59.9631 103.647 59.911 103.249 59.859C100.776 59.5986 98.0429 58.9391 97.1434 58.4358C97.697 58.1061 98.3889 57.759 99.1154 57.4119L99.2364 57.3598C99.2364 57.3598 100.966 56.6135 103.474 55.6242C103.595 56.0234 103.82 56.44 104.149 56.6309C104.408 56.7697 104.72 56.6309 104.824 56.8218C104.824 57.0995 104.357 57.221 104.166 57.4119C103.18 58.2102 103.405 60.8135 104.824 58.8871V58.9044ZM52.5675 50.2961C48.7447 50.6085 44.9911 51.7366 41.2029 52.4656C36.7747 53.316 31.9487 53.5589 27.9703 51.4416C27.8492 51.3722 27.7108 51.3027 27.5897 51.2507C28.3508 49.7581 29.1638 48.2829 30.046 46.8424C32.4849 46.582 34.9585 46.3911 37.3802 46.2176C41.5489 45.9225 45.856 45.6101 49.9382 44.8986C50.9069 44.725 52.775 45.1589 54.1588 45.4539C54.6778 45.5754 55.1448 45.6796 55.5254 45.749C55.8886 45.8184 56.4075 46.3217 56.8746 46.7556C57.3935 47.2416 57.9297 47.7449 58.5524 48.0399C59.0714 48.2829 59.5557 48.5085 60.0054 48.6994C58.5351 48.8556 56.5113 49.3416 55.0756 49.7407C54.6432 49.8622 53.7091 50.1573 52.9307 50.2441C52.8615 50.2441 52.775 50.2441 52.7058 50.2441C52.654 50.2441 52.6021 50.2441 52.5675 50.2441V50.2961Z" fill="var(--fill-0, #E8DCC3)"/>
<path id="Vector_7" d="M112.625 27.9944C112.486 27.8729 112.4 27.7167 112.348 27.5778H127.31C130.511 29.9382 133.486 32.5762 136.236 35.4572H115.479C115.098 35.006 115.116 33.444 114.216 34.0861C114.009 34.277 113.87 34.3291 113.611 34.2944C111.864 34.7109 111.345 33.9299 112.175 32.3679C112.296 31.2051 112.469 29.9729 113.109 28.9316C113.334 28.515 113.005 28.1506 112.659 27.9596L112.625 27.9944ZM108.006 33.6349C108.006 33.3398 108.076 33.0448 108.248 32.8192C108.421 32.5762 108.716 32.42 108.992 32.5068C109.2 32.5762 109.356 32.7498 109.477 32.906C109.615 32.8192 109.788 33.0274 109.736 33.1836C109.684 33.3398 109.494 33.4093 109.338 33.4266C109.183 33.4266 109.01 33.4266 108.854 33.4613C108.698 33.5134 108.543 33.6696 108.594 33.8258C108.525 33.982 108.145 33.9646 108.006 33.6522V33.6349ZM98.337 29.4175C98.7175 29.1225 99.1499 28.8101 99.617 28.8448C99.79 28.8448 99.9629 28.9142 100.136 28.8621C100.24 28.8274 100.343 28.7406 100.447 28.7059C100.638 28.6365 100.862 28.7059 100.983 28.8968C101.191 29.2092 100.793 30.1638 100.465 30.2506C100.101 30.3547 99.9283 29.7299 99.5824 29.6258C99.4613 29.5911 99.3229 29.6258 99.1845 29.6258C98.8213 29.6952 98.1986 30.0076 98.0775 29.8167C98.0775 29.6431 98.2159 29.5216 98.337 29.4175ZM72.0273 27.5605C71.3008 28.3415 70.6954 28.6886 70.1245 27.5605H72.0273ZM47.7241 27.5605H61.1125C60.3341 27.734 60.4379 28.7406 60.1438 29.4175C60.0746 29.539 59.9535 29.1919 59.7633 29.244C59.5384 29.3134 59.4346 29.539 59.227 29.6258C57.6876 29.1919 57.5838 31.3093 58.2757 32.2464C59.0887 33.0969 58.8119 33.3398 57.9816 33.8779C57.8432 34.0688 57.947 34.4506 58.0335 34.7283C58.0681 34.9713 58.0162 35.2142 57.9989 35.4399H38.7986C41.5316 32.5588 44.5241 29.9208 47.7414 27.5605H47.7241Z" fill="var(--fill-0, white)"/>
<path id="Vector_8" d="M106.536 23.0481C106.692 22.8398 107.038 22.7704 107.193 22.5447C107.418 22.2497 107.141 21.8505 107.297 21.5208H117.399C119.751 22.7009 122.017 24.0026 124.214 25.4431H110.791C111.258 25.1307 111.708 24.853 111.051 24.558C109.373 24.5406 109.494 23.7249 108.352 23.3257C108.024 23.3778 107.903 23.9158 107.505 23.8811C107.141 23.8811 106.398 23.4646 106.536 23.0481ZM57.5665 21.5208H68.118C68.1526 21.6423 68.3775 21.6423 68.758 21.9894C69.6056 23.9505 70.2456 22.1976 72.7538 24.0894C73.1689 24.5233 73.3938 24.9919 73.4457 25.4431H64.7104C64.5028 25.2001 64.2261 25.0613 63.8282 25.1307C63.5514 25.1481 63.3439 24.8357 63.0671 24.9224C62.8941 25.0266 62.7039 25.2175 62.5136 25.4257H50.7339C52.9134 24.0026 55.1967 22.6836 57.5492 21.5034L57.5665 21.5208ZM83.7205 23.0133C83.9626 23.1001 84.274 23.1175 84.3605 23.3431C84.447 23.5166 84.6199 23.6728 84.6545 23.8638C84.6545 24.3324 83.928 24.7662 83.5821 24.9398C83.3399 25.0786 83.2707 25.4084 82.9767 25.3563C82.0772 25.0092 81.2988 23.4819 81.9388 22.8224C82.1637 22.5968 82.4923 22.51 82.7864 22.5621C83.1151 22.6315 83.3745 22.9092 83.7205 23.0133Z" fill="var(--fill-0, white)"/>
<path id="Vector_9" d="M169.672 111.318C165.607 109.634 161.491 108.09 157.356 106.649C156.837 106.476 156.319 106.285 155.8 106.111C154.848 105.782 153.88 105.486 152.928 105.174C152.288 104.966 151.631 104.758 150.974 104.549C130.303 98.1278 108.906 94.917 87.4913 94.917C66.0769 94.917 44.6797 98.1451 24.0091 104.567C23.3518 104.775 22.7118 104.983 22.0545 105.191C21.1031 105.504 20.1344 105.816 19.1831 106.129C18.6641 106.302 18.1452 106.493 17.6263 106.667C13.4921 108.09 9.37531 109.634 5.31037 111.335V78.412C7.78393 77.388 10.2921 76.4161 12.8002 75.4789C13.6997 75.1491 14.5819 74.802 15.4814 74.4896C16.5192 74.1252 17.5571 73.7781 18.5949 73.4136C19.3387 73.1533 20.0825 72.9103 20.809 72.6673C42.4656 65.5689 64.9698 62.0111 87.474 62.0111C93.459 62.0111 99.444 62.2714 105.412 62.7747C105.619 63.5731 106.259 63.8855 107.297 64.0417C107.972 63.816 107.193 63.2433 106.882 63.1045C106.865 63.035 106.847 62.9656 106.83 62.8962C107.505 62.9483 108.162 63.0177 108.837 63.0871C108.733 63.3301 108.543 63.5557 108.491 63.816C108.491 64.302 109.148 64.2846 109.511 64.2673C109.771 64.302 110.099 64.4582 110.307 64.5102C110.584 64.5276 110.428 64.1111 110.445 63.9375C110.445 63.7293 110.445 63.521 110.48 63.278C114.856 63.7466 119.215 64.3541 123.557 65.083C124.318 65.2218 125.096 65.3607 125.857 65.4995C126.653 65.6384 127.449 65.7946 128.245 65.9508C129.127 66.1243 129.992 66.2979 130.874 66.4888C131.531 66.6276 132.188 66.7665 132.846 66.9053C133.814 67.1136 134.766 67.3218 135.734 67.5475C136.253 67.6689 136.755 67.7904 137.274 67.9119C138.364 68.1723 139.436 68.4326 140.509 68.7103C140.699 68.7623 140.889 68.8144 141.079 68.8665C145.196 69.9425 149.296 71.1227 153.361 72.4417C153.62 72.5285 153.88 72.5979 154.139 72.6847C154.883 72.9276 155.627 73.188 156.353 73.431C157.391 73.7781 158.429 74.1252 159.467 74.507C160.366 74.8367 161.266 75.1665 162.148 75.4963C164.656 76.4334 167.147 77.388 169.638 78.4293V111.353L169.672 111.318Z" fill="var(--fill-0, white)"/>
<path id="Vector_10" d="M105.965 19.4034C105.879 18.8654 106.553 18.4489 106.553 17.9108C106.64 17.7199 106.709 17.5117 106.744 17.3034C108.785 17.9108 110.774 18.6224 112.729 19.4034H105.948H105.965ZM62.2714 19.4034C65.0909 18.2579 67.9969 17.3034 70.9894 16.5398C70.8856 16.6439 70.7992 16.748 70.7473 16.8695C70.851 18.067 69.6056 18.6571 68.8618 19.4034H62.2714ZM82.3886 15.672C82.1637 15.8282 81.9215 15.6373 81.6794 15.6199C81.2296 15.4984 80.7107 15.672 80.2437 15.5852C79.8804 15.5158 79.6382 15.2207 79.3442 14.9951C80.1226 14.9083 80.8837 14.8216 81.6621 14.7521C82.0426 14.9083 82.9594 15.1166 82.3713 15.6893L82.3886 15.672Z" fill="var(--fill-0, white)"/>
<path id="Vector_11" d="M87.5086 154.655C56.8573 154.655 30.6687 135.529 20.1171 108.541C21.0512 108.229 22.0026 107.916 22.9366 107.621C26.4654 116.542 31.7757 124.578 38.4353 131.259C38.4353 131.259 38.4526 131.277 38.4699 131.294C38.8504 131.676 39.2483 132.058 39.6288 132.44C39.698 132.509 39.7672 132.561 39.8364 132.63C40.6148 133.359 41.3932 134.088 42.2062 134.783C42.2235 134.783 42.2408 134.817 42.2581 134.835C42.6732 135.199 43.1057 135.564 43.5381 135.911C43.5727 135.945 43.6073 135.963 43.6419 135.997C44.4549 136.674 45.3025 137.316 46.15 137.959C46.2192 138.011 46.2711 138.045 46.3403 138.097C46.7728 138.427 47.2225 138.74 47.6722 139.052C47.7068 139.069 47.7414 139.104 47.776 139.121C48.6063 139.711 49.4539 140.267 50.3015 140.822C50.4398 140.909 50.5609 140.996 50.6993 141.065C51.1318 141.343 51.5642 141.603 51.9966 141.864C52.0831 141.916 52.1696 141.968 52.2561 142.02C53.0518 142.488 53.8475 142.94 54.6605 143.373C54.8853 143.495 55.0929 143.616 55.3178 143.721C55.7156 143.929 56.1308 144.154 56.5459 144.345C56.8227 144.484 57.1167 144.623 57.3935 144.762C57.9989 145.057 58.6216 145.352 59.2443 145.63C59.5557 145.769 59.867 145.907 60.1957 146.046C60.559 146.202 60.9222 146.359 61.2855 146.515C61.8736 146.758 62.4617 146.983 63.0498 147.209C63.3785 147.331 63.6898 147.452 64.0185 147.573C64.4336 147.73 64.8661 147.869 65.2812 148.025C65.5926 148.129 65.8866 148.233 66.198 148.337C66.8553 148.545 67.5126 148.754 68.1699 148.945C68.4467 149.031 68.7234 149.101 69.0002 149.188C69.5191 149.326 70.0553 149.483 70.5916 149.604C70.8164 149.656 71.0586 149.726 71.2835 149.778C71.9927 149.951 72.7192 150.107 73.4457 150.264C73.6878 150.316 73.93 150.368 74.1722 150.402C74.8122 150.524 75.4349 150.645 76.0749 150.75C76.2306 150.784 76.3863 150.802 76.5419 150.836C77.3203 150.958 78.0814 151.062 78.8598 151.166C79.0674 151.201 79.2923 151.218 79.4998 151.235C80.2263 151.322 80.9701 151.392 81.7139 151.461C81.8004 151.461 81.8696 151.461 81.9561 151.478C82.7691 151.548 83.5821 151.583 84.3951 151.635C84.6026 151.635 84.7929 151.635 85.0005 151.652C85.8308 151.687 86.6611 151.704 87.5086 151.704C88.3562 151.704 89.1865 151.687 90.0168 151.652C90.2244 151.652 90.4146 151.652 90.6222 151.635C91.4352 151.6 92.2655 151.548 93.0612 151.478C93.1477 151.478 93.2168 151.478 93.3033 151.461C94.0471 151.392 94.7736 151.322 95.5174 151.235C95.725 151.218 95.9499 151.183 96.1574 151.166C96.9358 151.062 97.7142 150.958 98.4753 150.836C98.631 150.819 98.7867 150.784 98.9424 150.75C99.5824 150.645 100.222 150.524 100.845 150.402C101.087 150.35 101.329 150.316 101.572 150.264C102.298 150.107 103.025 149.951 103.734 149.778C103.976 149.726 104.201 149.656 104.426 149.604C104.962 149.465 105.481 149.326 106.017 149.188C106.294 149.118 106.571 149.031 106.847 148.945C107.505 148.754 108.162 148.545 108.819 148.337C109.131 148.233 109.425 148.129 109.736 148.025C110.151 147.886 110.584 147.73 110.999 147.573C111.327 147.452 111.656 147.348 111.967 147.209C112.556 146.983 113.161 146.74 113.732 146.515C114.095 146.359 114.458 146.202 114.822 146.046C115.133 145.907 115.462 145.769 115.773 145.63C116.396 145.352 117.018 145.057 117.641 144.762C117.918 144.623 118.195 144.484 118.471 144.345C118.887 144.137 119.284 143.929 119.699 143.721C119.924 143.599 120.132 143.495 120.357 143.373C121.17 142.94 121.965 142.488 122.761 142.02C122.848 141.968 122.934 141.916 123.021 141.864C123.453 141.603 123.886 141.326 124.318 141.065C124.456 140.978 124.577 140.892 124.716 140.822C125.581 140.267 126.411 139.711 127.241 139.121C127.276 139.104 127.31 139.069 127.345 139.052C127.795 138.74 128.227 138.41 128.677 138.097C128.746 138.045 128.798 138.011 128.867 137.959C129.715 137.316 130.545 136.674 131.375 135.997C131.41 135.963 131.445 135.945 131.479 135.911C131.912 135.564 132.344 135.199 132.759 134.835C132.776 134.835 132.794 134.8 132.811 134.783C133.624 134.088 134.402 133.359 135.181 132.63C135.25 132.561 135.319 132.509 135.388 132.44C135.786 132.058 136.167 131.676 136.547 131.294C136.547 131.294 136.565 131.277 136.582 131.259C143.242 124.578 148.552 116.559 152.081 107.621C153.015 107.916 153.966 108.229 154.9 108.541C144.349 135.529 118.16 154.655 87.5086 154.655ZM104.184 11.3505C132.828 18.1191 154.883 41.9655 159.138 71.5913C158.083 71.2268 157.028 70.845 155.973 70.4979C155.869 69.9252 155.765 69.3524 155.644 68.7623C155.609 68.5714 155.575 68.3632 155.523 68.1723C155.35 67.2871 155.142 66.4194 154.935 65.5516C154.883 65.3433 154.831 65.135 154.779 64.9268C154.571 64.0764 154.329 63.2259 154.087 62.3929C154.018 62.1673 153.966 61.959 153.897 61.7334C153.655 60.9177 153.378 60.102 153.101 59.3036C153.015 59.078 152.946 58.8524 152.859 58.6267C152.582 57.8284 152.271 57.0474 151.96 56.2838C151.873 56.0581 151.787 55.8325 151.683 55.5895C151.371 54.8085 151.025 54.0449 150.68 53.2813C150.576 53.0556 150.489 52.8474 150.385 52.6218C150.022 51.8408 149.642 51.0598 149.244 50.2961C149.157 50.1226 149.071 49.9317 148.967 49.7581C148.535 48.925 148.068 48.092 147.601 47.2763C147.549 47.1895 147.514 47.1027 147.462 47.0159C138.588 31.7258 124.076 20.1323 106.813 15.0819C106.813 15.0819 106.813 15.0645 106.813 15.0472C106.432 14.4745 106.207 13.7802 105.775 13.2596C105.135 12.7736 103.959 12.4265 104.114 11.4372C104.114 11.4025 104.132 11.3678 104.149 11.3158L104.184 11.3505ZM90.8125 11.7496C90.9682 11.5067 91.0373 11.2984 91.1065 11.0554C91.1411 10.9339 91.1411 10.743 91.2795 10.691C91.366 10.6563 91.4871 10.743 91.5909 10.7951C91.833 10.8819 91.5736 10.3612 91.5909 10.2397C91.5909 9.89261 92.0233 9.89261 92.1098 10.1703C92.179 10.6215 92.1098 11.1596 92.1271 11.6282C92.1271 11.8885 92.1271 12.062 92.0406 12.1662C91.8157 12.3397 91.2968 12.2182 91.0546 12.3571C90.9336 12.3918 90.8298 12.4959 90.726 12.3918C90.6049 12.1662 90.7087 11.9579 90.8471 11.767L90.8125 11.7496ZM80.6242 9.71906C80.4339 10.1182 80.1399 10.6042 80.6934 10.7083C82.8902 10.4827 81.1431 10.9339 82.1464 11.6282C82.3367 12.0273 81.8523 12.3397 81.5928 12.6174C79.3442 12.8083 77.1128 13.1034 74.9333 13.5025C74.6738 13.329 74.4143 13.2075 74.1549 13.1554C72.9786 13.1207 72.6327 13.4852 72.477 14.0059C45.0776 20.0976 23.715 42.4862 19.0447 70.4805C17.9895 70.8276 16.9344 71.2095 15.8792 71.5739C20.6015 38.668 47.3263 12.8778 80.6242 9.71906Z" fill="var(--fill-0, #ADD2A3)"/>
<g id="Group_4">
<path id="Vector_12" d="M98.0602 136.501C98.0602 135.65 97.4029 134.956 96.3477 134.956C95.2926 134.956 94.6353 135.65 94.6353 136.501C94.6353 137.351 95.3099 138.045 96.3477 138.045C97.3856 138.045 98.0602 137.351 98.0602 136.501Z" fill="var(--fill-0, #006535)"/>
<path id="Vector_13" d="M170.676 75.9996C167.77 74.7847 164.829 73.6566 161.871 72.5805C157.875 40.7853 134.039 15.134 103.232 8.50418C102.99 7.35871 101.814 6.99425 100.776 6.78598C100.62 6.75127 100.465 6.78598 100.292 6.76863C99.444 6.89012 98.8732 6.54301 98.3024 5.83143C97.8007 5.39755 97.9564 4.94631 98.0775 4.40829C98.0775 4.33886 98.1121 4.20002 98.0948 4.11324C97.7488 1.9091 96.8148 2.93307 95.6212 3.60994C95.2407 3.55787 94.6526 2.96778 94.6007 3.76613C94.6699 4.02647 95.0677 3.92233 94.5834 4.39093C93.9434 4.7554 93.4936 3.67936 92.8017 3.8182C92.2136 3.83556 92.1444 4.35622 91.7985 4.7554C91.3487 5.15457 90.726 4.7554 90.2071 4.7554C89.7746 4.72068 89.3422 4.84217 89.1173 4.68597C88.7887 4.42564 88.806 3.87027 88.3908 3.67936C87.9238 3.5058 87.0762 3.41903 86.5746 3.71407C86.1767 3.90498 85.8654 4.68597 85.3637 4.70333C85.3464 4.70333 85.3291 4.70333 85.2945 4.70333C85.0524 4.70333 84.4297 4.63391 84.1529 4.89424C83.8761 5.15457 83.2534 5.51904 83.4437 5.84879C83.634 6.17854 83.7724 6.52565 83.7897 6.6645C83.7897 6.75127 83.7897 6.83805 83.7897 6.92483C47.309 8.71244 17.6436 36.7589 13.1289 72.5632C10.1883 73.6392 7.2477 74.7847 4.3244 75.9822C3.35574 76.3814 2.73302 77.3359 2.73302 78.3773V111.301C2.73302 112.168 3.16546 112.984 3.89196 113.453C4.3244 113.748 4.82604 113.887 5.32767 113.887C5.65632 113.887 6.00227 113.817 6.31363 113.696C10.0672 112.134 13.8554 110.693 17.6609 109.357C28.593 137.351 55.7675 157.223 87.4913 157.223C119.215 157.223 146.39 137.351 157.322 109.357C161.127 110.693 164.915 112.134 168.669 113.696C168.98 113.834 169.326 113.887 169.655 113.887C170.157 113.887 170.658 113.73 171.091 113.453C171.817 112.967 172.25 112.168 172.25 111.301V78.3773C172.25 77.3186 171.627 76.3814 170.658 75.9822L170.676 75.9996ZM104.184 11.3505C132.828 18.1191 154.883 41.9655 159.138 71.5913C158.083 71.2268 157.028 70.845 155.973 70.4979C155.869 69.9251 155.765 69.3524 155.644 68.7623C155.609 68.5714 155.575 68.3632 155.523 68.1722C155.35 67.2871 155.142 66.4193 154.935 65.5516C154.883 65.3433 154.831 65.135 154.779 64.9268C154.572 64.0764 154.329 63.2259 154.087 62.3929C154.018 62.1673 153.966 61.959 153.897 61.7334C153.655 60.9177 153.378 60.102 153.101 59.3036C153.015 59.078 152.946 58.8524 152.859 58.6267C152.582 57.8284 152.271 57.0474 151.96 56.2838C151.873 56.0581 151.787 55.8325 151.683 55.5895C151.371 54.8085 151.025 54.0449 150.68 53.2813C150.576 53.0556 150.489 52.8474 150.385 52.6217C150.022 51.8408 149.642 51.0598 149.244 50.2961C149.157 50.1226 149.071 49.9317 148.967 49.7581C148.535 48.925 148.068 48.092 147.601 47.2763C147.549 47.1895 147.514 47.1027 147.462 47.0159C138.589 31.7258 124.076 20.1323 106.813 15.0819C106.813 15.0819 106.813 15.0645 106.813 15.0472C106.432 14.4745 106.207 13.7802 105.775 13.2596C105.135 12.7736 103.959 12.4265 104.114 11.4372C104.114 11.4025 104.132 11.3678 104.149 11.3158L104.184 11.3505ZM109.269 59.3383C108.94 58.9738 108.3 58.8871 108.3 58.3317C108.37 57.8457 108.283 57.1862 108.387 56.735C108.508 56.5094 109.113 56.9953 108.975 56.6135C108.888 56.2837 107.903 55.6763 108.56 55.5028C108.716 55.5722 108.785 55.7978 108.906 55.9019C109.061 56.0581 109.425 56.0755 109.58 56.3358C109.996 58.0019 108.837 57.8805 110.982 58.9044C111.881 58.8697 111.016 57.5854 111.345 57.0995C111.829 56.5094 112.902 56.3185 112.383 57.3771C112.123 57.8457 112.244 58.3143 111.967 58.7309C111.933 59.2515 112.331 59.9631 112.971 59.6854C113.628 59.5119 113.109 58.7135 113.542 58.6441C114.112 58.6267 114.06 59.5119 114.631 59.5292C115.185 59.7201 116.257 59.9284 116.205 59.0433C116.188 58.7309 115.877 58.1581 115.998 57.9152C116.275 57.4119 115.946 57.4292 115.531 57.4986C114.96 57.6895 113.784 57.1689 114.164 56.5094C114.528 56.3532 114.545 56.0234 114.752 55.6763C115.116 55.3986 115.6 54.9127 115.877 54.6697C116.084 54.5656 116.257 54.7565 116.448 54.8432C116.742 55.0168 117.261 54.9474 117.485 55.0689C117.658 55.3292 116.863 55.3118 116.724 55.468C115.929 56.1796 117.434 55.9019 117.779 55.954C117.987 56.0061 118.143 56.1449 118.316 56.249C119.354 56.8565 119.423 54.0623 119.855 53.5589C119.976 53.1945 119.578 52.8127 119.527 52.4482C119.492 51.8581 120.512 52.4308 120.443 51.7713C120.461 51.3027 120.495 50.9036 120.547 50.5044C121.395 50.3829 122.208 50.2961 122.934 50.2788C125.667 50.2093 127.38 49.5845 128.902 49.0292C130.753 48.3523 132.223 47.8143 135.215 48.5259C136.928 48.925 138.156 49.5498 139.35 50.1399C139.713 50.3308 140.076 50.5044 140.439 50.6779C138.035 52.8821 137.032 55.8325 134.057 57.9846C130.113 58.8871 124.871 58.8697 122.19 61.5598C122 61.7507 121.81 61.9069 121.62 62.0978C117.624 61.4557 113.593 60.935 109.546 60.5185C109.58 59.9805 109.926 59.7375 109.252 59.3383H109.269ZM106.536 23.048C106.692 22.8398 107.038 22.7704 107.193 22.5447C107.418 22.2497 107.141 21.8505 107.297 21.5208H117.399C119.751 22.7009 122.017 24.0026 124.214 25.4431H110.791C111.258 25.1307 111.708 24.853 111.051 24.558C109.373 24.5406 109.494 23.7249 108.352 23.3257C108.024 23.3778 107.903 23.9158 107.505 23.8811C107.141 23.8811 106.398 23.4646 106.536 23.048ZM105.965 19.4034C105.879 18.8654 106.553 18.4489 106.553 17.9108C106.64 17.7199 106.709 17.5117 106.744 17.3034C108.785 17.9108 110.774 18.6224 112.729 19.4034H105.948H105.965ZM112.625 27.9944C112.486 27.8729 112.4 27.7167 112.348 27.5778H127.31C130.511 29.9382 133.486 32.5762 136.236 35.4572H115.479C115.098 35.006 115.116 33.444 114.216 34.0861C114.009 34.277 113.87 34.3291 113.611 34.2944C111.864 34.7109 111.345 33.9299 112.175 32.3679C112.296 31.2051 112.469 29.9729 113.109 28.9316C113.334 28.515 113.005 28.1506 112.659 27.9596L112.625 27.9944ZM107.211 49.4978C107.384 49.5151 107.574 49.3936 107.747 49.3589C107.903 49.3416 107.954 49.4978 107.972 49.6193C108.11 50.1746 107.868 50.5912 107.332 50.6432H107.314C107.314 50.6432 107.228 50.5391 107.211 50.3829C107.176 50.1399 107.141 49.8622 107.107 49.6193C107.107 49.5325 107.124 49.4978 107.211 49.4978ZM108.006 33.6349C108.006 33.3398 108.076 33.0448 108.248 32.8192C108.421 32.5762 108.716 32.42 108.992 32.5068C109.2 32.5762 109.356 32.7497 109.477 32.9059C109.615 32.8192 109.788 33.0274 109.736 33.1836C109.684 33.3398 109.494 33.4093 109.338 33.4266C109.183 33.4266 109.01 33.4266 108.854 33.4613C108.698 33.5134 108.543 33.6696 108.594 33.8258C108.525 33.982 108.145 33.9646 108.006 33.6522V33.6349ZM140.284 48.2482C139.056 47.6234 137.654 46.9292 135.7 46.4606C132.085 45.6101 130.182 46.287 128.175 47.0333C126.74 47.554 125.269 48.092 122.882 48.144C122.138 48.1614 121.343 48.2308 120.495 48.3523C120.53 48.2655 120.582 48.1788 120.668 48.0746C120.253 47.6407 120.08 47.5192 120.564 47.0159C121.689 45.8011 120.478 44.1349 120.045 42.868C119.872 42.3647 119.302 42.1738 119.042 41.7572C118.887 40.8721 118.523 40.2473 117.624 39.8481C116.361 39.2754 117.572 39.1886 116.984 38.5465C116.724 38.1994 116.275 38.3556 115.981 38.1299C115.894 37.939 116.102 37.7308 116.223 37.5746H138.156C140.924 40.7506 143.415 44.187 145.559 47.8316C144.452 48.3002 143.397 48.7862 142.55 49.2374C141.771 48.9771 141.062 48.63 140.301 48.2482H140.284ZM104.824 58.9044C105.377 58.6441 105.031 59.6681 104.789 59.859C104.737 59.911 104.702 59.9631 104.668 60.0152C104.132 59.9631 103.647 59.911 103.249 59.859C100.776 59.5987 98.0429 58.9391 97.1434 58.4358C97.6969 58.1061 98.3888 57.759 99.1153 57.4119L99.2364 57.3598C99.2364 57.3598 100.966 56.6135 103.474 55.6242C103.595 56.0234 103.82 56.44 104.149 56.6309C104.408 56.7697 104.72 56.6309 104.824 56.8218C104.824 57.0995 104.357 57.2209 104.166 57.4119C103.18 58.2102 103.405 60.8135 104.824 58.8871V58.9044ZM98.3369 29.4175C98.7175 29.1225 99.1499 28.8101 99.617 28.8448C99.79 28.8448 99.9629 28.9142 100.136 28.8621C100.24 28.8274 100.343 28.7406 100.447 28.7059C100.638 28.6365 100.862 28.7059 100.983 28.8968C101.191 29.2092 100.793 30.1638 100.465 30.2506C100.101 30.3547 99.9283 29.7299 99.5824 29.6258C99.4613 29.5911 99.3229 29.6258 99.1845 29.6258C98.8213 29.6952 98.1986 30.0076 98.0775 29.8167C98.0775 29.6431 98.2159 29.5216 98.3369 29.4175ZM93.6493 38.3556C93.7704 38.2341 93.9261 38.1647 94.0644 38.0952C94.3758 37.9564 94.7045 37.8175 95.0158 37.6787H95.085C95.1715 37.5746 95.3445 37.5572 95.4482 37.644C95.552 37.7308 95.5866 37.887 95.5174 38.0085C95.4828 38.0605 95.4482 38.0952 95.4309 38.1647C95.3445 38.3903 95.6558 38.7027 95.4655 38.8242C95.3791 38.8762 95.2926 38.8242 95.1888 38.8242C95.0331 38.8242 94.8947 38.9283 94.739 38.9977C94.6007 39.0671 94.4104 39.1192 94.2893 39.0151C94.2201 38.963 94.1855 38.8762 94.1336 38.8068C93.9779 38.668 93.7358 38.7374 93.5455 38.8242C93.4763 38.668 93.5282 38.4944 93.632 38.3556H93.6493ZM90.8125 11.7496C90.9682 11.5067 91.0374 11.2984 91.1065 11.0554C91.1411 10.9339 91.1411 10.743 91.2795 10.691C91.366 10.6563 91.4871 10.743 91.5909 10.7951C91.833 10.8819 91.5736 10.3612 91.5909 10.2397C91.5909 9.89261 92.0233 9.89261 92.1098 10.1703C92.179 10.6215 92.1098 11.1596 92.1271 11.6282C92.1271 11.8885 92.1271 12.062 92.0406 12.1662C91.8157 12.3397 91.2968 12.2182 91.0547 12.3571C90.9336 12.3918 90.8298 12.4959 90.726 12.3918C90.6049 12.1662 90.7087 11.9579 90.8471 11.767L90.8125 11.7496ZM89.0135 45.6969C89.0481 44.6903 89.1 43.111 89.3422 42.1738C89.4806 41.6531 90.38 39.6746 91.0892 40.1605C91.4179 40.3862 91.3487 42.9721 91.6082 43.3366C92.7498 43.6663 92.7152 44.6382 92.6633 45.6101C92.7498 46.0267 92.9747 46.287 93.3898 45.9573C93.6147 45.9573 93.7358 46.53 93.8915 46.5473C94.6526 46.0614 94.6353 44.9506 94.8601 44.1349C95.085 43.9267 95.7769 43.8052 95.898 44.2738C96.0883 44.7944 95.431 45.3325 95.6731 45.7837C95.9153 46.0614 96.1747 46.287 96.2785 46.6688C96.538 47.363 97.3683 46.9465 97.818 47.2936C99.2537 48.8209 99.2364 46.4779 100.395 46.4606C100.586 46.4779 100.845 46.6862 100.966 46.6688C101.156 46.7035 101.537 46.3044 101.641 46.6168C101.641 46.825 101.295 47.1895 101.485 47.4498C101.796 47.7969 101.554 48.1093 101.451 48.4912C101.381 49.0812 102.333 49.8449 101.762 50.3829C101.554 50.6085 101.295 50.7821 101.329 51.1292C101.329 51.3548 101.468 51.5631 101.693 51.3895C101.935 51.2333 101.935 50.5564 102.333 50.7474C103.042 51.3374 103.198 50.0705 103.838 50.0879C104.374 50.1746 103.941 50.7994 104.045 51.0945C104.841 51.7019 104.616 52.1879 104.045 52.8994C103.993 52.9862 103.924 53.073 103.872 53.1771C101.208 54.2011 99.2191 55.0342 98.5791 55.3118C97.3164 55.3118 95.3791 55.3118 93.165 55.3118C93.165 54.878 93.0093 54.2705 93.165 53.9755C93.4244 54.1317 93.632 54.1837 93.805 54.2879C94.0644 54.4614 94.2374 54.7044 94.1163 55.2598C94.9293 54.9821 94.0471 53.8887 94.0471 53.7672C94.0471 53.7672 94.2201 53.7672 94.3585 53.8713C94.4969 53.9755 94.618 54.097 94.618 54.097C94.618 54.097 94.618 53.7151 94.099 53.4722C93.6666 53.2813 93.0093 52.3788 93.0093 52.3788C93.459 52.292 94.8082 52.8994 94.912 53.2986C94.9812 53.5763 94.8255 53.6631 94.912 53.9408C94.912 53.9928 95.1196 54.3052 95.5001 54.1837C95.5347 54.1837 95.2407 54.097 95.1715 53.6804C95.1023 53.316 95.258 52.9689 94.8082 52.7259C93.8742 52.0837 92.9228 51.9275 91.9887 51.5284C91.1065 51.1465 90.2417 50.7126 89.446 50.1226C89.1865 49.9317 89.0481 49.6366 89.0135 49.3242C88.927 48.1267 88.927 46.8944 88.9789 45.6969H89.0135ZM92.1963 54.3747C92.0925 54.0275 91.9022 53.9061 91.9022 53.9061C92.9055 53.6457 92.8017 54.4614 92.525 55.2424C92.525 55.2598 92.4904 55.2945 92.4731 55.3292C91.4698 55.3292 90.4319 55.3292 89.3768 55.3292C89.3768 55.2424 89.3768 55.173 89.4114 55.1036C89.5844 54.7565 90.1033 54.8606 90.1379 54.687C90.2763 54.1837 89.8438 53.3507 91.1757 53.8019C91.5909 53.9408 91.7984 54.3052 92.0406 54.5482C92.179 54.6871 92.3866 54.7912 92.5422 54.7738C92.5422 54.7738 92.3001 54.6523 92.1963 54.3573V54.3747ZM89.0827 55.3466C88.9789 55.3466 88.8925 55.3466 88.7887 55.3466C88.7887 55.0862 88.806 54.8259 88.7022 54.4788C89.3249 54.2879 89.1692 54.8085 89.1 55.3466H89.0827ZM87.4913 58.6615C87.5951 58.2796 87.4049 57.8631 87.6297 57.4639C90.2244 56.6829 94.3931 56.4573 96.2785 56.9606C95.3791 57.6201 95.431 58.4011 95.4828 58.6615C95.552 59.0086 95.8461 59.3036 96.2439 59.5813C93.3379 59.4598 90.4146 59.3557 87.4913 59.3904H87.3011C87.353 59.1821 87.4049 58.9391 87.474 58.6615H87.4913ZM85.1562 43.4581C85.5886 45.6275 85.4675 48.8903 83.4783 50.2961C82.475 51.0077 82.4231 50.2614 81.7139 50.2961C81.3507 50.2961 81.1085 50.6432 80.9355 50.6259C80.6242 50.5738 79.0155 48.9077 78.6004 48.7862C77.7701 48.5259 77.1128 48.925 76.4555 48.8556C76.1095 48.8209 75.5214 47.9705 74.6565 47.9531C74.4143 47.9531 74.1376 48.092 73.8608 48.092C70.6608 48.0573 67.6683 48.1614 64.6239 48.3697C63.0844 47.7622 61.6314 47.2068 59.4519 46.1655C59.1233 46.0093 58.7254 45.6275 58.3276 45.2457C57.653 44.6035 56.8746 43.8572 55.9059 43.6837C55.5426 43.6143 55.0929 43.5101 54.6086 43.406C52.9826 43.0415 50.9415 42.5903 49.575 42.8159C45.5965 43.5101 41.3413 43.8052 37.2245 44.1002C35.3217 44.2391 33.4017 44.3779 31.4817 44.5515C33.1076 42.1043 34.9066 39.7787 36.8266 37.5746H58.2584C58.3103 37.8523 58.4486 38.1647 58.8984 38.668C59.2097 39.6052 59.1405 40.3341 60.0746 40.9242C60.9568 42.0523 61.2336 43.5275 62.5482 44.3085C62.8941 44.9506 62.7039 45.9052 63.5168 46.2697C65.3158 47.068 65.5926 44.2391 66.7688 45.3325C67.8758 45.5928 67.0283 44.1349 67.6164 43.944C67.9623 43.944 68.1353 44.3258 68.4813 44.1523C69.0002 43.8225 69.3288 44.5167 69.7959 44.6382C70.73 44.6035 71.9235 44.2391 72.9095 44.2044C73.5322 44.2044 74.1376 44.6903 74.8987 44.3779C74.3279 43.3713 76.2998 42.2779 76.5592 43.406C76.6111 43.6316 76.4901 43.8572 76.542 44.0829C76.7495 45.0374 78.0468 45.506 78.9636 45.2977C79.1712 45.2457 80.1399 44.5688 80.1745 44.43C80.2609 44.1349 79.8631 43.6143 80.0707 43.1283C80.0707 43.0936 80.6242 42.5382 80.6761 42.5209C80.8664 42.4167 81.1777 42.4862 81.2815 42.4167C81.4372 42.2953 81.3507 41.3581 82.008 41.5143C82.181 41.549 82.2848 41.8267 82.4404 41.8787C82.6999 41.9829 83.0632 41.9308 83.2361 42.0349C83.4264 42.1564 83.3572 42.6424 83.6513 42.7465C83.9799 42.868 84.4297 42.5903 84.4816 42.625C84.5335 42.6424 85.1216 43.406 85.1389 43.4754L85.1562 43.4581ZM52.5675 50.2961C48.7447 50.6085 44.9911 51.7366 41.2029 52.4656C36.7747 53.316 31.9487 53.5589 27.9702 51.4416C27.8492 51.3722 27.7108 51.3027 27.5897 51.2507C28.3508 49.7581 29.1638 48.2829 30.046 46.8424C32.4849 46.582 34.9585 46.3911 37.3802 46.2176C41.5489 45.9225 45.856 45.6101 49.9382 44.8986C50.9069 44.725 52.775 45.1589 54.1588 45.4539C54.6778 45.5754 55.1448 45.6796 55.5253 45.749C55.8886 45.8184 56.4075 46.3217 56.8746 46.7556C57.3935 47.2416 57.9297 47.7449 58.5524 48.0399C59.0714 48.2829 59.5557 48.5085 60.0054 48.6994C58.5351 48.8556 56.5113 49.3416 55.0756 49.7407C54.6432 49.8622 53.7091 50.1573 52.9307 50.2441C52.8615 50.2441 52.775 50.2441 52.7058 50.2441C52.6539 50.2441 52.6021 50.2441 52.5675 50.2441V50.2961ZM57.5665 21.5208H68.118C68.1526 21.6423 68.3775 21.6423 68.758 21.9894C69.6056 23.9505 70.2456 22.1976 72.7538 24.0894C73.1689 24.5233 73.3938 24.9919 73.4457 25.4431H64.7104C64.5028 25.2001 64.2261 25.0613 63.8282 25.1307C63.5514 25.1481 63.3439 24.8357 63.0671 24.9224C62.8941 25.0266 62.7039 25.2175 62.5136 25.4257H50.7339C52.9134 24.0026 55.1967 22.6836 57.5492 21.5034L57.5665 21.5208ZM62.2714 19.4034C65.0909 18.2579 67.9969 17.3034 70.9894 16.5398C70.8856 16.6439 70.7991 16.748 70.7473 16.8695C70.851 18.067 69.6056 18.6571 68.8618 19.4034H62.2714ZM72.0273 27.5605C71.3008 28.3415 70.6954 28.6886 70.1245 27.5605H72.0273ZM47.7241 27.5605H61.1125C60.3341 27.734 60.4379 28.7406 60.1438 29.4175C60.0746 29.539 59.9535 29.1919 59.7633 29.2439C59.5384 29.3134 59.4346 29.539 59.227 29.6258C57.6876 29.1919 57.5838 31.3092 58.2757 32.2464C59.0887 33.0969 58.8119 33.3398 57.9816 33.8779C57.8432 34.0688 57.947 34.4506 58.0335 34.7283C58.0681 34.9712 58.0162 35.2142 57.9989 35.4398H38.7986C41.5316 32.5588 44.5241 29.9208 47.7414 27.5605H47.7241ZM83.7205 23.0133C83.9626 23.1001 84.274 23.1175 84.3605 23.3431C84.447 23.5166 84.6199 23.6728 84.6545 23.8638C84.6545 24.3324 83.928 24.7662 83.5821 24.9398C83.3399 25.0786 83.2707 25.4084 82.9767 25.3563C82.0772 25.0092 81.2988 23.4819 81.9388 22.8224C82.1637 22.5968 82.4923 22.51 82.7864 22.5621C83.115 22.6315 83.3745 22.9092 83.7205 23.0133ZM82.3885 15.672C82.1637 15.8282 81.9215 15.6373 81.6793 15.6199C81.2296 15.4984 80.7107 15.672 80.2436 15.5852C79.8804 15.5158 79.6382 15.2207 79.3442 14.9951C80.1226 14.9083 80.8837 14.8216 81.662 14.7521C82.0426 14.9083 82.9594 15.1166 82.3712 15.6893L82.3885 15.672ZM80.6242 9.71906C80.4339 10.1182 80.1399 10.6042 80.6934 10.7083C82.8902 10.4827 81.1431 10.9339 82.1464 11.6282C82.3367 12.0273 81.8523 12.3397 81.5929 12.6174C79.3442 12.8083 77.1128 13.1034 74.9333 13.5025C74.6738 13.329 74.4143 13.2075 74.1549 13.1554C72.9786 13.1207 72.6327 13.4852 72.477 14.0059C45.0776 20.0976 23.715 42.4862 19.0447 70.4805C17.9895 70.8276 16.9344 71.2095 15.8792 71.5739C20.6015 38.668 47.3263 12.8778 80.6242 9.71906ZM87.5086 154.654C56.8573 154.654 30.6687 135.529 20.1171 108.541C21.0512 108.229 22.0026 107.916 22.9366 107.621C26.4654 116.542 31.7757 124.577 38.4353 131.259C38.4353 131.259 38.4526 131.277 38.4699 131.294C38.8504 131.676 39.2483 132.058 39.6288 132.439C39.698 132.509 39.7672 132.561 39.8364 132.63C40.6148 133.359 41.3932 134.088 42.2062 134.782C42.2235 134.782 42.2408 134.817 42.2581 134.835C42.6732 135.199 43.1057 135.563 43.5381 135.911C43.5727 135.945 43.6073 135.963 43.6419 135.997C44.4549 136.674 45.3025 137.316 46.15 137.959C46.2192 138.011 46.2711 138.045 46.3403 138.097C46.7728 138.427 47.2225 138.74 47.6722 139.052C47.7068 139.069 47.7414 139.104 47.776 139.121C48.6063 139.711 49.4539 140.267 50.3015 140.822C50.4399 140.909 50.5609 140.996 50.6993 141.065C51.1318 141.343 51.5642 141.603 51.9966 141.864C52.0831 141.916 52.1696 141.968 52.2561 142.02C53.0518 142.488 53.8475 142.94 54.6605 143.373C54.8853 143.495 55.0929 143.616 55.3178 143.721C55.7156 143.929 56.1308 144.154 56.5459 144.345C56.8227 144.484 57.1167 144.623 57.3935 144.762C57.9989 145.057 58.6216 145.352 59.2443 145.63C59.5557 145.769 59.867 145.907 60.1957 146.046C60.559 146.202 60.9222 146.359 61.2855 146.515C61.8736 146.758 62.4617 146.983 63.0498 147.209C63.3785 147.33 63.6898 147.452 64.0185 147.573C64.4336 147.73 64.8661 147.869 65.2812 148.025C65.5926 148.129 65.8866 148.233 66.198 148.337C66.8553 148.545 67.5126 148.754 68.1699 148.945C68.4467 149.031 68.7234 149.101 69.0002 149.188C69.5191 149.326 70.0553 149.483 70.5916 149.604C70.8164 149.656 71.0586 149.726 71.2835 149.778C71.9927 149.951 72.7192 150.107 73.4457 150.264C73.6878 150.316 73.93 150.368 74.1722 150.402C74.8122 150.524 75.4349 150.645 76.0749 150.75C76.2306 150.784 76.3863 150.802 76.542 150.836C77.3203 150.958 78.0814 151.062 78.8598 151.166C79.0674 151.201 79.2923 151.218 79.4998 151.235C80.2263 151.322 80.9701 151.392 81.7139 151.461C81.8004 151.461 81.8696 151.461 81.9561 151.478C82.7691 151.548 83.5821 151.583 84.3951 151.635C84.6026 151.635 84.7929 151.635 85.0005 151.652C85.8308 151.687 86.6611 151.704 87.5086 151.704C88.3562 151.704 89.1865 151.687 90.0168 151.652C90.2244 151.652 90.4146 151.652 90.6222 151.635C91.4352 151.6 92.2655 151.548 93.0612 151.478C93.1477 151.478 93.2169 151.478 93.3033 151.461C94.0471 151.392 94.7736 151.322 95.5174 151.235C95.725 151.218 95.9499 151.183 96.1575 151.166C96.9358 151.062 97.7142 150.958 98.4753 150.836C98.631 150.819 98.7867 150.784 98.9424 150.75C99.5824 150.645 100.222 150.524 100.845 150.402C101.087 150.35 101.329 150.316 101.572 150.264C102.298 150.107 103.025 149.951 103.734 149.778C103.976 149.726 104.201 149.656 104.426 149.604C104.962 149.465 105.481 149.326 106.017 149.188C106.294 149.118 106.571 149.031 106.847 148.945C107.505 148.754 108.162 148.545 108.819 148.337C109.131 148.233 109.425 148.129 109.736 148.025C110.151 147.886 110.584 147.73 110.999 147.573C111.327 147.452 111.656 147.348 111.967 147.209C112.556 146.983 113.161 146.74 113.732 146.515C114.095 146.359 114.458 146.202 114.822 146.046C115.133 145.907 115.462 145.769 115.773 145.63C116.396 145.352 117.018 145.057 117.641 144.762C117.918 144.623 118.195 144.484 118.471 144.345C118.887 144.137 119.284 143.929 119.7 143.721C119.924 143.599 120.132 143.495 120.357 143.373C121.17 142.94 121.965 142.488 122.761 142.02C122.848 141.968 122.934 141.916 123.021 141.864C123.453 141.603 123.886 141.325 124.318 141.065C124.456 140.978 124.577 140.892 124.716 140.822C125.581 140.267 126.411 139.711 127.241 139.121C127.276 139.104 127.31 139.069 127.345 139.052C127.795 138.74 128.227 138.41 128.677 138.097C128.746 138.045 128.798 138.011 128.867 137.959C129.715 137.316 130.545 136.674 131.375 135.997C131.41 135.963 131.445 135.945 131.479 135.911C131.912 135.563 132.344 135.199 132.759 134.835C132.777 134.835 132.794 134.8 132.811 134.782C133.624 134.088 134.402 133.359 135.181 132.63C135.25 132.561 135.319 132.509 135.388 132.439C135.786 132.058 136.167 131.676 136.547 131.294C136.547 131.294 136.565 131.277 136.582 131.259C143.242 124.577 148.552 116.559 152.081 107.621C153.015 107.916 153.966 108.229 154.9 108.541C144.349 135.529 118.16 154.654 87.5086 154.654ZM108.37 136.744H107.972V135.772C108.3 135.789 108.387 135.789 108.473 135.789C109.165 135.789 109.286 135.616 109.286 135.425C109.286 135.234 109.061 134.956 108.387 134.956C107.833 134.956 107.297 135.147 106.571 135.685L105.982 134.887C106.795 134.279 107.574 134.019 108.404 134.019C109.511 134.019 110.29 134.557 110.29 135.459C110.29 135.754 110.203 136.015 110.03 136.206C110.411 136.466 110.618 136.83 110.618 137.316C110.618 138.271 109.615 139.017 108.197 139.017C107.141 139.017 106.311 138.687 105.429 137.82L106.052 137.056C106.882 137.82 107.418 138.063 108.179 138.063C109.2 138.063 109.615 137.611 109.615 137.316C109.615 137.004 109.356 136.761 108.387 136.761L108.37 136.744ZM39.5769 129.437C33.3152 123.068 28.2989 115.449 24.9432 106.979C45.1814 100.696 66.1461 97.503 87.5086 97.503C108.871 97.503 129.836 100.696 150.074 106.979C146.718 115.449 141.702 123.05 135.44 129.437C103.993 121.384 71.024 121.384 39.5769 129.437ZM102.488 134.956C101.969 134.956 101.451 135.164 100.689 135.72L100.101 134.956C100.949 134.297 101.658 134.019 102.436 134.019C103.561 134.019 104.357 134.626 104.357 135.459C104.357 136.466 103.18 136.709 102.436 136.969C101.399 137.316 101.139 137.438 101.139 137.941H104.46V138.896H100.17C100.17 138.375 100.153 138.202 100.153 138.132C100.153 136.258 101.71 136.292 103.007 135.737C103.336 135.598 103.371 135.511 103.371 135.425C103.371 135.251 103.146 134.956 102.506 134.956H102.488ZM99.0635 136.501C99.0635 137.924 97.9391 139 96.3477 139C94.7563 139 93.632 137.924 93.632 136.501C93.632 135.078 94.7563 134.001 96.3477 134.001C97.9391 134.001 99.0635 135.078 99.0635 136.501ZM90.7952 134.956C90.2763 134.956 89.7573 135.164 88.9962 135.72L88.4081 134.956C89.2557 134.297 89.9649 134.019 90.7433 134.019C91.8676 134.019 92.6633 134.626 92.6633 135.459C92.6633 136.466 91.4871 136.709 90.7433 136.969C89.7054 137.316 89.446 137.438 89.446 137.941H92.7671V138.896H88.4773C88.4773 138.375 88.46 138.202 88.46 138.132C88.46 136.258 90.0168 136.292 91.3141 135.737C91.6428 135.598 91.6774 135.511 91.6774 135.425C91.6774 135.251 91.4525 134.956 90.8125 134.956H90.7952ZM82.8383 138.41C82.8383 138.757 82.5961 139 82.2848 139C81.9734 139 81.7312 138.757 81.7312 138.41C81.7312 138.063 81.9734 137.82 82.2848 137.82C82.5961 137.82 82.8383 138.08 82.8383 138.41ZM75.5214 134.835V133.88H80.3474V134.835H78.4274V138.878H77.4414V134.835H75.5214ZM72.8922 136.692C72.2867 136.64 71.5083 136.657 70.9375 136.379C70.4532 136.154 70.1764 135.737 70.1764 135.251C70.1764 134.383 71.024 133.776 72.1484 133.776C72.9613 133.776 73.757 134.054 74.6219 134.678L74.0511 135.511C73.3419 134.939 72.7711 134.73 72.1657 134.73C71.4565 134.73 71.197 135.043 71.197 135.216C71.197 135.563 71.7851 135.616 71.9927 135.65C72.304 135.685 72.6846 135.685 73.0997 135.737C74.1203 135.859 74.7949 136.466 74.7949 137.299C74.7949 138.254 73.93 138.983 72.5635 138.983C71.6294 138.983 70.7991 138.705 69.8997 138.011L70.4705 137.178C71.2662 137.802 71.9408 138.045 72.5635 138.045C73.3938 138.045 73.7743 137.663 73.7743 137.299C73.7743 137.039 73.5668 136.744 72.9095 136.692H72.8922ZM67.4088 135.754V136.709H65.5753V137.941H68.7753V138.896H64.5893V133.897H68.6023V134.852H65.5926V135.772H67.4261L67.4088 135.754ZM169.672 111.318C165.607 109.634 161.491 108.09 157.356 106.649C156.837 106.476 156.319 106.285 155.8 106.111C154.848 105.782 153.88 105.486 152.928 105.174C152.288 104.966 151.631 104.758 150.974 104.549C130.303 98.1278 108.906 94.917 87.4913 94.917C66.0769 94.917 44.6797 98.1451 24.0091 104.567C23.3518 104.775 22.7118 104.983 22.0545 105.191C21.1031 105.504 20.1344 105.816 19.1831 106.129C18.6641 106.302 18.1452 106.493 17.6263 106.667C13.4921 108.09 9.37531 109.634 5.31037 111.335V78.412C7.78393 77.388 10.2921 76.4161 12.8002 75.4789C13.6997 75.1491 14.5819 74.802 15.4814 74.4896C16.5192 74.1252 17.5571 73.7781 18.5949 73.4136C19.3387 73.1533 20.0825 72.9103 20.809 72.6673C42.4657 65.5689 64.9698 62.0111 87.474 62.0111C93.459 62.0111 99.444 62.2714 105.412 62.7747C105.619 63.573 106.259 63.8854 107.297 64.0416C107.972 63.816 107.193 63.2433 106.882 63.1045C106.865 63.035 106.847 62.9656 106.83 62.8962C107.505 62.9483 108.162 63.0177 108.837 63.0871C108.733 63.3301 108.543 63.5557 108.491 63.816C108.491 64.302 109.148 64.2846 109.511 64.2673C109.771 64.302 110.099 64.4582 110.307 64.5102C110.584 64.5276 110.428 64.1111 110.445 63.9375C110.445 63.7292 110.445 63.521 110.48 63.278C114.856 63.7466 119.215 64.354 123.557 65.083C124.318 65.2218 125.096 65.3607 125.857 65.4995C126.653 65.6384 127.449 65.7945 128.245 65.9507C129.127 66.1243 129.992 66.2979 130.874 66.4888C131.531 66.6276 132.188 66.7665 132.846 66.9053C133.814 67.1136 134.766 67.3218 135.734 67.5474C136.253 67.6689 136.755 67.7904 137.274 67.9119C138.364 68.1722 139.436 68.4326 140.509 68.7103C140.699 68.7623 140.889 68.8144 141.079 68.8665C145.196 69.9425 149.296 71.1227 153.361 72.4417C153.62 72.5285 153.88 72.5979 154.139 72.6847C154.883 72.9276 155.627 73.188 156.353 73.431C157.391 73.7781 158.429 74.1252 159.467 74.507C160.366 74.8367 161.266 75.1665 162.148 75.4962C164.656 76.4334 167.147 77.388 169.638 78.4293V111.353L169.672 111.318Z" fill="var(--fill-0, #006535)"/>
</g>
<path id="Vector_14" d="M19.2868 89.936C20.3074 90.9079 20.9993 92.1401 20.8955 93.893C20.8955 94.1013 20.8609 94.3096 20.8436 94.5352C20.7398 95.16 20.5496 95.7848 20.2901 96.3922C18.9582 99.4121 15.8619 100.887 13.3019 101.148C12.731 101.217 11.1916 101.512 11.2262 100.662C11.2607 99.9327 11.4856 99.2212 11.6759 98.4922C11.7278 98.3187 11.7797 98.1104 11.8835 97.9021C12.0737 97.5203 12.3851 97.4856 12.6446 97.5897C13.0943 97.7633 13.5613 98.0063 14.0803 98.0063C15.1008 98.0063 16.6403 97.3294 17.2976 96.0451C17.8511 94.8997 17.5571 93.2162 16.796 92.6955C16.2771 92.331 15.6716 92.1228 15.1527 91.793C14.5819 91.4806 14.063 91.0814 13.544 90.6996C12.9732 90.2484 12.2986 89.8145 11.9008 89.1724C11.5375 88.5823 11.451 87.7666 11.5029 86.9509C11.5894 85.8748 11.8143 84.7467 12.3851 83.6533C13.0424 82.4558 13.9938 81.3624 15.0662 80.6335C15.5679 80.3037 16.0522 80.0607 16.5538 79.8698C17.263 79.6095 17.9203 79.5401 18.5949 79.5054C19.1658 79.5054 19.7539 79.4706 19.6155 80.2343C19.4771 80.9285 19.1658 81.5533 18.9928 82.2822C18.9063 82.5946 18.8544 82.907 18.4912 83.0112C18.2836 83.0806 18.1279 83.0112 17.9722 82.9938C17.7128 82.9244 17.4706 82.855 17.1938 82.8723C16.2252 82.8897 14.9451 83.6186 14.703 84.8508C14.4608 86.0137 14.7549 87.0897 15.5333 87.5756C16.8133 88.3566 18.1971 88.8773 19.3041 89.9186L19.2868 89.936ZM41.2375 73.431C40.6494 73.5524 40.1478 73.6045 39.5597 73.7607C39.3694 73.7954 39.1791 73.8475 39.0061 73.9169C38.7121 73.9863 38.5045 74.1946 38.3834 74.4896C38.2969 74.7673 38.1758 75.0971 38.0894 75.3921C37.6915 77.1971 37.311 79.245 36.8439 81.05C36.498 82.3864 36.1174 83.7227 35.8234 85.0418C35.8234 85.0765 35.7196 85.493 35.6158 85.5277C35.4255 85.5798 35.3736 85.2847 35.3217 85.0244C35.2871 84.9203 33.9552 77.5268 33.7823 76.069C33.7304 75.4963 33.5401 75.1838 32.9347 75.3053C32.8309 75.34 32.7271 75.3574 32.6233 75.3921C31.9314 75.6177 31.5682 75.6351 30.8763 75.8607C30.3227 76.0343 30.2362 76.1037 30.1152 76.6591C30.0806 76.7805 30.0806 76.902 30.0633 77.0409C29.8557 78.2731 28.4719 86.274 28.2816 87.2459C28.2816 87.298 28.247 87.4195 28.1778 87.4368C28.074 87.4715 28.0394 87.3327 28.0221 87.298C27.9875 87.1938 25.687 77.9781 25.6178 77.7525C25.514 77.4574 25.2718 77.3359 24.9086 77.4401C24.3205 77.631 23.888 77.7351 23.1442 77.9607C23.1269 77.9607 22.902 78.0128 22.6945 78.0649C22.3312 78.169 22.141 78.3599 22.0891 78.7244C22.0545 78.9153 22.0545 79.1409 22.1237 79.2797C22.3312 80.0434 26.4135 96.0798 26.6383 96.7914C26.7248 97.0864 26.7421 97.0864 27.0535 96.9997C27.7627 96.8088 28.4892 96.6005 29.1984 96.4096C29.2503 96.4096 29.3022 96.3749 29.3541 96.3749C29.7 96.2881 29.7173 95.7848 29.8038 95.3162C30.34 92.4005 30.9973 89.5021 31.6373 86.6732C31.6719 86.4996 31.7238 86.3261 31.7757 86.1872C31.8103 86.1351 31.8622 86.0831 31.8795 86.0831C31.9314 86.0831 31.9833 86.0831 32.0179 86.1351C32.1563 86.4302 33.7477 93.6501 34.059 94.8997C34.1109 95.0559 34.1974 95.16 34.405 95.1079C35.1142 94.9344 35.8234 94.7782 36.5326 94.6046C36.9304 94.5178 37.2072 94.2401 37.2764 93.8236C37.6223 91.9666 38.0721 89.8839 38.5045 88.0442C39.0407 85.7707 39.5942 83.5318 40.1651 81.2583C40.5975 79.4533 41.0473 77.4748 41.5835 75.6698C41.7738 75.0624 42.4657 73.2227 41.2894 73.4657L41.2375 73.431ZM48.6409 75.2706C49.9036 75.045 51.1664 74.8194 52.4291 74.6111C52.948 74.4723 53.1037 74.4723 53.0691 73.969C53.0172 73.2053 53.1037 72.3723 53.0172 71.6086C52.9653 71.1921 52.8269 71.1227 52.3426 71.2094C51.5296 71.3656 51.3393 71.4004 50.5436 71.5739C49.7307 71.7301 46.5133 72.3028 45.7349 72.4417C44.6106 72.65 44.5241 72.5979 44.5068 73.969C44.4549 75.0624 44.4722 76.1558 44.4722 77.2491C44.4722 79.1235 44.3684 85.8922 44.4203 87.3847C44.4203 87.3847 44.403 87.3847 44.3857 87.3847C44.3857 88.0616 44.3511 88.7558 44.3857 89.45C44.4203 90.3005 44.4722 91.1509 44.5241 92.0013C44.5241 92.2963 44.6106 92.3658 44.87 92.3658C45.4408 92.4005 45.9771 92.3137 46.5306 92.2096C47.9836 91.8972 49.4366 91.741 50.8896 91.4459C51.4777 91.3244 51.7545 91.3244 52.3426 91.1335C52.8788 90.9426 53.0691 90.6129 53.0691 89.8145C53.0172 89.3112 53.0345 89.0856 53.0345 88.4781C53.0345 87.593 52.4118 87.3847 51.8756 87.5062C51.495 87.593 49.6961 87.836 48.9696 87.9575C47.7587 88.2004 47.949 88.3219 47.949 87.055C47.949 86.031 47.9836 84.712 47.9836 83.6707C47.9836 83.0979 48.0355 82.907 48.5717 82.8203C49.6961 82.6293 50.8204 82.4384 51.9275 82.2649C52.4637 82.2649 52.8442 81.831 52.8442 81.2583C52.8442 80.6855 52.8961 80.6508 52.8961 80.0954C52.8615 79.8351 52.8442 79.5748 52.8096 79.2971C52.7577 78.8459 52.5848 78.707 52.135 78.7764C51.841 78.8285 51.5469 78.8979 51.2528 78.9673C50.0939 79.2277 49.5577 79.1583 48.4333 79.4359C48.0528 79.5054 48.0009 79.4533 47.9836 79.1062C47.8798 78.0822 47.9836 76.902 48.0874 75.8434C48.122 75.4095 48.2258 75.3053 48.6236 75.2186L48.6409 75.2706ZM59.8498 73.6045C61.1125 73.4309 62.3925 73.2921 63.6552 73.1359C64.1742 73.0318 64.3298 73.0318 64.3125 72.5285C64.2607 71.7475 64.3471 70.9491 64.2607 70.1681C64.2088 69.7516 64.0704 69.6822 63.586 69.7342C62.7731 69.8557 62.5828 69.8731 61.7698 70.0119C60.9568 70.1161 57.7222 70.5326 56.9265 70.6367C55.7848 70.7929 55.7156 70.7235 55.681 72.0946C55.6291 73.1706 55.6464 74.2814 55.6464 75.3748C55.6464 77.2492 55.5427 84.0178 55.5945 85.5104C55.5945 85.5104 55.5772 85.5104 55.56 85.5104C55.56 86.1872 55.5254 86.8814 55.56 87.5756C55.5945 88.4261 55.6464 89.2765 55.6983 90.1443C55.6983 90.4393 55.7848 90.5087 56.0443 90.5261C56.6151 90.5781 57.1513 90.5261 57.7222 90.4567C59.1752 90.2137 60.6455 90.1443 62.0985 89.9186C62.6866 89.8319 62.9633 89.8492 63.5515 89.6757C64.0877 89.5195 64.278 89.1897 64.278 88.3914C64.2261 87.888 64.2434 87.6624 64.2434 87.055C64.2434 86.1699 63.6206 85.9442 63.0844 86.031C62.7039 86.1004 60.8876 86.2393 60.1611 86.3434C58.9503 86.517 59.1406 86.6558 59.1406 85.3889C59.1406 84.3649 59.1752 83.0459 59.1752 82.0045C59.1752 81.4318 59.227 81.2409 59.7633 81.1715C60.8876 81.0326 62.012 80.9112 63.1363 80.7897C63.6725 80.807 64.0531 80.3905 64.0531 79.8351C64.0531 79.2624 64.105 79.245 64.105 78.6723C64.0704 78.412 64.0531 78.1343 64.0185 77.8739C63.9666 77.4227 63.7936 77.2839 63.3439 77.3359C63.0498 77.3706 62.7558 77.4227 62.4444 77.4921C61.2855 77.7004 60.7492 77.6136 59.6076 77.8219C59.227 77.8739 59.1752 77.8219 59.1406 77.4748C59.0368 76.4334 59.1406 75.2706 59.2443 74.2119C59.2789 73.7781 59.3827 73.6913 59.7806 73.6045H59.8498ZM76.7149 68.9012C76.2479 68.9012 71.8197 69.1615 70.0035 69.3524C69.104 69.4218 68.3775 69.4566 67.478 69.526C66.8034 69.578 66.8207 70.1161 66.8207 71.2962C66.8207 72.0425 66.7861 72.8062 67.4434 72.7367C67.824 72.702 69.3634 72.5805 69.7959 72.5632C70.0726 72.5458 70.2629 72.6152 70.3148 72.8929C70.3148 72.9797 70.3494 73.0491 70.3494 73.1359C70.3494 75.0624 70.211 84.0872 70.2629 86.4996C70.2975 87.3327 70.2975 88.1657 70.3148 88.9988C70.3148 89.3806 70.3494 89.4327 70.73 89.398C71.5429 89.3459 72.3559 89.2765 73.1689 89.2244C73.6879 89.1897 73.5841 88.3393 73.5495 87.888C73.5841 82.8723 73.6014 77.8566 73.636 72.8409C73.636 72.4417 73.7743 72.3028 74.3106 72.2681C75.1063 72.2161 75.902 72.1814 76.6976 72.1466C77.2685 72.1119 77.1301 71.1574 77.1301 70.4805C77.1301 69.8904 77.355 68.8491 76.6976 68.8838L76.7149 68.9012ZM94.9985 69.1094C94.9466 68.6756 94.8428 68.5888 94.3412 68.5714C93.5282 68.5714 93.338 68.5714 92.525 68.6061C91.712 68.6061 88.4254 68.5714 87.6297 68.5714C86.5227 68.5714 86.4016 68.502 86.3843 69.8557C86.3497 70.9318 86.3497 72.0252 86.3497 73.1359C86.3497 75.0103 86.2459 81.7616 86.3151 83.2715C86.3151 83.2715 86.2978 83.2715 86.2805 83.2715C86.2805 83.9484 86.2459 84.6426 86.2805 85.3368C86.3151 86.2046 86.3324 87.055 86.3843 87.9228C86.4189 88.2178 86.4708 88.3046 86.7649 88.3566C87.3011 88.4955 87.8719 88.5128 88.4427 88.5128C89.913 88.4608 89.913 88.2352 89.913 87.2285C89.8611 86.7252 89.8784 86.4996 89.8784 85.8922C89.8784 85.007 89.8438 84.9029 89.8438 83.636C89.8784 82.612 89.8784 81.293 89.8784 80.2516C89.8784 79.6789 89.9649 79.5054 90.4838 79.5054C91.7985 79.5227 93.1304 79.5574 94.445 79.5921C95.0158 79.6963 94.7909 79.3144 94.7909 78.7417C94.7909 78.169 94.8774 78.1516 94.8428 77.5963C94.8428 77.3359 94.7909 77.0582 94.7564 76.7806C94.7045 76.3293 94.5315 76.1558 94.0817 76.1384C93.7877 76.1384 94.0472 76.1558 93.7877 76.1905C92.6115 76.2425 91.5044 76.0516 90.3282 76.121C89.9476 76.121 89.8957 76.069 89.8611 75.7045C89.7746 74.6632 89.8611 73.5004 89.9649 72.459C90.0168 72.0252 90.1033 71.9557 90.5011 71.921C91.7812 71.921 93.0612 71.9557 94.3412 71.9731C94.8774 71.9384 95.0504 71.9731 94.9985 71.4524C94.9466 70.6714 95.0504 69.8731 94.9466 69.0921L94.9985 69.1094ZM101.883 72.3723C103.163 72.4417 104.426 72.5285 105.706 72.6152C106.225 72.6152 106.38 72.65 106.363 72.1293C106.311 71.3483 106.398 70.5499 106.311 69.7689C106.259 69.3351 106.121 69.2483 105.637 69.1962C104.824 69.1615 104.633 69.1442 103.82 69.1442C103.007 69.1094 99.7554 68.9012 98.9597 68.8665C97.818 68.8144 97.7315 68.7276 97.7143 70.0987C97.6624 71.1747 97.6797 72.2681 97.6797 73.3789C97.6797 75.2533 97.5759 82.0045 97.6278 83.5145C97.6278 83.5145 97.6105 83.5145 97.5932 83.5145C97.5932 84.1913 97.5586 84.8856 97.5932 85.5798C97.6278 86.4475 97.6797 87.298 97.7315 88.1657C97.7315 88.4608 97.818 88.5476 98.0775 88.617C98.6483 88.7732 99.1845 88.8252 99.7554 88.86C101.226 88.8773 102.679 89.0856 104.149 89.1376C104.737 89.155 105.014 89.2244 105.619 89.1724C106.155 89.1029 106.346 88.8252 106.346 88.0269C106.294 87.5062 106.311 87.298 106.311 86.6732C106.311 85.788 105.688 85.4409 105.152 85.4236C104.772 85.4236 102.955 85.2327 102.229 85.1806C101.001 85.1285 101.191 85.3021 101.191 84.0351C101.191 83.0112 101.226 81.6922 101.226 80.6508C101.226 80.0781 101.278 79.9045 101.831 79.9392C102.955 80.0087 104.097 80.0954 105.221 80.1822C105.758 80.3037 106.138 79.9566 106.138 79.4012C106.138 78.8285 106.19 78.8111 106.19 78.2558C106.155 77.9781 106.138 77.7177 106.104 77.4401C106.052 76.9715 105.879 76.7979 105.429 76.7632C105.135 76.7458 104.841 76.7458 104.53 76.7632C103.371 76.7632 102.817 76.5549 101.675 76.5723C101.295 76.5549 101.243 76.4855 101.208 76.1384C101.105 75.0797 101.208 73.9343 101.312 72.8929C101.347 72.459 101.451 72.3896 101.848 72.3896L101.883 72.3723ZM117.312 87.7666C117.278 87.3847 117.07 87.2285 116.742 87.1765C115.635 87.055 114.528 86.8641 113.42 86.7947C113.23 86.7947 113.04 86.7947 112.85 86.7599C112.521 86.6905 112.452 86.6037 112.417 86.2566V85.8575C112.331 83.6186 112.504 81.3277 112.504 79.0888C112.469 77.1971 112.504 75.5136 112.469 73.8475C112.469 73.1185 112.469 72.3896 112.435 71.6954C112.4 71.2615 112.435 70.8103 112.331 70.359C112.279 70.1855 112.192 69.9599 112.002 69.9425C111.154 69.8557 110.307 69.7689 109.459 69.6822C109.027 69.6475 108.889 69.9251 108.871 70.359V72.2681C108.837 73.9343 109.01 86.1178 108.975 87.0029C108.975 87.836 108.975 88.669 109.01 89.5021C109.01 89.6409 109.096 89.7798 109.234 89.7972C111.137 90.0575 113.005 90.1095 114.891 90.3525C115.513 90.4567 116.136 90.5087 116.724 90.5781C117.312 90.6302 117.382 90.3872 117.347 89.9013C117.312 89.1376 117.312 88.4781 117.312 87.7492V87.7666ZM128.245 89.5021C128.21 89.1203 128.002 88.9467 127.674 88.8947C126.567 88.7211 125.477 88.4781 124.37 88.3566C124.18 88.3566 123.989 88.3219 123.799 88.2872C123.47 88.2004 123.401 88.1137 123.367 87.7666V87.3674C123.28 85.1285 123.453 82.8376 123.453 80.6161C123.419 78.7244 123.453 77.0409 123.419 75.3748C123.419 74.6458 123.419 73.9169 123.384 73.2227C123.349 72.7888 123.384 72.3376 123.28 71.8863C123.228 71.7128 123.142 71.4871 122.951 71.4524C122.104 71.3136 121.256 71.1921 120.426 71.0706C119.994 71.0012 119.855 71.2789 119.838 71.7128V73.6219C119.803 75.288 119.976 87.4715 119.942 88.3566C119.942 89.1897 119.942 90.0228 119.976 90.8558C119.976 90.9947 120.063 91.1335 120.201 91.1509C122.087 91.498 123.955 91.6368 125.823 91.9839C126.446 92.1228 127.051 92.1922 127.656 92.2963C128.245 92.3831 128.296 92.1401 128.279 91.6542C128.245 90.8905 128.245 90.231 128.245 89.5021ZM134.991 76.9368C136.253 77.1971 137.499 77.4748 138.762 77.7525C139.263 77.8219 139.436 77.874 139.402 77.3706C139.35 76.5723 139.436 75.7913 139.35 74.9929C139.298 74.5591 139.159 74.4376 138.675 74.3334C137.879 74.1772 137.689 74.1252 136.893 74.0037C136.098 73.8475 132.88 73.1706 132.102 73.0144C130.978 72.7888 130.891 72.702 130.874 74.0557C130.822 75.1144 130.839 76.2252 130.839 77.3359C130.839 79.2103 130.735 85.9442 130.787 87.4542C130.787 87.4542 130.77 87.4542 130.753 87.4542C130.753 88.131 130.718 88.8252 130.753 89.5195C130.787 90.3872 130.839 91.255 130.891 92.1228C130.891 92.4178 130.978 92.522 131.237 92.6261C131.808 92.8691 132.327 93.0079 132.898 93.112C134.351 93.355 135.786 93.7715 137.222 94.0319C137.81 94.136 138.07 94.2575 138.658 94.2749C139.194 94.2749 139.384 94.0319 139.384 93.2335C139.332 92.7129 139.35 92.5046 139.35 91.8798C139.35 90.9947 138.744 90.5608 138.208 90.4567C137.827 90.3872 136.046 89.936 135.319 89.7972C134.126 89.5715 134.299 89.7624 134.299 88.5128C134.299 87.4889 134.333 86.1872 134.333 85.1285C134.333 84.5558 134.385 84.3822 134.921 84.5037C136.028 84.7467 137.153 84.9897 138.26 85.25C138.796 85.4583 139.159 85.1632 139.159 84.6079C139.159 84.0351 139.211 84.0351 139.211 83.4624C139.177 83.1847 139.159 82.907 139.125 82.6293C139.073 82.1607 138.917 81.9525 138.45 81.8483C138.156 81.7789 137.862 81.7442 137.568 81.7095C136.426 81.536 135.89 81.2583 134.766 81.1021C134.385 81.0153 134.333 80.9632 134.316 80.5988C134.212 79.5227 134.316 78.3946 134.42 77.3706C134.454 76.9541 134.558 76.8847 134.956 76.9541L134.991 76.9368ZM152.703 97.8674C152.79 98.1798 152.703 98.3707 152.357 98.284C151.389 97.9889 150.42 97.6939 149.451 97.4162C149.296 97.3641 149.105 97.3815 149.002 97.1906C148.915 97.0864 148.638 96.1492 148.5 95.8195C147.549 93.5112 146.615 91.1682 145.559 88.7905C145.525 88.7038 145.473 88.6343 145.369 88.5996C145.265 88.5649 145.214 88.7211 145.179 88.7905C145.144 89.1376 145.144 93.5459 145.144 94.2401C145.144 95.2815 145.352 96.3054 144.781 96.1666C144.003 95.9583 143.553 95.8716 142.809 95.698C142.619 95.6459 142.411 95.5765 142.221 95.5245C141.91 95.4377 141.84 95.3509 141.84 95.0038C141.84 93.8236 141.892 85.6145 141.892 82.4905C141.858 80.4426 141.806 78.3599 141.858 76.312V75.9822C141.892 75.531 142.152 75.3574 142.567 75.4615C143.466 75.6872 143.968 75.826 144.695 76.0343C145.525 76.2772 146.303 76.3987 147.134 76.6764C148.483 77.1277 149.624 78.0649 150.489 79.3665C151.631 81.1194 152.011 83.1674 151.752 84.8682C151.51 86.6037 150.385 87.4542 149.123 88.2525C149.071 88.3219 148.673 88.3914 148.725 88.5128C148.777 88.7732 150.368 92.331 150.593 92.9385C150.939 93.7368 152.444 97.0344 152.651 97.9021L152.703 97.8674ZM147.445 80.4599C146.995 80.0087 145.957 79.3665 145.456 79.6095C145.092 79.8004 145.214 80.6508 145.196 81.05C145.196 81.9525 145.179 82.855 145.162 83.7574C145.162 83.7574 145.196 84.5905 145.196 85.0244C145.231 85.6839 145.957 85.736 146.355 85.736C147.012 85.736 147.601 85.5277 147.947 85.0418C148.656 83.9831 148.76 81.7442 147.445 80.4773V80.4599ZM159.467 80.2169C158.965 80.0781 158.481 79.9913 157.979 79.9913C156.907 80.0087 155.938 80.4599 155.281 81.2235C154.71 81.9351 154.468 82.907 154.381 83.931C154.329 84.7294 154.416 85.5798 154.779 86.4128C155.177 87.3153 155.852 88.2004 156.44 89.0335C156.959 89.7624 157.495 90.4914 158.066 91.2029C158.585 91.8798 159.19 92.4872 159.709 93.1988C160.47 94.2401 160.747 96.0972 160.211 96.8782C159.553 97.7286 158.014 97.3815 156.993 96.7046C156.474 96.3402 155.99 95.8021 155.557 95.3335C155.298 95.0559 154.987 94.8823 154.796 95.1426C154.693 95.2641 154.641 95.4377 154.589 95.5939C154.399 96.2013 154.174 96.7567 154.139 97.4683C154.122 98.284 155.661 99.0129 156.232 99.3253C158.809 100.748 161.871 101.321 163.203 99.1865C163.462 98.7352 163.653 98.2493 163.757 97.6939C163.791 97.4856 163.808 97.3121 163.808 97.0864C163.912 95.403 163.238 93.7021 162.217 92.0707C161.127 90.3005 159.744 88.86 158.463 87.2285C157.685 86.2219 157.391 84.9376 157.633 83.9484C157.875 82.8723 159.155 82.9938 160.124 83.6186C160.418 83.7922 160.643 84.0178 160.902 84.2608C161.058 84.3996 161.214 84.5558 161.421 84.6252C161.785 84.7814 161.837 84.5037 161.923 84.226C162.113 83.6186 162.425 83.1847 162.546 82.5946C162.684 81.9178 162.096 81.5707 161.525 81.1888C160.851 80.7723 160.193 80.4078 159.484 80.1996L159.467 80.2169Z" fill="var(--fill-0, #F15A29)"/>
<path id="Vector_15" d="M36.1866 117.687C36.8936 117.687 37.4666 117.112 37.4666 116.403C37.4666 115.694 36.8936 115.119 36.1866 115.119C35.4797 115.119 34.9066 115.694 34.9066 116.403C34.9066 117.112 35.4797 117.687 36.1866 117.687Z" fill="var(--fill-0, #ADD2A3)"/>
<path id="Vector_16" d="M138.848 117.687C139.555 117.687 140.128 117.112 140.128 116.403C140.128 115.694 139.555 115.119 138.848 115.119C138.141 115.119 137.568 115.694 137.568 116.403C137.568 117.112 138.141 117.687 138.848 117.687Z" fill="var(--fill-0, #ADD2A3)"/>
<path id="Vector_17" d="M44.0224 111.787C43.1922 111.977 42.3446 112.168 41.5143 112.377C41.324 112.429 41.1856 112.29 41.1856 112.116C41.1856 111.474 41.1856 110.815 41.1856 110.172C41.1856 109.999 41.324 109.808 41.5143 109.756C44.1089 109.131 46.7036 108.576 49.3155 108.055C49.5058 108.02 49.6442 108.142 49.6442 108.333V110.277C49.6442 110.45 49.5058 110.641 49.3155 110.676C48.4679 110.832 47.6376 111.006 46.7901 111.179V120.69C46.7901 120.863 46.6344 121.054 46.4614 121.106C45.7522 121.263 45.0603 121.401 44.3511 121.558C44.1781 121.592 44.0224 121.471 44.0224 121.297V111.787ZM51.5988 107.951C51.5988 107.777 51.7372 107.587 51.9275 107.552C53.6918 107.222 55.4562 106.927 57.2205 106.667C59.3481 106.337 61.0952 107.829 61.0952 109.964C61.0952 111.613 60.0054 113.071 58.4659 113.921C59.2789 115.31 60.0919 116.698 60.9049 118.104C61.026 118.312 60.9049 118.625 60.6109 118.659C59.8152 118.763 59.0368 118.885 58.2584 118.989C58.12 119.006 58.0162 118.937 57.9816 118.868C57.2032 117.41 56.4075 115.969 55.6291 114.511C55.214 114.581 54.8162 114.65 54.401 114.72V119.267C54.401 119.44 54.2453 119.631 54.0724 119.666C53.3632 119.787 52.6713 119.909 51.962 120.03C51.7718 120.065 51.6334 119.926 51.6334 119.753V107.951H51.5988ZM56.9957 112.03C57.7222 111.908 58.3449 111.144 58.3449 110.398C58.3449 109.652 57.7222 109.131 56.9957 109.253C56.1135 109.391 55.2486 109.53 54.3664 109.687V112.463C55.2313 112.307 56.1135 112.168 56.9957 112.03ZM63.6552 106.111C63.6552 105.938 63.7936 105.747 64.0012 105.729C66.4575 105.434 68.9137 105.191 71.37 105.001C71.5602 105.001 71.7159 105.139 71.7159 105.313V107.257C71.7159 107.43 71.5775 107.604 71.37 107.621C69.7267 107.76 68.0834 107.916 66.4402 108.09V110.294C67.7894 110.155 69.1559 110.016 70.5051 109.912C70.6781 109.912 70.851 110.034 70.851 110.225C70.851 110.867 70.851 111.526 70.851 112.168C70.851 112.359 70.6954 112.515 70.5051 112.533C69.1559 112.654 67.7894 112.776 66.4402 112.915V115.327C68.0834 115.153 69.7267 114.997 71.37 114.858C71.5602 114.858 71.7159 114.98 71.7159 115.171V117.115C71.7159 117.288 71.5775 117.462 71.37 117.479C68.9137 117.67 66.4575 117.93 64.0012 118.208C63.8109 118.225 63.6552 118.087 63.6552 117.913C63.6552 113.973 63.6552 110.051 63.6552 106.111ZM74.276 105.122C74.276 104.931 74.4144 104.775 74.6219 104.758C77.0782 104.601 79.5517 104.48 82.0253 104.428C82.2156 104.428 82.3713 104.584 82.3713 104.758V106.701C82.3713 106.875 82.2329 107.048 82.0253 107.048C80.382 107.101 78.7215 107.153 77.0782 107.239V109.444C78.4274 109.374 79.7939 109.322 81.1604 109.27C81.3334 109.27 81.5064 109.426 81.5064 109.6V111.544C81.5064 111.734 81.3507 111.891 81.1604 111.891C79.7939 111.925 78.4447 111.995 77.0782 112.064V114.477C78.7215 114.39 80.382 114.32 82.0253 114.286C82.2156 114.286 82.3713 114.442 82.3713 114.615V116.559C82.3713 116.733 82.2329 116.906 82.0253 116.906C79.5517 116.976 77.0955 117.08 74.6219 117.236C74.4317 117.236 74.276 117.097 74.276 116.924V105.122ZM94.6007 104.324C96.3823 104.393 97.7142 105.018 98.9251 106.198C99.0808 106.354 99.0808 106.563 98.9424 106.701C98.4753 107.153 98.0083 107.604 97.5413 108.072C97.4202 108.194 97.2126 108.177 97.0915 108.055C96.4342 107.43 95.552 107.066 94.6699 107.031C92.646 106.944 91.1584 108.61 91.1584 110.606C91.1584 112.585 92.6633 114.251 94.6872 114.32C95.5347 114.355 96.4342 114.095 97.0742 113.574C97.1953 113.47 97.4375 113.487 97.5413 113.609C98.0083 114.13 98.4753 114.65 98.9424 115.171C99.0635 115.31 99.0462 115.535 98.9251 115.657C97.7142 116.768 96.1748 117.236 94.5834 117.167C91.0028 117.028 88.1314 114.199 88.1314 110.641C88.1314 107.083 91.0028 104.202 94.5834 104.341L94.6007 104.324ZM99.6689 116.768C101.537 112.897 103.388 109.027 105.256 105.209C105.308 105.105 105.429 105.035 105.55 105.035C105.602 105.035 105.671 105.035 105.723 105.035C105.844 105.035 105.965 105.157 106.034 105.261C107.885 109.444 109.753 113.644 111.604 117.878C111.708 118.121 111.57 118.33 111.31 118.312C110.653 118.225 109.996 118.156 109.338 118.087C109.01 118.052 108.871 117.93 108.716 117.566C108.508 117.08 108.283 116.577 108.076 116.091C106.467 115.917 104.841 115.761 103.232 115.639C103.025 116.091 102.8 116.559 102.592 117.011C102.506 117.219 102.315 117.41 101.952 117.392C101.295 117.34 100.638 117.306 99.9975 117.253C99.7381 117.236 99.5824 116.993 99.6862 116.768H99.6689ZM106.986 113.557C106.536 112.533 106.086 111.509 105.637 110.485C105.637 110.485 105.637 110.485 105.619 110.485C105.17 111.422 104.72 112.359 104.287 113.296C105.187 113.383 106.086 113.453 107.003 113.557H106.986ZM113.248 106.441C113.248 106.267 113.386 106.129 113.593 106.146C115.358 106.389 117.139 106.649 118.904 106.944C121.031 107.291 122.761 109.339 122.761 111.457C122.761 113.106 121.689 114.216 120.149 114.581C120.962 116.23 121.758 117.878 122.571 119.527C122.692 119.787 122.571 120.048 122.277 119.996C121.498 119.857 120.703 119.718 119.924 119.579C119.786 119.562 119.682 119.44 119.648 119.371C118.869 117.67 118.074 115.969 117.295 114.268C116.88 114.199 116.482 114.147 116.067 114.077V118.625C116.067 118.798 115.911 118.937 115.738 118.92C115.029 118.815 114.337 118.711 113.628 118.625C113.438 118.59 113.282 118.416 113.282 118.243V106.441H113.248ZM118.644 112.22C119.371 112.342 119.994 111.769 119.994 111.023C119.994 110.277 119.371 109.565 118.644 109.444C117.762 109.305 116.897 109.166 116.015 109.044V111.821C116.897 111.943 117.762 112.082 118.644 112.22ZM125.287 108.42C125.287 108.246 125.425 108.107 125.615 108.142C128.054 108.628 130.476 109.166 132.898 109.739C133.088 109.791 133.226 109.982 133.226 110.155V112.099C133.226 112.272 133.088 112.411 132.898 112.359C131.272 111.977 129.663 111.613 128.037 111.266C128.037 111.995 128.037 112.741 128.037 113.47C129.369 113.748 130.701 114.06 132.033 114.372C132.206 114.425 132.361 114.615 132.361 114.789V116.733C132.361 116.924 132.206 117.028 132.033 116.993C130.701 116.681 129.369 116.386 128.037 116.091C128.037 116.889 128.037 117.687 128.037 118.503C129.663 118.85 131.289 119.215 132.898 119.596C133.088 119.649 133.226 119.839 133.226 120.013V121.957C133.226 122.13 133.088 122.269 132.898 122.217C130.476 121.644 128.054 121.106 125.615 120.62C125.425 120.586 125.287 120.395 125.287 120.221V108.42Z" fill="var(--fill-0, #006535)"/>
</g>
<path id="Vector_18" d="M87.4914 58.6615C87.5951 58.2796 87.4049 57.8631 87.6297 57.4639C90.2244 56.6829 94.3931 56.4573 96.2785 56.9606C95.3791 57.6201 95.431 58.4011 95.4829 58.6615C95.5521 59.0086 95.8461 59.3036 96.244 59.5813C93.338 59.4598 90.4147 59.3557 87.4914 59.3904H87.3011C87.353 59.1821 87.4049 58.9391 87.4741 58.6615H87.4914Z" fill="var(--fill-0, #ADD2A3)"/>
</g>
</g>
<path id="Vector_19" d="M87.4913 58.7482C87.5951 58.3664 87.4049 57.9499 87.6297 57.5507C90.2244 56.7697 94.3931 56.5441 96.2785 57.0474C95.3791 57.7069 95.431 58.4879 95.4828 58.7482C95.552 59.0953 95.8461 59.3904 96.2439 59.6681C93.3379 59.5466 90.4146 59.4425 87.4913 59.4772H87.3011C87.353 59.2689 87.4049 59.0259 87.474 58.7482H87.4913Z" fill="var(--fill-0, #ADD2A3)"/>
</g>
<defs>
<clipPath id="clip0_0_63">
<rect width="175" height="160" fill="white"/>
</clipPath>
</defs>
</svg>
