<svg preserveAspectRatio="none" width="1852" height="864.994" overflow="visible" style="display: block;" viewBox="0 0 1852 864.994" fill="none" xmlns="http://www.w3.org/2000/svg">
<path id="Union" d="M501.697 864.971C501.7 864.977 501.7 864.978 501.695 864.979L501.693 864.979C501.687 864.979 501.678 864.976 501.665 864.971C501.695 864.984 501.702 864.983 501.696 864.971C501.662 864.896 501.106 864.448 500.948 864.447C497.419 864.424 492.032 864.333 488.263 864.174L476.479 863.695L444.766 862.671C425.83 862.056 393.346 864.743 378.602 863.468L370.2 862.739L352.515 863.24C337.937 863.65 339.885 860.166 320.693 862.717C309.809 864.151 315.379 863.036 308.08 861.441L297.087 859.05C286.277 856.704 279.659 859.187 269.915 856.227C267.047 855.361 264.161 854.336 261.201 854.382C255.705 854.45 251.108 852.264 245.924 850.533C239.913 848.529 233.423 849.758 227.228 849.075C224.489 848.779 221.988 848.484 219.231 848.393L187.242 847.186L164.997 846.389C161.927 846.275 158.821 846.821 155.898 847.596C155.862 847.631 155.843 847.67 155.832 847.709C155.925 848.053 156.69 848.464 157.074 848.667L157.314 849.538C157.306 849.546 157.297 849.554 157.289 849.562L157.313 849.645C155.713 851.33 154.353 852.81 152.367 853.106C134.921 855.589 139.646 853.106 126.189 853.789C119.332 854.131 112.621 853.585 105.801 853.084C99.4218 852.606 93.3727 852.446 86.9016 852.446H53.4065C50.3733 852.446 48.3139 850.943 45.7219 849.349C43.6077 848.073 40.4081 848.939 38.2756 847.459C31.7677 842.882 22.9983 843.77 15.4426 844.043C12.372 844.157 2.61204 844.043 0.276568 843.701C-0.0173759 843.655 0.000200509 842.676 0.000200556 841.879V657.896L0.00117712 657.896V656.46C2.17036 656.208 4.04561 656.574 6.08614 657.056C20.3336 660.403 25.3892 655.817 29.1027 655.726C34.2502 655.611 39.03 656.23 44.1223 656.85C47.9276 657.308 51.7516 656.688 55.5754 656.597L60.0002 656.502V0H1852V829.023H1846V855.703C1844.84 855.908 1843.39 856.227 1842.03 856.204L1816.26 855.475H1784.63C1777.7 855.475 1771.03 853.904 1764.14 855.566C1762.19 856.045 1759.87 856.454 1757.94 855.862C1753.62 854.542 1749.61 853.676 1745.22 853.106C1743.6 852.901 1742.41 851.717 1741.51 850.169L1720.86 850.487C1718.34 850.533 1716.04 848.256 1713.63 848.028L1696.43 846.479C1695.29 846.388 1694.46 845.09 1694.06 844.202C1692.59 843.861 1690.32 843.063 1688.76 842.927L1672.77 841.72L1649.35 840.627C1646.7 840.513 1633.52 841.196 1632.63 842.585C1632.52 842.767 1632.45 843.633 1632.18 843.633L1618.77 844.293L1569.41 847.071L1559.21 848.438L1532.74 848.256C1525.33 848.21 1518.3 848.848 1511.24 851.421C1500.2 855.451 1494.7 852.606 1493.52 852.788C1490.29 853.289 1487.62 853.357 1484.5 853.084C1475.49 852.287 1466.55 852.082 1457.58 853.152C1451.88 853.835 1446.5 854.541 1440.93 855.976L1434.64 857.57L1426.9 857.935L1420.32 859.278C1417.49 859.848 1414.75 860.462 1411.84 860.53C1402.76 860.69 1400.52 863.582 1392.02 864.242L1382.8 864.994H1374C1373.97 864.922 1373.4 864.471 1373.27 864.47C1369.83 864.47 1364.65 864.357 1361.01 864.197L1348.78 863.696L1317.09 862.694C1298.71 862.102 1264.84 864.766 1250.91 863.491L1242.95 862.762L1224.84 863.264C1218.97 863.423 1213.46 862.512 1207.63 861.874C1202.87 861.35 1198.13 862.102 1193.4 862.717C1182.23 864.151 1188.46 863.195 1180.77 861.51L1169.5 859.05C1158.88 856.727 1152.28 859.278 1142.24 856.227C1139.7 855.452 1137.04 854.404 1134.41 854.473C1128.58 854.609 1123.75 852.309 1118.27 850.533C1112.24 848.552 1105.75 849.827 1099.55 849.121C1096.96 848.825 1094.61 848.552 1092.01 848.461L1059.66 847.231L1037.32 846.457C1034.24 846.344 1031.15 846.991 1028.18 847.601L1029.69 849.4C1029.68 849.421 1029.67 849.441 1029.65 849.461L1029.69 849.508C1028.59 851.307 1026.95 852.81 1025.1 853.106C1008.05 855.771 1012.28 853.198 998.881 853.858C990.553 854.268 982.077 853.357 973.841 852.901L973.29 855.43C973.179 855.93 972.039 856.181 971.543 856.181L941.577 855.43L912.439 855.498C905.471 855.498 898.779 853.949 891.849 855.565C889.9 856.021 887.547 856.523 885.616 855.931C881.186 854.587 877.105 853.699 872.601 853.106C870.965 852.901 869.732 851.717 868.813 850.191C861.919 850.396 854.97 850.784 848.187 850.465C845.834 850.351 843.627 848.734 841.384 848.119C839.38 847.595 837.266 847.527 835.226 847.391L824.894 846.662C824.195 846.616 822.669 845.933 821.842 845.523L821.875 845.403C821.864 845.398 821.853 845.393 821.842 845.388L822.044 844.654C822.055 844.612 822.062 844.566 822.067 844.519C822.054 844.388 822.005 844.275 821.897 844.248L816.216 842.973L800.884 841.811L777.224 840.672C771.382 840.399 765.575 841.194 760.045 842.264L760.109 843.232C760.109 843.245 760.105 843.257 760.101 843.269L760.109 843.382C760.109 843.564 759.557 843.701 759.355 843.724L734.647 845.136L720.932 846.115L696.37 847.254C691.811 847.459 687.602 848.551 682.988 848.506L658.738 848.301C651.955 848.232 645.483 849.099 639.03 851.376C626.402 855.816 623.46 852.309 619.948 852.924C617.154 853.425 614.69 853.334 611.896 853.106C602.869 852.332 593.898 852.105 584.908 853.221C579.209 853.927 573.822 854.609 568.252 856.044L562.057 857.638L554.648 857.935L547.736 859.323C545.18 859.824 542.68 860.462 540.07 860.53C527.403 860.895 528.138 864.948 511.777 864.401C511.446 864.402 510.51 864.834 510.489 864.971H501.697Z" fill="var(--fill-0, #006838)"/>
</svg>
