<svg preserveAspectRatio="none" width="413" height="116.238" overflow="visible" style="display: block;" viewBox="0 0 413 116.238" fill="none" xmlns="http://www.w3.org/2000/svg">
<g id="Group" opacity="0.2">
<g id="Group_2">
<path id="Vector" d="M388.586 100.585C393.839 97.9661 396.943 94.8117 396.943 91.3597C396.943 82.6106 376.827 75.4684 351.936 75.4684C344.296 75.4684 337.133 76.1231 330.806 77.3135C332.776 74.3376 333.85 71.1237 333.85 67.7311C333.85 67.3145 333.85 66.8384 333.85 66.4218C346.087 63.803 354.742 57.4941 354.742 50.1734C354.742 40.472 339.7 32.6157 321.136 32.6157C313.078 32.6157 305.736 34.1036 299.946 36.5439C289.679 15.2365 264.012 0.119035 233.988 0.119035C197.218 0.119035 167.015 22.7358 163.553 51.7209C163.135 51.7209 162.657 51.7209 162.239 51.7209C149.824 51.7209 139.796 57.6131 139.796 64.8743C139.796 66.9574 140.631 68.9215 142.064 70.6475C129.051 71.5998 119.202 75.647 119.202 80.587C119.202 81.0036 119.262 81.4202 119.441 81.8368C116.994 82.7891 114.785 83.8604 112.875 85.1103C107.384 80.825 98.7881 78.0872 89.1182 78.0872C75.27 78.0872 63.5706 83.8009 60.1085 91.5382C46.6184 91.8953 36.3516 93.7999 36.3516 96.0021C36.3516 98.2042 46.4991 100.109 59.8101 100.466C60.0489 101.121 60.407 101.835 60.7651 102.43C25.9058 103.085 0 105.525 0 108.382C0 111.774 35.7547 114.512 79.8065 114.512C82.3732 114.512 84.9399 114.512 87.4469 114.512C87.9841 114.512 88.5213 114.512 89.1182 114.512C89.9539 114.512 90.7896 114.512 91.5655 114.453C105.235 114.274 117.829 113.857 128.275 113.262C132.394 114.095 136.93 114.512 141.646 114.512C149.943 114.512 157.583 113.143 163.672 110.822C165.522 111.06 167.432 111.179 169.343 111.179C174.177 111.179 178.714 110.465 182.773 109.275C185.638 110.465 189.22 111.179 193.159 111.179C197.099 111.179 200.919 110.405 203.844 109.155C212.976 112.607 223.124 114.572 233.868 114.572C245.687 114.572 256.789 112.25 266.579 108.084C270.757 112.905 279.949 116.238 290.634 116.238C305.258 116.238 317.077 109.989 317.077 102.311C317.077 102.073 317.077 101.775 317.077 101.537C325.314 105.108 337.849 107.37 351.936 107.37C355.936 107.37 359.816 107.191 363.457 106.834C365.188 109.334 373.843 111.239 384.229 111.239C395.869 111.239 405.3 108.858 405.3 105.942C405.3 103.382 398.137 101.24 388.586 100.704V100.585Z" fill="var(--fill-0, white)"/>
<path id="Vector_2" d="M103.026 80.0513C96.4602 80.587 90.6702 81.7178 86.1934 83.2058C82.6716 82.0749 78.4336 81.1226 73.7777 80.5275C78.2545 78.9205 83.5073 77.9682 89.1182 77.9682C94.1322 77.9682 98.8478 78.7419 103.026 80.0513Z" fill="var(--fill-0, white)"/>
<path id="Vector_3" d="M405.3 105.763C405.3 105.763 405.3 105.763 405.3 105.822C405.121 108.739 395.749 111.06 384.229 111.06C373.843 111.06 365.247 109.155 363.457 106.656C359.756 107.013 355.936 107.191 351.936 107.191C337.909 107.191 325.314 104.93 317.077 101.359C317.077 101.597 317.077 101.894 317.077 102.132C317.077 109.81 305.258 116.06 290.634 116.06C279.949 116.06 270.757 112.727 266.579 107.906C256.789 112.012 245.627 114.393 233.868 114.393C223.124 114.393 212.917 112.429 203.844 108.977C200.919 110.227 197.218 111.001 193.159 111.001C189.1 111.001 185.638 110.286 182.773 109.096C178.714 110.346 174.177 111.001 169.343 111.001C167.373 111.001 165.463 110.881 163.672 110.643C157.524 112.965 149.883 114.334 141.646 114.334C136.93 114.334 132.454 113.857 128.275 113.084C117.77 113.679 105.235 114.095 91.5058 114.274C90.6702 114.274 89.8942 114.334 89.0585 114.334C88.5213 114.334 87.9841 114.334 87.4469 114.334C84.9399 114.334 82.3732 114.334 79.8065 114.334C35.695 114.334 0 111.596 0 108.203C0 107.251 2.86515 106.358 7.93886 105.525C18.146 103.918 37.4858 102.668 60.7651 102.251C60.407 101.597 60.0489 100.942 59.8101 100.287C46.4991 99.9302 36.3516 98.0257 36.3516 95.8235C36.3516 93.6213 46.6184 91.7168 60.1085 91.3597C62.1977 86.7768 67.152 82.8486 73.7777 80.4679C78.4336 81.0631 82.6119 82.0154 86.1934 83.1462C90.7299 81.5988 96.5199 80.5275 103.026 79.9918C106.846 81.1822 110.189 82.9082 112.815 84.9318C114.726 83.6819 116.934 82.6106 119.381 81.6583C119.262 81.2417 119.143 80.825 119.143 80.4084C119.143 75.528 128.932 71.4212 142.004 70.469C140.512 68.7429 139.736 66.7789 139.736 64.6957C139.736 61.1842 142.124 57.9702 146.003 55.5895C150.838 55.8871 155.375 56.6013 159.494 57.7322C162.956 53.7445 168.328 50.352 174.953 47.9713C171.67 44.7573 169.163 41.1267 167.552 37.2581C177.52 15.4746 203.486 0 233.928 0C245.388 0 256.252 2.20215 265.862 6.13032C272.607 12.2011 276.607 19.6408 276.607 27.7352C276.607 29.6398 276.368 31.5444 275.95 33.3894C280.069 31.6039 284.605 30.5921 289.381 30.5921C292.067 30.5921 294.753 30.8897 297.26 31.5444C298.215 33.1514 299.11 34.7583 299.946 36.4248C301.617 35.7106 303.348 35.1154 305.258 34.5798C315.883 40.234 323.106 51.4233 323.106 64.2791C323.106 64.8743 323.106 65.41 323.106 66.0051C329.373 63.9815 337.073 62.6126 345.49 62.196C342.267 63.9815 338.327 65.3504 333.969 66.3027C333.969 66.7193 333.969 67.1955 333.969 67.6121C333.969 71.0046 332.895 74.2781 330.925 77.1945C337.252 76.0041 344.415 75.3494 352.056 75.3494C371.216 75.3494 387.512 79.5752 394.018 85.5269C394.675 86.1221 395.212 86.7173 395.69 87.372C396.585 88.6219 397.063 89.9313 397.063 91.2406C397.063 94.6927 393.959 97.8471 388.706 100.466C398.256 101.002 405.419 103.144 405.419 105.703L405.3 105.763Z" fill="var(--fill-0, white)"/>
<path id="Vector_4" d="M413 97.8471C413 101.061 410.015 103.918 405.3 105.882C401.36 107.548 396.167 108.501 390.497 108.501C378.081 108.501 367.993 103.739 367.993 97.8471C367.993 97.49 367.993 97.0734 368.113 96.7163C362.86 97.5495 357.129 98.0257 351.101 98.0257C334.447 98.0257 319.942 94.3951 312.182 89.098C306.154 94.6331 298.095 98.0257 289.261 98.0257C270.638 98.0257 255.536 82.9677 255.536 64.3981C255.536 61.4818 255.894 58.6249 256.61 55.8871C251.298 58.8035 245.209 61.0652 238.464 62.5531C239.3 64.4577 239.778 66.4217 239.778 68.5049C239.778 81.8368 220.796 92.6095 197.397 92.6095C195.069 92.6095 192.741 92.4905 190.473 92.3119C187.309 94.038 183.668 94.9902 179.788 94.9902C174.655 94.9902 169.88 93.2642 166.06 90.4074C165.343 90.705 164.627 91.0026 163.851 91.3001C164.687 92.55 165.104 93.9784 165.104 95.4664C165.104 101.061 158.718 105.584 150.838 105.584C144.69 105.584 139.497 102.847 137.468 98.9779C136.99 99.1565 136.572 99.2755 136.035 99.4541C136.393 100.109 136.572 100.823 136.572 101.597C136.572 106.477 128.454 110.465 118.426 110.465C108.398 110.465 100.758 106.715 100.28 102.013C96.6989 101.656 93.3563 101.061 90.3717 100.347C89.357 100.823 88.2229 101.299 87.029 101.716C87.5663 102.192 87.8647 102.668 87.8647 103.204C87.8647 107.251 69.3009 110.465 46.4394 110.465C28.7709 110.465 13.6692 108.501 7.7001 105.763C17.9072 104.156 37.247 102.906 60.5264 102.489C60.1682 101.835 59.8101 101.18 59.5713 100.525C46.2603 100.168 36.1129 98.2637 36.1129 96.0616C36.1129 93.8594 46.3797 91.9548 59.8698 91.5977C61.9589 87.0149 66.9133 83.0867 73.5389 80.706C78.1948 81.3012 82.3732 82.2535 85.9546 83.3843C90.4911 81.8368 96.2811 80.7655 102.787 80.2299C106.608 81.4202 109.95 83.1462 112.577 85.1698C114.487 83.92 116.695 82.8486 119.143 81.8963C119.023 81.4797 118.904 81.0631 118.904 80.6465C118.904 75.766 128.693 71.6593 141.765 70.707C140.273 68.981 139.497 67.0169 139.497 64.9338C139.497 61.4223 141.885 58.2083 145.765 55.8276C150.6 56.1252 155.136 56.8394 159.255 57.9702C162.717 53.9826 168.089 50.59 174.715 48.2093C171.432 44.9954 168.925 41.3648 167.313 37.4962C177.281 15.7127 203.247 0.238071 233.689 0.238071C245.15 0.238071 256.013 2.44023 265.624 6.36839C272.369 12.4392 276.368 19.8789 276.368 27.9733C276.368 29.8779 276.129 31.7825 275.711 33.6275C279.83 31.842 284.367 30.8302 289.142 30.8302C291.828 30.8302 294.514 31.1278 297.021 31.7825C299.826 32.4371 302.512 33.4489 305.019 34.8179C315.644 40.472 322.867 51.6614 322.867 64.5172C322.867 65.1124 322.867 65.648 322.867 66.2432C329.135 64.2196 336.835 62.8507 345.251 62.4341C347.161 62.315 349.071 62.315 351.041 62.315C375.872 62.315 395.988 70.3499 395.988 80.2299C395.988 82.1939 395.212 84.039 393.78 85.765C393.362 86.3007 392.825 86.8363 392.287 87.372C393.362 87.372 394.436 87.491 395.451 87.61C405.419 88.6814 412.881 92.9071 412.881 97.9661L413 97.8471Z" fill="var(--fill-0, white)"/>
<path id="Vector_5" d="M0.417835 108.977C9.49082 105.942 19.5189 105.049 28.7112 104.87C29.6066 104.87 30.5019 104.87 31.3973 104.87C31.8748 104.87 32.7105 104.811 33.0686 104.751C34.7997 104.632 36.5904 104.454 38.3214 104.335C42.8579 103.977 47.4541 103.62 51.9906 103.918C53.1844 103.977 54.3185 104.096 55.4527 104.275C55.4527 104.275 55.4527 104.275 55.4527 104.215C55.8108 103.62 56.2286 103.025 56.7062 102.489C42.0223 102.847 29.1888 103.501 19.3995 104.335C19.3398 104.335 19.2204 104.335 19.1607 104.335C18.2654 104.394 17.37 104.513 16.5343 104.573C16.4149 104.573 16.2359 104.573 16.1165 104.573C15.8777 104.573 15.6987 104.573 15.4599 104.632C15.2808 104.632 15.1017 104.632 14.9227 104.632C14.7436 104.632 14.5645 104.632 14.3258 104.692C14.0273 104.692 13.6692 104.751 13.3707 104.811C13.2513 104.811 13.0723 104.811 12.9529 104.811C12.7141 104.811 12.4754 104.811 12.2366 104.87C12.1172 104.87 11.9978 104.87 11.8188 104.87C11.58 104.87 11.3412 104.87 11.1025 104.93C10.9831 104.93 10.8637 104.93 10.804 104.93C10.5056 104.93 10.1474 104.989 9.84897 105.049C9.84897 105.049 9.72958 105.049 9.66989 105.049C9.37144 105.049 9.13268 105.108 8.89392 105.168C8.83422 105.168 8.71484 105.168 8.65515 105.168C8.41639 105.168 8.17763 105.227 7.93886 105.287C7.93886 105.287 7.87917 105.287 7.81948 105.287C7.52103 105.287 7.22258 105.406 6.98381 105.406C6.98381 105.406 6.92412 105.406 6.86443 105.406C6.62567 105.406 6.4466 105.465 6.20783 105.525C6.08845 105.525 6.02876 105.525 5.90938 105.525C5.73031 105.525 5.61093 105.584 5.43185 105.644C5.31247 105.644 5.25278 105.644 5.1334 105.644C4.95433 105.644 4.83495 105.703 4.65587 105.763C4.4768 105.763 4.35742 105.822 4.17835 105.882C4.05897 105.882 3.99928 105.882 3.8799 105.942C3.76051 105.942 3.64113 105.942 3.52175 106.001C3.46206 106.001 3.40237 106.001 3.28299 106.001C3.16361 106.001 3.04423 106.061 2.92484 106.12C2.92484 106.12 2.86515 106.12 2.80546 106.12C2.5667 106.18 2.32794 106.239 2.14887 106.299C2.14887 106.299 2.08917 106.299 2.02948 106.299C1.9101 106.299 1.85041 106.358 1.73103 106.418C1.73103 106.418 1.67134 106.418 1.61165 106.418C1.49227 106.418 1.43258 106.477 1.3132 106.537C1.13412 106.596 0.955051 106.656 0.83567 106.775C0.83567 106.775 0.83567 106.775 0.775979 106.775C0.716288 106.775 0.656598 106.834 0.596907 106.894C0.596907 106.894 0.537216 106.894 0.477526 106.894C0.477526 106.894 0.358144 106.953 0.358144 107.013C0.358144 107.013 0.298454 107.013 0.238763 107.072C0.238763 107.072 0.119381 107.132 0.119381 107.191C0.119381 107.191 0.0596907 107.251 0.0596907 107.31C0.0596907 107.31 0.0596907 107.31 0.0596907 107.37C0.0596907 107.37 0.0596907 107.429 0.0596907 107.489C0.0596907 107.489 0.0596907 107.608 0.0596907 107.668C0.0596907 107.906 0.238763 108.084 0.477526 108.322L0.417835 108.977Z" fill="var(--fill-0, white)"/>
<path id="Vector_6" d="M379.215 94.038C387.93 90.824 398.256 89.3361 407.628 90.9431C404.524 89.217 400.346 87.9672 395.57 87.491C395.57 87.491 395.511 87.372 395.451 87.372C395.332 87.1934 395.152 86.9554 394.973 86.7768C394.973 86.7768 394.973 86.7173 394.914 86.6578C394.735 86.4197 394.556 86.2412 394.317 86.0626C394.257 86.0031 394.138 85.884 394.078 85.8245C394.078 85.8245 394.018 85.765 393.959 85.7055C395.391 83.9795 396.167 82.0749 396.167 80.1703C396.167 70.2309 376.051 62.2555 351.22 62.2555C349.25 62.2555 347.34 62.2555 345.43 62.3746C351.22 59.2201 354.742 54.9348 354.742 50.2329C354.742 40.5316 339.7 32.6752 321.136 32.6752C315.406 32.6752 309.974 33.4489 305.258 34.7583C302.751 33.4489 300.125 32.3776 297.26 31.7229C290.455 20.7717 279.412 11.844 265.922 6.30888C265.862 6.30888 265.803 6.30888 265.743 6.24936C265.385 6.13032 265.086 6.01129 264.728 5.83273C264.37 5.65418 263.952 5.53515 263.534 5.41611C263.236 5.29708 262.878 5.17804 262.579 5.059C262.102 4.88045 261.624 4.76142 261.207 4.58286C260.968 4.52335 260.669 4.40431 260.431 4.34479C259.714 4.10672 259.058 3.92817 258.341 3.6901C258.043 3.63058 257.804 3.51154 257.506 3.45203C257.028 3.33299 256.551 3.15444 256.013 3.0354C255.715 2.97589 255.417 2.85685 255.118 2.79733C254.581 2.6783 254.044 2.55926 253.506 2.38071C253.268 2.38071 253.029 2.26167 252.79 2.20215C252.014 2.0236 251.238 1.90457 250.522 1.72601C250.283 1.72601 250.104 1.6665 249.865 1.60698C249.268 1.48794 248.671 1.36891 248.075 1.30939C247.776 1.30939 247.537 1.24987 247.239 1.19035C246.642 1.13084 246.045 1.0118 245.508 0.952283C245.269 0.952283 245.03 0.892766 244.792 0.833248C243.956 0.714212 243.18 0.654695 242.344 0.535659C242.225 0.535659 242.106 0.535659 241.926 0.535659C241.21 0.476142 240.554 0.416624 239.837 0.357106C239.599 0.357106 239.3 0.357106 239.061 0.357106C238.464 0.357106 237.867 0.297588 237.271 0.297588C237.032 0.297588 236.793 0.297588 236.495 0.297588C235.659 0.297588 234.823 0.297588 233.988 0.297588C233.152 0.297588 232.257 0.297588 231.421 0.297588C231.242 0.297588 231.122 0.297588 230.943 0.297588C230.108 0.297588 229.332 0.357106 228.496 0.416624C228.317 0.416624 228.198 0.416624 228.018 0.416624C227.183 0.416624 226.407 0.535659 225.631 0.595177C225.631 0.595177 225.571 0.595177 225.511 0.595177C224.676 0.654695 223.9 0.77373 223.064 0.892765C222.885 0.892765 222.706 0.892766 222.587 0.952283C221.811 1.07132 221.035 1.19035 220.259 1.30939C220.08 1.30939 219.96 1.30939 219.781 1.36891C219.005 1.48794 218.289 1.60698 217.573 1.78553C217.513 1.78553 217.453 1.78553 217.394 1.78553C216.618 1.96408 215.842 2.08312 215.066 2.26167C214.887 2.26167 214.707 2.32119 214.528 2.38071C213.812 2.55926 213.036 2.73781 212.32 2.91637C212.2 2.91637 212.021 2.97589 211.902 3.0354C211.186 3.21396 210.529 3.39251 209.873 3.63058C209.753 3.63058 209.693 3.63058 209.574 3.6901C208.858 3.92817 208.141 4.10672 207.425 4.34479C207.246 4.34479 207.067 4.46383 206.888 4.52335C206.172 4.76142 205.515 4.99949 204.799 5.23756C204.679 5.23756 204.5 5.35659 204.381 5.41611C203.724 5.65418 203.127 5.89225 202.531 6.13032C202.411 6.13032 202.292 6.24936 202.172 6.24936C201.516 6.54695 200.859 6.78502 200.203 7.08261C200.024 7.14212 199.844 7.26116 199.665 7.32068C199.009 7.61827 198.352 7.91585 197.755 8.21344C197.636 8.27296 197.517 8.33248 197.337 8.392C196.741 8.68958 196.203 8.98717 195.666 9.22524C195.547 9.28476 195.427 9.34428 195.308 9.4038C194.711 9.70139 194.054 10.0585 193.458 10.4156C193.279 10.5346 193.099 10.5942 192.98 10.7132C192.383 11.0703 191.786 11.4274 191.189 11.7845C191.07 11.844 190.951 11.9631 190.831 12.0226C190.294 12.3202 189.816 12.6773 189.279 13.0344C189.16 13.0939 189.04 13.2129 188.861 13.2724C188.324 13.6296 187.727 14.0462 187.19 14.4033C187.011 14.5223 186.892 14.6414 186.713 14.7604C186.175 15.177 185.638 15.5341 185.101 15.9507C184.981 16.0103 184.922 16.1293 184.802 16.1888C184.325 16.5459 183.847 16.903 183.43 17.3197C183.31 17.4387 183.191 17.5577 183.071 17.6172C182.594 18.0339 182.057 18.4505 181.579 18.9266C181.46 19.0457 181.281 19.1647 181.161 19.2837C180.684 19.7004 180.206 20.1765 179.729 20.6526C179.669 20.7122 179.55 20.8312 179.49 20.8907C179.072 21.3073 178.654 21.724 178.236 22.1406C178.117 22.2596 177.998 22.3787 177.878 22.4977C177.46 22.9738 176.983 23.45 176.565 23.9261C176.446 24.0452 176.326 24.1642 176.207 24.3427C175.789 24.8189 175.371 25.3545 174.953 25.8307C174.953 25.8902 174.834 25.9497 174.774 26.0092C174.416 26.4854 173.998 26.9615 173.64 27.4377C173.521 27.5567 173.461 27.6757 173.342 27.7948C172.984 28.3304 172.566 28.8066 172.208 29.3422C172.088 29.4613 172.029 29.5803 171.909 29.7589C171.551 30.2945 171.193 30.8302 170.835 31.3658C170.835 31.3658 170.835 31.4849 170.775 31.4849C170.417 32.0205 170.119 32.5562 169.82 33.0918C169.76 33.2109 169.701 33.3299 169.581 33.4489C169.283 33.9846 168.984 34.5798 168.686 35.1154C168.626 35.2345 168.567 35.3535 168.507 35.4726C168.208 36.0677 167.91 36.6629 167.671 37.1986C165.582 41.7219 164.209 46.5428 163.612 51.4828C163.194 51.4828 162.717 51.4828 162.299 51.4828C155.912 51.4828 150.182 53.0303 146.123 55.53C145.884 55.6491 145.705 55.7681 145.466 55.9466C145.466 55.9466 145.407 55.9466 145.347 56.0062C145.168 56.1252 144.989 56.2442 144.81 56.3633C144.81 56.3633 144.69 56.4228 144.631 56.4823C144.452 56.6013 144.332 56.7204 144.153 56.8394C144.093 56.8394 144.034 56.9584 143.974 56.9584C143.855 57.0775 143.676 57.1965 143.556 57.3155C143.496 57.3155 143.437 57.4346 143.377 57.4941C143.258 57.6131 143.138 57.7322 143.019 57.8512C142.959 57.9107 142.9 57.9702 142.84 58.0298C142.72 58.1488 142.601 58.2678 142.541 58.3869C142.482 58.4464 142.422 58.5059 142.362 58.6249C142.243 58.744 142.183 58.863 142.064 58.982C142.004 59.0416 141.944 59.1606 141.885 59.2201C141.825 59.3392 141.706 59.4582 141.646 59.5772C141.646 59.6367 141.527 59.7558 141.467 59.8153C141.407 59.9343 141.288 60.0534 141.228 60.1724C141.228 60.2319 141.109 60.351 141.049 60.4105C140.989 60.5295 140.93 60.6485 140.87 60.7676C140.87 60.8866 140.751 60.9461 140.751 61.0652C140.751 61.1842 140.631 61.3032 140.572 61.4223C140.572 61.5413 140.512 61.6008 140.452 61.7199C140.452 61.8389 140.393 61.9579 140.333 62.077C140.333 62.196 140.273 62.315 140.213 62.3746C140.213 62.4936 140.154 62.6126 140.094 62.6721C140.094 62.7912 140.094 62.9102 140.034 63.0292C140.034 63.1483 140.034 63.2078 139.975 63.3268C139.975 63.4459 139.975 63.6244 139.975 63.7435C139.975 63.803 139.975 63.922 139.975 63.9815C139.975 64.2196 139.975 64.3982 139.975 64.6362C139.975 65.41 140.094 66.1837 140.333 66.8979C140.691 68.1478 141.348 69.2786 142.303 70.3499C140.87 70.469 139.437 70.588 138.065 70.7665C131.618 71.5998 126.306 73.2663 123.023 75.3494C120.754 76.7778 119.441 78.4443 119.441 80.2299C119.441 80.3489 119.441 80.4679 119.441 80.587C119.441 80.706 119.441 80.825 119.441 80.9441C119.441 81.1226 119.501 81.3012 119.56 81.4797C118.844 81.7773 118.128 82.0749 117.471 82.3725C115.86 83.0867 114.367 83.8604 113.054 84.7532C112.099 84.039 111.084 83.3248 109.95 82.6701C109.95 82.6701 109.831 82.6106 109.771 82.5511C109.473 82.3725 109.115 82.194 108.816 82.0154C108.756 82.0154 108.637 81.8964 108.577 81.8964C108.279 81.7178 107.921 81.5988 107.622 81.4202C107.503 81.4202 107.443 81.3012 107.324 81.3012C106.966 81.1226 106.667 81.0036 106.309 80.8846C106.19 80.8846 106.13 80.825 106.011 80.7655C105.653 80.587 105.235 80.4679 104.877 80.3489C104.817 80.3489 104.698 80.3489 104.638 80.2894C104.22 80.1108 103.802 79.9918 103.325 79.8728C103.325 79.8728 103.325 79.8728 103.265 79.8728C102.787 79.7537 102.37 79.5752 101.892 79.4561C101.773 79.4561 101.713 79.4561 101.653 79.3966C101.235 79.2776 100.818 79.1585 100.4 79.099C100.28 79.099 100.101 79.0395 99.9819 78.98C99.6238 78.9205 99.2059 78.8014 98.7881 78.7419C98.609 78.7419 98.43 78.6824 98.2509 78.6229C97.8928 78.5634 97.4749 78.5039 97.1168 78.4443C96.9377 78.4443 96.7586 78.3848 96.5796 78.3253C96.1617 78.2658 95.8036 78.2063 95.3857 78.1467C95.2067 78.1467 95.0276 78.1467 94.8485 78.0872C94.371 78.0872 93.9532 77.9682 93.4756 77.9682C93.3563 77.9682 93.2369 77.9682 93.1175 77.9682C91.9237 77.9087 90.6702 77.8492 89.4167 77.8492C88.7601 77.8492 88.1035 77.8492 87.4469 77.8492C87.3872 77.8492 87.2678 77.8492 87.2081 77.8492C86.5515 77.8492 85.9546 77.9087 85.298 77.9682H85.1786C84.522 77.9682 83.9251 78.0872 83.3282 78.1467C82.7313 78.2063 82.0747 78.3253 81.4778 78.4443C81.4181 78.4443 81.3584 78.4443 81.2987 78.4443C80.0452 78.6824 78.8514 78.9205 77.7173 79.2181C77.7173 79.2181 77.6576 79.2181 77.5979 79.2181C77.001 79.3966 76.4638 79.5157 75.8669 79.6942C75.8669 79.6942 75.8669 79.6942 75.8072 79.6942C74.4343 80.1108 73.0614 80.6465 71.8079 81.1821C71.7482 81.1821 71.6885 81.2417 71.5692 81.3012C71.2707 81.4202 70.9723 81.5393 70.7335 81.7178C70.6141 81.7178 70.5544 81.8368 70.435 81.8368C70.1963 81.9559 69.8978 82.0749 69.6591 82.2535C69.5397 82.2535 69.48 82.3725 69.3606 82.432C69.0621 82.5511 68.8234 82.7296 68.5846 82.9082C68.5249 82.9082 68.4652 82.9677 68.4055 83.0272C68.1071 83.2058 67.749 83.3843 67.4505 83.6224C67.3908 83.6224 67.3311 83.7414 67.2714 83.7414C67.0327 83.92 66.7939 84.039 66.6148 84.2176C66.4954 84.2771 66.3761 84.3961 66.3164 84.4556C66.1373 84.5747 65.9582 84.6937 65.7792 84.8722C65.6598 84.9318 65.5404 85.0508 65.4807 85.1103C65.3016 85.2294 65.1823 85.3484 65.0032 85.5269C64.8838 85.5865 64.8241 85.7055 64.7047 85.765C64.5257 85.884 64.3466 86.0626 64.2272 86.2412C64.1675 86.3007 64.0481 86.4197 63.9884 86.4792C63.7497 86.7173 63.5109 86.9554 63.3318 87.1934C63.3318 87.1934 63.2721 87.3125 63.2125 87.3125C63.0334 87.491 62.8543 87.7291 62.6752 87.9076C62.6156 87.9672 62.5559 88.0862 62.4962 88.1457C62.3768 88.3243 62.2574 88.4433 62.138 88.6219C62.0783 88.7409 62.0186 88.8004 61.959 88.9195C61.8396 89.098 61.7202 89.2766 61.6008 89.3956C61.6008 89.5146 61.4814 89.5741 61.4217 89.6932C61.3024 89.8717 61.183 90.0503 61.1233 90.2288C61.1233 90.2884 61.0636 90.3479 61.0039 90.4669C60.8845 90.705 60.7054 91.0026 60.5861 91.2406C51.334 91.4787 43.5742 92.431 39.6346 93.7404C37.8439 94.3356 36.8292 94.9902 36.8292 95.7045C36.8292 97.6685 44.8277 99.3946 55.9302 99.9897C56.9449 99.9897 58.0194 100.109 59.0938 100.109C63.8094 95.1688 70.3753 92.312 76.9413 90.4074C83.1492 88.6219 90.0136 88.0267 96.3408 89.4551C101.892 90.705 107.025 92.431 111.98 94.7522C114.845 91.3002 119.441 89.4551 124.336 89.4551C126.067 89.4551 127.738 89.8717 129.23 90.6455C129.23 90.1098 129.23 89.5741 129.23 89.0385C130.006 80.8846 136.871 76.4207 144.571 76.4207C146.779 76.4207 148.869 77.1349 150.659 78.2658C150.301 76.7778 150.122 75.2304 150.242 73.7424C151.017 65.5885 157.882 61.1247 165.582 61.1247C166.597 61.1247 167.611 61.3032 168.507 61.5413C182.057 43.8645 205.455 34.5203 227.959 33.0323C243.18 32.0205 258.401 32.8538 272.906 37.7342C275.771 38.6865 278.577 39.8173 281.322 41.0672C284.128 38.746 287.888 37.5557 291.888 37.5557C295.35 37.5557 298.394 39.2222 300.602 41.7219C313.794 39.9959 328.359 39.3412 335.82 52.6136C338.208 56.8394 337.491 61.9579 335.044 65.9456C337.849 66.1837 340.595 66.5408 343.341 67.0169C348.236 67.8502 353.488 68.5644 358.204 70.1714C363.337 71.9569 367.516 74.8138 371.336 78.4443C375.574 82.4915 378.439 88.0267 379.693 93.8594L379.215 94.038Z" fill="var(--fill-0, white)"/>
<path id="Vector_7" d="M202.65 61.6603C202.65 61.6603 247.418 76.0041 272.309 47.5546C272.309 47.5546 238.584 68.6239 202.65 61.6603Z" fill="var(--fill-0, white)"/>
<path id="Vector_8" d="M291.649 88.8599C291.649 88.8599 317.734 98.2042 333.85 85.1103C333.85 85.1103 316.122 89.9908 291.649 88.8599Z" fill="var(--fill-0, white)"/>
<path id="Vector_9" d="M123.679 102.43C123.679 102.43 140.452 106.061 147.078 93.4428C147.078 93.4428 137.886 99.8707 123.679 102.43Z" fill="var(--fill-0, white)"/>
<path id="Vector_10" d="M78.1948 98.2042C78.1948 98.2042 95.3261 110.881 109.353 100.049C109.353 100.049 95.6842 102.549 78.1948 98.2042Z" fill="var(--fill-0, white)"/>
<path id="Vector_11" d="M153.704 90.4074C153.704 90.4074 168.626 98.8589 178.774 88.8004C178.774 88.8004 168.089 92.1334 153.704 90.4074Z" fill="var(--fill-0, white)"/>
</g>
<path id="Vector_12" d="M247.358 91.3002C247.358 91.3002 236.674 108.917 218.528 108.917C218.528 108.917 244.016 117.309 265.385 104.989C265.385 104.989 241.568 110.941 247.418 91.3002H247.358Z" fill="var(--fill-0, white)"/>
</g>
</svg>
